<?xml version="1.0" encoding="utf-8"?>
<!-- Generator: Adobe Illustrator 22.1.0, SVG Export Plug-In . SVG Version: 6.00 Build 0)  -->
<svg version="1.1" id="레이어_1" xmlns="http://www.w3.org/2000/svg" xmlns:xlink="http://www.w3.org/1999/xlink" x="0px"
	 y="0px" viewBox="0 0 500 500" style="enable-background:new 0 0 500 500;" xml:space="preserve">
<style type="text/css">
	.st0{fill:#CCCCCC;}
	.st1{fill:#F5CC1E;}
</style>
<g id="그룹_5" transform="translate(-0.035 -0.05)">
	<g id="그룹_2" transform="translate(7.997 18.003)">
		<g id="그룹_1">
			<path id="패스_1" class="st0" d="M400.1,431H297.9c-8.7,0-15.8-7.1-15.8-15.8V306.2c0-23-18.6-41.6-41.6-41.6
				c-23,0-41.6,18.6-41.6,41.6c0,0,0,0,0,0v109.3c0,8.7-7.1,15.8-15.8,15.8h-99c-8.7,0-15.8-7.1-15.8-15.8V200.1
				c0-8.8,7.1-15.8,15.8-15.8s15.8,7.1,15.8,15.8v199.2h67.3v-93.1c0-40.5,32.8-73.3,73.3-73.2c40.4,0,73.2,32.8,73.2,73.2v93.5
				h70.9V200.1c0-8.8,7.1-15.8,15.8-15.8c8.8,0,15.8,7.1,15.8,15.8v215.1C416,423.9,408.9,430.8,400.1,431z"/>
		</g>
	</g>
	<g id="그룹_3" transform="translate(44.607 3.734)">
		<path id="패스_2" class="st0" d="M356.4,211.2c-8.7,0-15.8-7.1-15.8-15.8V93.9c0-8.8,7.1-15.8,15.8-15.8
			c8.8,0,15.8,7.1,15.8,15.8v101.4C372.2,204.1,365.1,211.1,356.4,211.2z"/>
	</g>
	<g id="그룹_4" transform="translate(0.035 0.05)">
		<path id="패스_3" class="st1" d="M24.7,291.7c-4.4,0.1-8.6-1.8-11.5-5.1c-5.9-6.3-5.6-16.2,0.8-22.1c0,0,0,0,0,0L239.4,54.8
			c6.1-5.5,15.3-5.5,21.4,0l225.4,209.5c6.3,6.1,6.5,16.2,0.4,22.6c-6,6.2-15.8,6.5-22.2,0.8L250.1,88.1L35.4,287.7
			C32.5,290.4,28.7,291.8,24.7,291.7z"/>
	</g>
</g>
</svg>
