<svg xmlns="http://www.w3.org/2000/svg" xmlns:xlink="http://www.w3.org/1999/xlink" viewBox="0 0 280 280">
  <defs>
    <style>
      .cls-1, .cls-6 {
        opacity: 0.6;
      }

      .cls-2 {
        fill: #6464ff;
      }

      .cls-3 {
        fill: #c6c6c6;
      }

      .cls-4 {
        fill: #fff;
      }

      .cls-5 {
        fill: #282866;
      }

      .cls-7 {
        clip-path: url(#clip-path);
      }

      .cls-8 {
        fill: #9191f9;
      }
    </style>
    <clipPath id="clip-path">
      <rect id="사각형_93" data-name="사각형 93" class="cls-1" width="280" height="280" transform="translate(28.38)"/>
    </clipPath>
  </defs>
  <g id="그룹_180" data-name="그룹 180" transform="translate(-28.38)">
    <rect id="사각형_92" data-name="사각형 92" class="cls-2" width="280" height="280" transform="translate(28.38)"/>
    <g id="그룹_136" data-name="그룹 136">
      <path id="패스_88" data-name="패스 88" class="cls-3" d="M235.73,161.09l-2.83-2.79-34.04-33.79-13.95,14.03,34.04,33.79,2.83,2.79a9.892,9.892,0,0,0,13.95-14.03Z"/>
      <g id="그룹_135" data-name="그룹 135">
        <path id="패스_89" data-name="패스 89" class="cls-4" d="M123.74,138.19a52.772,52.772,0,1,0-.21-74.63A52.769,52.769,0,0,0,123.74,138.19Zm7.92-7.97a41.536,41.536,0,1,1,58.74-.17A41.537,41.537,0,0,1,131.66,130.22Z"/>
      </g>
      <circle id="타원_6" data-name="타원 6" class="cls-5" cx="41.53" cy="41.53" r="41.53" transform="matrix(0.318, -0.948, 0.948, 0.318, 108.372, 126.929)"/>
    </g>
    <g id="그룹_177" data-name="그룹 177" class="cls-6">
      <g id="그룹_137" data-name="그룹 137" class="cls-7">
        <path id="패스_90" data-name="패스 90" class="cls-8" d="M35.42,126.45c1.37,0,2.78.49,5.18,2.89,3.2,3.2,7.08,4.29,10.79,4.91a54.149,54.149,0,0,0-7.54,2.09c-3.86-1.83-6.91-3.61-8.35-6.87-.45-1.04-.9-2.01-1.37-2.9a7.553,7.553,0,0,1,1.29-.12m0-2a18.6,18.6,0,0,0-4.37.76,34.294,34.294,0,0,1,2.62,5.05c1.84,4.17,5.72,6.21,10.09,8.25a55.173,55.173,0,0,1,19.41-3.4c-5.92-3.69-15.04-1.07-21.15-7.18-2.66-2.66-4.56-3.48-6.6-3.48Z"/>
      </g>
      <g id="그룹_138" data-name="그룹 138" class="cls-7">
        <path id="패스_91" data-name="패스 91" class="cls-8" d="M65.84,151.64a47.339,47.339,0,0,1,24.14,6.91c10.66,6.43,18.33,16.34,20.86,26.82a41.237,41.237,0,0,0-13.01,4.73l-.39-.75c2.14-8.54-2.82-18.59-12.09-24.24a27.065,27.065,0,0,0-13.84-3.94,21.887,21.887,0,0,0-7.44,1.26,34.837,34.837,0,0,0-2.32-10.58,39.442,39.442,0,0,1,4.09-.21m0-2a40.614,40.614,0,0,0-7.04.6c1.94,3.69,3.3,8.54,3.4,15.23a18.922,18.922,0,0,1,9.31-2.3,25.105,25.105,0,0,1,12.81,3.66c8.93,5.43,13.39,15.04,10.96,22.8.68,1.07,1.16,2.23,1.75,3.3a38.954,38.954,0,0,1,16.2-5.92c-2.04-11.45-9.99-22.8-22.22-30.18a49.63,49.63,0,0,0-25.17-7.19Z"/>
      </g>
      <g id="그룹_142" data-name="그룹 142" class="cls-7">
        <g id="그룹_139" data-name="그룹 139">
          <path id="패스_92" data-name="패스 92" class="cls-8" d="M152.57,198.31c7.42,0,17.1,2.94,22.18,16.52a41.1,41.1,0,0,0-15.52,5.09,41.248,41.248,0,0,0-9.86-21.43c.66-.07,1.39-.13,2.17-.16.33-.01.67-.02,1.03-.02m0-2c-.38,0-.74.01-1.1.02a28.036,28.036,0,0,0-6.11.87,39.418,39.418,0,0,1,12.23,26.1,38.9,38.9,0,0,1,19.89-6.69c-5.29-17.13-17.02-20.3-24.91-20.3Z"/>
        </g>
        <g id="그룹_140" data-name="그룹 140">
          <path id="패스_93" data-name="패스 93" class="cls-8" d="M28.28,151.7a13.431,13.431,0,0,1,7.66,12.13v.3c-1.07-.14-2.21-.26-3.47-.34a9.875,9.875,0,0,0-6.26-9.14,25.687,25.687,0,0,0,2.07-2.95m-.92-2.53a21.119,21.119,0,0,1-5.24,6.79h.49a7.887,7.887,0,0,1,7.86,7.86,6.2,6.2,0,0,1-.29,1.84,49.833,49.833,0,0,1,7.57.78,23.081,23.081,0,0,0,.19-2.62,15.437,15.437,0,0,0-10.58-14.65Z"/>
        </g>
        <g id="그룹_141" data-name="그룹 141">
          <path id="패스_94" data-name="패스 94" class="cls-8" d="M12.87,127.2a13.316,13.316,0,0,1,1.88,24.03c-.6-.98-1.25-1.94-1.93-2.88A9.854,9.854,0,0,0,18,139.67a9.949,9.949,0,0,0-6.04-9.07,25.362,25.362,0,0,0,.91-3.4m-1.61-2.57a25.235,25.235,0,0,1-1.94,7.28,7.874,7.874,0,0,1,.29,15.52,47.633,47.633,0,0,1,4.37,6.4,15.272,15.272,0,0,0,9.51-14.17,15.487,15.487,0,0,0-12.23-15.03Z"/>
        </g>
      </g>
      <g id="그룹_143" data-name="그룹 143" class="cls-7">
        <path id="패스_95" data-name="패스 95" class="cls-8" d="M17.76,201.28a1.031,1.031,0,0,1-.49.1c-.1.19-.19.39-.29.58a5.265,5.265,0,0,0,.78-.68Z"/>
      </g>
      <g id="그룹_148" data-name="그룹 148" class="cls-7">
        <g id="그룹_144" data-name="그룹 144">
          <path id="패스_96" data-name="패스 96" class="cls-8" d="M118.38,188.63a37.955,37.955,0,0,1,10.35,1.48,34.165,34.165,0,0,1,10.35,4.67,49.628,49.628,0,0,1,4.92,3.9,37.333,37.333,0,0,1,11.49,23.64,41.028,41.028,0,0,0-7.24,6.64,31.616,31.616,0,0,0,.17-3.23,30.079,30.079,0,0,0-30.04-30.04,29.417,29.417,0,0,0-15.76,4.53c-.96-2.12-1.94-4.29-3.01-6.53A37.318,37.318,0,0,1,113.49,189h.03l.03-.01a28.541,28.541,0,0,1,4.83-.36m0-2a30.6,30.6,0,0,0-5.14.39,38.765,38.765,0,0,0-16.2,5.92c1.75,3.59,3.3,7.08,4.75,10.29a27.524,27.524,0,0,1,16.59-5.53,28.054,28.054,0,0,1,28.04,28.04,29.549,29.549,0,0,1-2.13,10.96h.97a39.835,39.835,0,0,1,12.32-13.39,39.4,39.4,0,0,0-12.23-26.1,53.826,53.826,0,0,0-5.14-4.08,36.414,36.414,0,0,0-10.96-4.95,39.814,39.814,0,0,0-10.87-1.55Z"/>
        </g>
        <g id="그룹_145" data-name="그룹 145">
          <path id="패스_97" data-name="패스 97" class="cls-8" d="M13.55,121a19.232,19.232,0,0,1,13.79,15.62,17.215,17.215,0,0,1,.26,3.04,13.279,13.279,0,0,1-.33,3.2l-.45,1.81,1.77.58a19.486,19.486,0,0,1,13.47,18.57c0,.51-.01.99-.04,1.44-.73-.18-1.42-.34-2.1-.48q.03-.48.03-.96a17.429,17.429,0,0,0-11.94-16.55l-1.67-.56-.76,1.59a19.284,19.284,0,0,1-4.71,6.12,21.736,21.736,0,0,1-4.89,3.12l-1.77.8.75,1.8a56.455,56.455,0,0,1,2.44,7.04,51.137,51.137,0,0,1,1.87,13.63V181a52.762,52.762,0,0,1-3.8,19.56l-.12.25-.13.26-.04.07-.03.07a50.529,50.529,0,0,1-4.11,7.88,32.586,32.586,0,0,0-9.01-5.07v-2.27a40.337,40.337,0,0,0,5.72-20.73,41.37,41.37,0,0,0-5.72-20.93V142.13c.17.15.34.3.5.46a55.62,55.62,0,0,1,5.55,6.12,44.535,44.535,0,0,1,4.18,6.13l.87,1.54,1.64-.68a17.32,17.32,0,0,0-1.31-32.52c.04-.77.08-1.49.09-2.18m-2.1-2.49a26.359,26.359,0,0,1-.19,6.11,15.477,15.477,0,0,1,12.23,15.04,15.283,15.283,0,0,1-9.51,14.17,46.116,46.116,0,0,0-4.37-6.4,60.187,60.187,0,0,0-5.72-6.31c-1.26-1.16-2.52-2.23-3.88-3.3v22.8A39.227,39.227,0,0,1,5.73,181,38.525,38.525,0,0,1,0,201.18v4.27a30.983,30.983,0,0,1,11.45,6.6,53.206,53.206,0,0,0,5.53-10.09c.1-.19.19-.39.29-.58A54.533,54.533,0,0,0,21.25,181v-.19a53.19,53.19,0,0,0-1.94-14.17,58.9,58.9,0,0,0-2.52-7.28,23.58,23.58,0,0,0,5.34-3.4,21.26,21.26,0,0,0,5.24-6.79,15.427,15.427,0,0,1,10.58,14.65,25.641,25.641,0,0,1-.19,2.62,40.375,40.375,0,0,1,5.92,1.36,17.919,17.919,0,0,0,.39-3.98,21.461,21.461,0,0,0-14.85-20.47,15.407,15.407,0,0,0,.39-3.69,19.738,19.738,0,0,0-.29-3.4,21.348,21.348,0,0,0-17.87-17.75Z"/>
        </g>
        <g id="그룹_146" data-name="그룹 146">
          <path id="패스_98" data-name="패스 98" class="cls-8" d="M80.9,240.07a63.13,63.13,0,0,0,18.23,22.29c8.94,6.67,22.71,7.91,36.02,9.11,17.57,1.58,34.22,3.08,38.97,16.2h-69c-5.05-16.71-12.56-28.97-22.35-36.49a54,54,0,0,0-1.87-11.11m-3.18-12.79a50.615,50.615,0,0,1-1.55,5.43,54.281,54.281,0,0,1,4.66,19.5c9.12,6.69,17.27,18.34,22.8,37.45h73.16c-6.5-28.53-55.79-13.49-76.46-28.91-11.06-8.34-18.05-20.08-22.61-33.47Z"/>
        </g>
        <g id="그룹_147" data-name="그룹 147">
          <path id="패스_99" data-name="패스 99" class="cls-8" d="M268.13,200.95c8.69,0,20.89,3.65,28.58,11.78,9.95,10.61,16.31,28.38,18.39,51.4l1.61,17.81,2.36-17.72c2.29-17.17,8.2-29.56,17.58-36.82a33.362,33.362,0,0,1,20.31-7c.53,0,1.05.01,1.57.04,8.5.39,12.22,2.92,13.42,4.3a15.836,15.836,0,0,1-2.48.39c-3.07-1.72-7.41-2.66-12.33-2.66a38.623,38.623,0,0,0-14.54,2.77c-15.66,6.7-23.67,27.7-23.82,62.42h-8.76a96.481,96.481,0,0,0,3.54-27.11c0-7.6-3.18-14.01-8.98-18.14-2.88-18.35-12.77-29.27-26.59-29.27a26.338,26.338,0,0,0-8.76,1.49c-.14-.2-.27-.39-.4-.55a8.927,8.927,0,0,0-1.41-7.42,8.232,8.232,0,0,0-12.22-.78c1.03-1.84,3.03-3.2,5.98-4.06a25.851,25.851,0,0,1,6.95-.87m-7.12,7.86a2.857,2.857,0,0,1,2.85,3.05c0,.89,0,2.56-3.63,2.56-2.6,0-5.68-.85-5.85-4.83a2.775,2.775,0,0,0,.79.99,2.415,2.415,0,0,0,1.6.62,2.754,2.754,0,0,0,2.22-1.36,2.006,2.006,0,0,1,2.02-1.03m7.12-9.86a27.183,27.183,0,0,0-7.52.97c-4.95,1.46-8.25,4.46-8.25,9.31,0,5.43,4.08,7.18,7.86,7.18,3.88,0,5.63-1.75,5.63-4.56A4.858,4.858,0,0,0,261,206.8c-3.32,0-3.58,2.39-4.24,2.39a.539.539,0,0,1-.32-.15c-1.26-.97,1.26-3.49,4.56-3.49s7.37,2.81,5.63,9.12a6.045,6.045,0,0,1,1.65,2.52,23.5,23.5,0,0,1,9.7-2.04c13.58,0,22.32,11.45,24.74,28.43,5.05,3.3,8.83,8.83,8.83,16.98,0,13.88-2.43,23.68-4.27,29.11h13.49c-.1-22.7,3.1-54.24,22.61-62.58a36.555,36.555,0,0,1,13.75-2.61c4.58,0,8.92.85,11.87,2.71,2.52-.19,4.85-.58,5.34-1.65.49-1.26-3.1-6.5-15.72-7.08-.51-.03-1.07-.05-1.66-.05a35.314,35.314,0,0,0-21.53,7.42c-8.15,6.31-15.62,17.76-18.34,38.13-1.84-20.38-7.28-40.17-18.92-52.59-7.69-8.15-20.05-12.41-30.04-12.42Z"/>
        </g>
      </g>
      <g id="그룹_156" data-name="그룹 156" class="cls-7">
        <g id="그룹_149" data-name="그룹 149">
          <path id="패스_100" data-name="패스 100" class="cls-8" d="M26.49,218.12a36.862,36.862,0,0,1,34.55,24.02,54.007,54.007,0,0,0-6.92-.44,64.216,64.216,0,0,0-9.69.77,21.678,21.678,0,0,0-16.74-9.29,66.376,66.376,0,0,0-7.6-14.48,37.411,37.411,0,0,1,6.4-.58m0-2a41.618,41.618,0,0,0-9.9,1.26,63.147,63.147,0,0,1,9.7,17.76h.19a19.831,19.831,0,0,1,16.98,9.51,63.459,63.459,0,0,1,10.66-.95,49.623,49.623,0,0,1,9.82.95,38.791,38.791,0,0,0-37.45-28.53Z"/>
        </g>
        <g id="그룹_150" data-name="그룹 150">
          <path id="패스_101" data-name="패스 101" class="cls-8" d="M118.38,213.47a12.339,12.339,0,0,1,10.63,18.64,27.712,27.712,0,0,1-9.32-5.07,46.816,46.816,0,0,1-9.15-10.77,12.039,12.039,0,0,1,7.84-2.8m0-2A14.061,14.061,0,0,0,108,215.93a49.412,49.412,0,0,0,10.38,12.61,30.73,30.73,0,0,0,11.45,5.92,14.333,14.333,0,0,0-11.45-22.99Z"/>
        </g>
        <g id="그룹_151" data-name="그룹 151">
          <path id="패스_102" data-name="패스 102" class="cls-8" d="M10.47,134.3a5.849,5.849,0,0,1-.15,10.81c-1.19-1.45-2.46-2.86-3.78-4.19a39.638,39.638,0,0,0,3.93-6.62m-1.16-2.4a36.975,36.975,0,0,1-5.43,9.22,58.055,58.055,0,0,1,5.72,6.31,8,8,0,0,0,6.4-7.76,7.907,7.907,0,0,0-6.69-7.77Z"/>
        </g>
        <g id="그룹_152" data-name="그룹 152">
          <path id="패스_103" data-name="패스 103" class="cls-8" d="M29.21,181.93A33.715,33.715,0,0,1,62.7,211.71a56.633,56.633,0,0,0-19.21-10.54,19.927,19.927,0,0,0-14.27-5.87,20.418,20.418,0,0,0-8.3,1.72,56.317,56.317,0,0,0,2.33-14.58,35.061,35.061,0,0,1,5.96-.51m0-2a35.9,35.9,0,0,0-7.96.87v.19a54.533,54.533,0,0,1-3.98,20.38,1.051,1.051,0,0,0,.49-.1,18.366,18.366,0,0,1,24.65,1.65,54.791,54.791,0,0,1,22.51,13.49v-.87a35.672,35.672,0,0,0-35.71-35.61Z"/>
        </g>
        <g id="그룹_153" data-name="그룹 153">
          <path id="패스_104" data-name="패스 104" class="cls-8" d="M22.82,157.97a5.862,5.862,0,0,1,5.64,5.7,57.07,57.07,0,0,0-7.73.69c-.4-1.32-.87-2.66-1.41-4.05a24.258,24.258,0,0,0,3.5-2.34m-.21-2h-.49a23.932,23.932,0,0,1-5.34,3.4,58.335,58.335,0,0,1,2.52,7.28,55.379,55.379,0,0,1,9.9-.97h.97a6.2,6.2,0,0,0,.29-1.84,7.874,7.874,0,0,0-7.85-7.87Z"/>
        </g>
        <g id="그룹_154" data-name="그룹 154">
          <path id="패스_105" data-name="패스 105" class="cls-8" d="M2,169.84A36.994,36.994,0,0,1,3.72,181,36.226,36.226,0,0,1,2,192.07V169.84m-2-9.22v40.56A38.544,38.544,0,0,0,5.72,181,39.254,39.254,0,0,0,0,160.62Z"/>
        </g>
        <g id="그룹_155" data-name="그룹 155">
          <path id="패스_106" data-name="패스 106" class="cls-8" d="M254.76,255.73c2.74,0,11.45.84,13.97,11.16-2.3.22-5.14.33-8.6.33-.94,0-1.93-.01-3-.02h-2.34a37.005,37.005,0,0,0-7.18-9.89,16.879,16.879,0,0,1,7.15-1.58m0-2a18.344,18.344,0,0,0-10.53,3.24,34.2,34.2,0,0,1,9.31,12.23h3.59c1.05.02,2.05.02,3,.02a75.17,75.17,0,0,0,10.97-.61c-1.59-10.65-9.06-14.88-16.34-14.88Z"/>
        </g>
      </g>
      <g id="그룹_162" data-name="그룹 162" class="cls-7">
        <g id="그룹_157" data-name="그룹 157">
          <path id="패스_107" data-name="패스 107" class="cls-8" d="M71.5,165.17a23.03,23.03,0,0,1,11.77,3.37c5.68,3.46,9.47,8.78,10.43,14.07-8.85-13.57-22.16-15.79-29.7-15.83a17.469,17.469,0,0,1,7.5-1.61m0-2a18.922,18.922,0,0,0-9.31,2.3,15.148,15.148,0,0,0-4.46,3.78,38.7,38.7,0,0,1,6.04-.48c10.17,0,22.27,4.01,29.66,17.26.68,1.26,1.26,2.43,1.84,3.59,2.43-7.76-2.04-17.37-10.96-22.8a25.287,25.287,0,0,0-12.81-3.65Z"/>
        </g>
        <g id="그룹_158" data-name="그룹 158">
          <path id="패스_108" data-name="패스 108" class="cls-8" d="M127.95,176.35c3.13,1.65,6.89,5.17,9.2,12.68a39.492,39.492,0,0,0-6.16-2.44,56.733,56.733,0,0,0-3.04-10.24m-3.66-3.31a55.023,55.023,0,0,1,4.95,15.14,36.193,36.193,0,0,1,10.96,4.95c-3.1-16.4-12.12-19.5-15.91-20.09Z"/>
        </g>
        <g id="그룹_159" data-name="그룹 159">
          <path id="패스_109" data-name="패스 109" class="cls-8" d="M290.5,251.89c5.94,0,10.42,6.23,10.42,14.49,0,7.85-4.04,12.33-7.96,16.66a48.169,48.169,0,0,0-3.84,4.62h-47.8c6.75-5.24,15.79-8.08,26.01-8.08,1.71,0,3.47.08,5.22.23,1.71.16,3.37.24,4.93.24,18.94,0,21.17-11.64,21.41-15.21.28-4.77-.52-8.09-2.47-10.16a7.357,7.357,0,0,0-5.55-2.15,4.139,4.139,0,0,0-4.07,2.32,2.759,2.759,0,0,0,.52,3.03,2.415,2.415,0,0,0,1.72.72,3.342,3.342,0,0,0,1.43-.38,1.979,1.979,0,0,1,.88-.25c.63,0,.96.73.96,1.25,0,1.03-1.09,1.64-2.91,1.64-3.6,0-5.28-1.4-5.28-4.4.04-.44.22-4.57,6.38-4.57m0-2c-7.18,0-8.34,4.85-8.34,6.6s.49,6.4,7.28,6.4,5.63-6.89,1.94-6.89c-1.24,0-1.86.62-2.31.62a.421.421,0,0,1-.31-.14c-.49-.49,0-1.94,2.13-1.94,2.04,0,6.6.39,6.02,10.19-.44,6.67-5.48,13.33-19.41,13.33-1.48,0-3.06-.08-4.75-.23-1.85-.16-3.66-.24-5.41-.24-13.84,0-24.45,4.93-31.17,12.08h54.05c3.78-6.21,12.71-11.16,12.71-23.29-.01-9.21-5.25-16.49-12.43-16.49Z"/>
        </g>
        <g id="그룹_160" data-name="그룹 160">
          <path id="패스_110" data-name="패스 110" class="cls-8" d="M179.6,218.61c1.36,0,2.71.09,4.09.19a37.394,37.394,0,0,1,32.15,29,57.356,57.356,0,0,0-7.11,1.18,29.956,29.956,0,0,0-51.21-13.56c-1.78-.11-3.55-.21-5.31-.31-1.19-.07-2.35-.13-3.49-.2a37.483,37.483,0,0,1,9.98-9.95,37.093,37.093,0,0,1,18.82-6.35h2.08m0-2h-2.13a39,39,0,0,0-19.89,6.69,39.734,39.734,0,0,0-12.32,13.39c4.27.29,8.64.49,13.1.78a27.964,27.964,0,0,1,48.81,13.98,53.992,53.992,0,0,1,11.06-1.84,39.426,39.426,0,0,0-34.35-32.8c-1.37-.1-2.82-.2-4.28-.2Z"/>
        </g>
        <g id="그룹_161" data-name="그룹 161">
          <path id="패스_111" data-name="패스 111" class="cls-8" d="M216.09,262.74c4.45,0,12.39.94,18.89,6.77a58.62,58.62,0,0,0-11.47,4.3,20.6,20.6,0,0,0-10.08-2.75,20.051,20.051,0,0,0-6.46,1.09c-.24-.88-.49-1.77-.76-2.65a28.136,28.136,0,0,0,2.22-5.86,32.8,32.8,0,0,1,7.66-.9m0-2a33.446,33.446,0,0,0-9.32,1.28,26.169,26.169,0,0,1-2.72,7.28c.58,1.75,1.07,3.59,1.55,5.53a19.227,19.227,0,0,1,7.84-1.77,18.933,18.933,0,0,1,10.02,3.03,58.368,58.368,0,0,1,15.43-5.43c-6.45-7.57-15.31-9.92-22.8-9.92Z"/>
        </g>
      </g>
      <g id="그룹_166" data-name="그룹 166" class="cls-7">
        <g id="그룹_163" data-name="그룹 163">
          <path id="패스_112" data-name="패스 112" class="cls-8" d="M29.21,197.3a18.046,18.046,0,0,0-11.45,3.98,63.271,63.271,0,0,1,8.73-.68,57.141,57.141,0,0,1,15.91,2.33,18,18,0,0,0-13.19-5.63Z"/>
        </g>
        <g id="그룹_164" data-name="그룹 164">
          <path id="패스_113" data-name="패스 113" class="cls-8" d="M29.12,237.33a17.664,17.664,0,0,1,10.89,5.96,90.962,90.962,0,0,0-8.87,2.4,65.05,65.05,0,0,0-2.02-8.36m-2.63-2.19H26.3a63.271,63.271,0,0,1,3.2,13.2,92.172,92.172,0,0,1,13.97-3.69,19.853,19.853,0,0,0-16.98-9.51Z"/>
        </g>
        <g id="그룹_165" data-name="그룹 165">
          <path id="패스_114" data-name="패스 114" class="cls-8" d="M2,101.23a34.083,34.083,0,0,1,7.46,17.48,23.754,23.754,0,0,1-.19,5.68,23.1,23.1,0,0,1-1.79,6.71l-.02.04-.02.04a32.424,32.424,0,0,1-3.87,7c-.51-.44-1.04-.88-1.58-1.32V101.23M0,96v41.82c1.36,1.07,2.62,2.13,3.88,3.3a36.5,36.5,0,0,0,5.43-9.22,25.235,25.235,0,0,0,1.94-7.28,25.818,25.818,0,0,0,.19-6.11C10.48,108.52,4.56,100.47,0,96Z"/>
        </g>
      </g>
      <g id="그룹_167" data-name="그룹 167" class="cls-7">
        <path id="패스_115" data-name="패스 115" class="cls-8" d="M2,94.39c7.04,4.63,9.04,9.34,11.68,15.59,2.97,6.98,5.94,8.53,8.82,10.03.61.32,1.19.62,1.78.98a14.8,14.8,0,0,1,5.09,5.29,32.317,32.317,0,0,1,2.47,4.77c2.1,4.76,6.26,7,11.07,9.25l.76.36.79-.3a52.767,52.767,0,0,1,18.7-3.27c1.95,0,3.85.17,5.86.36l.22.02a68.388,68.388,0,0,1,27.71,9.42,69.981,69.981,0,0,1,19.25,16.98l.48.62.78.13c4.31.72,12.32,2.05,19.23,7.81a33.389,33.389,0,0,1,9.07,12.19l.55,1.23,1.34-.05c.25-.01.55-.02.9-.02,6.37,0,27.09,2.13,32.87,28.85-.6-.03-1.21-.04-1.82-.04h-.68c-6.04-17.62-19.03-20.3-26.35-20.3-.4,0-.8.01-1.17.02a30.923,30.923,0,0,0-5.51.68c-1.4-1.21-2.64-2.19-3.87-3.06-3.49-16.95-13.31-20.25-17.41-20.88l-3.79-.58,1.69,3.44a54.551,54.551,0,0,1,4.16,11.56,41,41,0,0,0-8.28-.86c-1.28,0-2.45.05-3.56.16-2.7-11.64-11.09-22.62-22.78-29.67a51.346,51.346,0,0,0-26.19-7.48,42.767,42.767,0,0,0-7.39.63l-2.7.47,1.28,2.43a30.351,30.351,0,0,1,3.14,13.19,16.8,16.8,0,0,0-2.75,2.25c.24-11.74-5.39-20.15-16.44-24.45-5.01-1.91-7.94-3.48-9.76-6.57a23.184,23.184,0,0,0-17.96-18.78C11.73,106.33,5.34,98.59,2,95.17v-.78m61.78,76.39c7.04,0,20.04,2.11,27.9,16.21.66,1.23,1.25,2.4,1.82,3.54l.05.09.06.09a19.512,19.512,0,0,1,1.01,1.88c.21.43.42.85.64,1.26,1.4,2.88,2.66,5.67,3.88,8.36l.83,1.82a142.874,142.874,0,0,0,6.31,12.91,51.32,51.32,0,0,0,10.81,13.12,32.512,32.512,0,0,0,12.2,6.32,76.078,76.078,0,0,0,14.85,2.3l.08.01h.98c2.24.15,4.56.28,6.8.41,2.06.11,4.14.23,6.22.37,17.55,1.29,35.4,4.71,43.95,30.46.58,1.73,1.07,3.61,1.51,5.39a101.239,101.239,0,0,1,2.28,12.27l.01.08H194.44c-.71-6.14-3.37-17.58-13.19-24.48-8.89-6.24-21.77-8-35.41-9.86-14.09-1.93-28.66-3.92-39.45-11.03-8.82-5.82-12.37-16.35-15.8-26.53-3.35-9.92-6.51-19.31-14.5-22.67a52.887,52.887,0,0,0-19.5-21.64l1.46-.23a37.537,37.537,0,0,1,5.73-.45M0,90.86V96c4.56,4.46,10.48,12.52,11.45,22.51A21.3,21.3,0,0,1,29.3,136.27c2.13,3.88,5.63,5.72,10.96,7.76,7.47,2.91,16.69,9.51,14.94,25.71-1.36.39-2.52.78-3.69,1.16A50.719,50.719,0,0,1,74.6,194.67c15.52,5.53,12.13,37.07,30.66,49.29,21.64,14.26,57.25,8.54,74.81,20.86,10.09,7.08,12.13,19.31,12.52,24.84h15.62a9.782,9.782,0,0,0-.29-2.33,103.039,103.039,0,0,0-2.33-12.52c-.49-1.94-.97-3.78-1.55-5.53-8.83-26.59-27.27-30.47-45.7-31.83-4.46-.29-8.83-.49-13.1-.78h-.97a74.3,74.3,0,0,1-14.46-2.23,30.585,30.585,0,0,1-11.45-5.92,49.582,49.582,0,0,1-10.38-12.61c-2.23-3.88-4.17-8.15-6.21-12.71-1.46-3.2-3.01-6.7-4.75-10.29-.58-1.07-1.07-2.23-1.75-3.3-.58-1.16-1.16-2.33-1.84-3.59-7.39-13.25-19.49-17.26-29.66-17.26a37.433,37.433,0,0,0-6.04.48,15.276,15.276,0,0,1,4.46-3.78c-.1-6.7-1.46-11.55-3.4-15.23a40.615,40.615,0,0,1,7.04-.6A49.449,49.449,0,0,1,91,156.83c12.23,7.37,20.18,18.73,22.22,30.18a30.764,30.764,0,0,1,5.14-.39,39.814,39.814,0,0,1,10.87,1.55,55.132,55.132,0,0,0-4.95-15.14c3.78.58,12.81,3.69,15.91,20.08a52.293,52.293,0,0,1,5.14,4.08,27.518,27.518,0,0,1,6.11-.87c.36-.01.73-.02,1.1-.02,7.89,0,19.62,3.17,24.9,20.3h2.13c1.46,0,2.91.1,4.27.19-5.25-30.59-28.35-33.01-35.32-33.01-.37,0-.7.01-.97.02a35.278,35.278,0,0,0-9.61-12.9c-6.99-5.82-14.94-7.37-20.18-8.25a72.275,72.275,0,0,0-19.79-17.47,70.731,70.731,0,0,0-28.53-9.7c-2.13-.19-4.17-.39-6.31-.39a54.948,54.948,0,0,0-19.41,3.4c-4.37-2.04-8.25-4.08-10.09-8.25a34.294,34.294,0,0,0-2.62-5.05,16.738,16.738,0,0,0-5.72-5.92c-3.49-2.13-6.5-2.33-9.8-10.09C12.32,101.63,9.9,96.29,0,90.86Z"/>
      </g>
      <g id="그룹_176" data-name="그룹 176" class="cls-7">
        <g id="그룹_168" data-name="그룹 168">
          <path id="패스_116" data-name="패스 116" class="cls-8" d="M269.65,195.12c.24,0,.48,0,.73.01,4.83.1,8.96,2.08,11.98,3.53,2,.96,3.45,1.65,4.75,1.65a2.934,2.934,0,0,0,2.35-1.09l.02-.03.02-.03a6.858,6.858,0,0,1,5.32-2.55c1.85,0,4.43.77,6.21,4.46,3.47,7.2,5.05,10.48,7.76,10.48a3.368,3.368,0,0,0,2.69-1.48c.93-1.18,2.61-2.4,3.81-2.4.92,0,1.71.88,2.36,2.65.42,1.08,1.69,4.38,4.86,4.38a7.726,7.726,0,0,0,2.36-.47,5.27,5.27,0,0,1,1.35-.32c.16,0,.45,0,.97.56.85.89.95,1.77,1.06,3.37a10.105,10.105,0,0,0,3.91,8.09c-6.74,6-11.64,14.57-14.64,25.58-3.07-18.18-9.06-32.11-17.89-41.53-7.48-7.92-19.84-13.04-31.49-13.04a31.8,31.8,0,0,0-6.03.55,1.147,1.147,0,0,1,.14-.31c.63-1.02,3.17-2.06,7.4-2.06h0m0-2c-6.84,0-11.18,2.5-9.03,6.8a27.082,27.082,0,0,1,7.52-.97c9.98,0,22.34,4.26,30.04,12.41,11.64,12.42,17.08,32.21,18.92,52.59,2.72-20.38,10.19-31.83,18.34-38.13-7.96-4.85-3.3-9.02-6.79-12.71a3.175,3.175,0,0,0-2.43-1.19c-1.31,0-2.54.79-3.7.79-1.05,0-2.05-.64-2.99-3.1-1.07-2.93-2.64-3.93-4.23-3.93-2.14,0-4.32,1.82-5.38,3.15a1.5,1.5,0,0,1-1.12.72c-1.39,0-2.99-3.18-5.96-9.35-1.95-4.04-5.05-5.59-8.01-5.59a8.791,8.791,0,0,0-6.93,3.36.921.921,0,0,1-.78.33c-2.38,0-8.53-5.01-16.69-5.18Z"/>
        </g>
        <g id="그룹_169" data-name="그룹 169">
          <path id="패스_117" data-name="패스 117" class="cls-8" d="M2,208.3a30.4,30.4,0,0,1,8.16,5.27,41.865,41.865,0,0,1,4.88,5.07,60.544,60.544,0,0,1,9.37,17.15,61.287,61.287,0,0,1,3.1,12.77l.29,2.46,2.35-.8a90.311,90.311,0,0,1,13.66-3.61,61.388,61.388,0,0,1,10.32-.92,47.861,47.861,0,0,1,9.42.91,39.866,39.866,0,0,1,16.1,7.22c9.22,6.77,16.38,18.15,21.29,33.84H2V208.3m-2-2.85v84.22H103.63c-5.53-19.11-13.68-30.76-22.8-37.45a41.59,41.59,0,0,0-16.88-7.57,49.623,49.623,0,0,0-9.82-.95,63.556,63.556,0,0,0-10.66.95,91.851,91.851,0,0,0-13.97,3.69,64.213,64.213,0,0,0-3.2-13.2,63.285,63.285,0,0,0-9.7-17.76,45.8,45.8,0,0,0-5.14-5.34A31.217,31.217,0,0,0,0,205.45Z"/>
        </g>
        <g id="그룹_170" data-name="그룹 170">
          <path id="패스_118" data-name="패스 118" class="cls-8" d="M357.14,226.48c4.51,0,8.34.85,10.77,2.38,1.9,1.24,2.81,2.64,2.88,4.41a2.156,2.156,0,0,1-.46,1.57,1.459,1.459,0,0,1-1.03.42,1,1,0,0,1-1.11-1.09c0-2.77-2.01-4.57-5.12-4.57a18.982,18.982,0,0,0-7.84,2.28c-.49.23-.95.45-1.4.65-6.67,3.09-8.89,4.91-11.17,22.63a165.288,165.288,0,0,0-.96,32.51H322.78c.11-23.14,4.03-51.32,21.39-58.74a34.366,34.366,0,0,1,12.97-2.45m0-2a36.555,36.555,0,0,0-13.75,2.61c-19.5,8.34-22.7,39.88-22.61,62.58h23.09a162.785,162.785,0,0,1,.78-34.25c2.43-18.82,4.56-18.44,11.45-21.73a17.07,17.07,0,0,1,6.97-2.08c2.09,0,3.12,1,3.12,2.57a2.983,2.983,0,0,0,3.11,3.09c1.76,0,3.59-1.31,3.48-4.06a7.41,7.41,0,0,0-3.78-6.02c-2.94-1.86-7.29-2.71-11.86-2.71Z"/>
        </g>
        <g id="그룹_171" data-name="그룹 171">
          <path id="패스_119" data-name="패스 119" class="cls-8" d="M214.55,219.37a52.8,52.8,0,0,1,7.63,3.53c10.54,5.97,17.18,14.67,19.76,25.87a27.177,27.177,0,0,0-3.63,2.19c-1.1-.48-2.26-.92-3.51-1.35-3.19-15.71-11.56-24.88-20.25-30.24m-18.88-5.63a29.934,29.934,0,0,0-3.94.24c9.99.87,35.71,6.4,41.33,37.16a43.3,43.3,0,0,1,5.53,2.13,24.836,24.836,0,0,1,5.63-3.4c-5.52-28.4-34.45-36.13-48.55-36.13Z"/>
        </g>
        <g id="그룹_172" data-name="그룹 172">
          <path id="패스_120" data-name="패스 120" class="cls-8" d="M32.03,120.36c5.56,0,10.35,2.03,12.82,5.44,2.45,3.39,5.95,3.59,9.34,3.79,3.43.2,6.94.41,10.53,3.55l-1.01-.03c-2.76-1.55-5.97-1.99-9.07-2.42-4.2-.58-8.17-1.13-11.22-4.18-2.85-2.85-5.25-4.07-8.01-4.07a15.318,15.318,0,0,0-3.47.48,20.307,20.307,0,0,0-2-2.47c.7-.06,1.4-.09,2.09-.09m0-2a24.651,24.651,0,0,0-6.71.93,16.572,16.572,0,0,1,5.72,5.92,18.51,18.51,0,0,1,4.37-.76c2.04,0,3.94.83,6.6,3.48,6.11,6.11,15.23,3.49,21.15,7.18,2.13,0,4.17.19,6.31.39-8.93-12.52-18.44-4.56-23-10.87-3.11-4.3-8.75-6.27-14.44-6.27Z"/>
        </g>
        <g id="그룹_173" data-name="그룹 173">
          <path id="패스_121" data-name="패스 121" class="cls-8" d="M238.98,193.09a2.56,2.56,0,1,1-2.56,2.56,2.565,2.565,0,0,1,2.56-2.56m0-2a4.56,4.56,0,1,0,4.56,4.56,4.558,4.558,0,0,0-4.56-4.56Z"/>
        </g>
        <g id="그룹_174" data-name="그룹 174">
          <path id="패스_122" data-name="패스 122" class="cls-8" d="M240.73,220.16a1.814,1.814,0,0,1,1.78,1.88,1.784,1.784,0,0,1-1.78,1.78,1.853,1.853,0,0,1-1.78-1.78,1.873,1.873,0,0,1,1.78-1.88m0-2a3.83,3.83,0,0,0,0,7.66,3.83,3.83,0,0,0,0-7.66Z"/>
        </g>
        <g id="그룹_175" data-name="그룹 175">
          <path id="패스_123" data-name="패스 123" class="cls-8" d="M270.42,173.69a5.08,5.08,0,0,1,0,10.16,5.08,5.08,0,0,1,0-10.16m0-2a7.08,7.08,0,1,0,7.08,7.08,7.055,7.055,0,0,0-7.08-7.08Z"/>
        </g>
      </g>
    </g>
    <g id="그룹_179" data-name="그룹 179">
      <g id="그룹_178" data-name="그룹 178">
        <path id="패스_124" data-name="패스 124" class="cls-2" d="M173.17,114.36a15.84,15.84,0,1,1-29.75-10.89c4.49-12.28,26.23-25.59,26.23-25.59S177.67,102.08,173.17,114.36Z"/>
      </g>
      <path id="패스_125" data-name="패스 125" class="cls-4" d="M152.98,112.89a12.1,12.1,0,0,1-2.34-3.72h0a12.983,12.983,0,0,1-.11-9.6h0a18.335,18.335,0,0,1,2.18-4.12h0a1.518,1.518,0,0,1,2.1-.38h0a1.519,1.519,0,0,1,.38,2.1h0a15.479,15.479,0,0,0-1.83,3.44h0a9.924,9.924,0,0,0,0,7.25h0a9.742,9.742,0,0,0,1.76,2.92h0a1.512,1.512,0,0,1-.01,2.13h0a1.51,1.51,0,0,1-1.58.35h0a1.668,1.668,0,0,1-.55-.37Z"/>
      <path id="패스_126" data-name="패스 126" class="cls-4" d="M158.95,92.54a1.62,1.62,0,1,1-.96-2.08A1.619,1.619,0,0,1,158.95,92.54Z"/>
    </g>
  </g>
</svg>
