<svg xmlns="http://www.w3.org/2000/svg" xmlns:xlink="http://www.w3.org/1999/xlink" viewBox="0 0 280 280">
  <defs>
    <style>
      .cls-1 {
        clip-path: url(#clip-path);
      }

      .cls-2 {
        fill: #f7b900;
      }

      .cls-3 {
        clip-path: url(#clip-path-2);
      }

      .cls-4 {
        fill: #f4cf73;
      }

      .cls-5 {
        clip-path: url(#clip-path-4);
      }

      .cls-15, .cls-6, .cls-8 {
        fill: none;
      }

      .cls-7 {
        clip-path: url(#clip-path-5);
      }

      .cls-8 {
        stroke: #f4cf73;
        stroke-width: 3px;
      }

      .cls-15, .cls-8 {
        stroke-miterlimit: 10;
      }

      .cls-9 {
        clip-path: url(#clip-path-6);
      }

      .cls-10 {
        clip-path: url(#clip-path-7);
      }

      .cls-11 {
        clip-path: url(#clip-path-8);
      }

      .cls-12 {
        clip-path: url(#clip-path-9);
      }

      .cls-13 {
        clip-path: url(#clip-path-11);
      }

      .cls-14 {
        fill: #c7eff9;
      }

      .cls-15 {
        stroke: #000;
        stroke-width: 2px;
      }

      .cls-16 {
        fill: #fff;
      }

      .cls-17 {
        fill: #c63710;
      }

      .cls-18 {
        clip-path: url(#clip-path-16);
      }

      .cls-19 {
        clip-path: url(#clip-path-17);
      }
    </style>
    <clipPath id="clip-path">
      <rect id="사각형_50" data-name="사각형 50" width="280" height="280"/>
    </clipPath>
    <clipPath id="clip-path-2">
      <rect id="사각형_52" data-name="사각형 52" width="280" height="280" transform="translate(18.16)"/>
    </clipPath>
    <clipPath id="clip-path-4">
      <rect id="사각형_59" data-name="사각형 59" width="280" height="280" transform="translate(-67.75 -103)"/>
    </clipPath>
    <clipPath id="clip-path-5">
      <rect id="사각형_60" data-name="사각형 60" width="280" height="280" transform="translate(0.25 -160.5)"/>
    </clipPath>
    <clipPath id="clip-path-6">
      <rect id="사각형_61" data-name="사각형 61" width="280" height="280" transform="translate(7.75 -160.5)"/>
    </clipPath>
    <clipPath id="clip-path-7">
      <rect id="사각형_62" data-name="사각형 62" width="280" height="280" transform="translate(16.75 -160.5)"/>
    </clipPath>
    <clipPath id="clip-path-8">
      <rect id="사각형_63" data-name="사각형 63" width="280" height="280" transform="translate(-250.25 -160.5)"/>
    </clipPath>
    <clipPath id="clip-path-9">
      <rect id="사각형_64" data-name="사각형 64" width="280" height="280" transform="translate(-259.25 -160.5)"/>
    </clipPath>
    <clipPath id="clip-path-11">
      <rect id="사각형_69" data-name="사각형 69" width="280" height="280" transform="translate(-98.75 -89)"/>
    </clipPath>
    <clipPath id="clip-path-16">
      <rect id="사각형_75" data-name="사각형 75" width="280" height="280" transform="translate(-235.07 -141.12)"/>
    </clipPath>
    <clipPath id="clip-path-17">
      <rect id="사각형_76" data-name="사각형 76" width="280" height="280" transform="translate(-223.37 -117.79)"/>
    </clipPath>
  </defs>
  <g id="그룹_82" data-name="그룹 82" transform="translate(-18.16)">
    <g id="그룹_47" data-name="그룹 47" class="cls-1" transform="translate(18.16)">
      <rect id="사각형_49" data-name="사각형 49" class="cls-2" width="280" height="280"/>
    </g>
    <g id="그룹_55" data-name="그룹 55" class="cls-3">
      <g id="그룹_53" data-name="그룹 53">
        <g id="그룹_48" data-name="그룹 48">
          <path id="패스_30" data-name="패스 30" class="cls-4" d="M230.22,131.4c-5.56,0-9.91-8.43-9.91-19.2S224.66,93,230.22,93s9.91,8.43,9.91,19.2S235.78,131.4,230.22,131.4Zm0-37.16c-4.7,0-8.67,8.22-8.67,17.96s3.97,17.96,8.67,17.96,8.67-8.22,8.67-17.96S234.92,94.24,230.22,94.24Z"/>
        </g>
        <g id="그룹_49" data-name="그룹 49">
          <path id="패스_31" data-name="패스 31" class="cls-4" d="M230.22,127.69c-4.52,0-8.05-6.8-8.05-15.49s3.54-15.49,8.05-15.49,8.05,6.8,8.05,15.49S234.73,127.69,230.22,127.69Zm0-29.73c-3.69,0-6.81,6.52-6.81,14.24s3.12,14.24,6.81,14.24,6.81-6.52,6.81-14.24S233.91,97.96,230.22,97.96Z"/>
        </g>
        <g id="그룹_50" data-name="그룹 50">
          <path id="패스_32" data-name="패스 32" class="cls-4" d="M230.22,123.97c-3.47,0-6.2-5.17-6.2-11.77s2.72-11.77,6.2-11.77,6.2,5.17,6.2,11.77S233.69,123.97,230.22,123.97Zm0-22.29c-2.68,0-4.95,4.82-4.95,10.53s2.27,10.53,4.95,10.53,4.95-4.82,4.95-10.53S232.9,101.68,230.22,101.68Z"/>
        </g>
        <g id="그룹_51" data-name="그룹 51">
          <path id="패스_33" data-name="패스 33" class="cls-4" d="M230.22,120.26c-2.43,0-4.34-3.54-4.34-8.05s1.91-8.05,4.34-8.05,4.34,3.54,4.34,8.05S232.65,120.26,230.22,120.26Zm0-14.87c-1.46,0-3.09,2.8-3.09,6.81s1.63,6.81,3.09,6.81,3.09-2.8,3.09-6.81S231.68,105.39,230.22,105.39Z"/>
        </g>
        <g id="그룹_52" data-name="그룹 52">
          <path id="패스_34" data-name="패스 34" class="cls-4" d="M230.22,116.54c-1.41,0-2.48-1.87-2.48-4.34s1.07-4.34,2.48-4.34,2.48,1.86,2.48,4.34S231.63,116.54,230.22,116.54Zm0-7.43c-.5,0-1.24,1.21-1.24,3.09s.73,3.09,1.24,3.09,1.24-1.21,1.24-3.09S230.72,109.11,230.22,109.11Z"/>
        </g>
      </g>
      <g id="그룹_54" data-name="그룹 54">
        <rect id="사각형_51" data-name="사각형 51" class="cls-4" width="1.24" height="47.85" transform="translate(229.6 112.2)"/>
      </g>
    </g>
    <g id="그룹_60" data-name="그룹 60" class="cls-3">
      <rect id="사각형_53" data-name="사각형 53" class="cls-4" width="48.06" height="35.19" transform="translate(43.54 78.87)"/>
      <g id="그룹_56" data-name="그룹 56">
        <rect id="사각형_54" data-name="사각형 54" class="cls-4" width="58.64" height="2.57" transform="translate(38.1 73.3)"/>
      </g>
      <g id="그룹_57" data-name="그룹 57">
        <rect id="사각형_55" data-name="사각형 55" class="cls-4" width="4.29" height="95" transform="translate(93.74 66)"/>
      </g>
      <g id="그룹_58" data-name="그룹 58">
        <rect id="사각형_56" data-name="사각형 56" class="cls-4" width="2.57" height="8.3" transform="translate(52.26 74.58)"/>
      </g>
      <g id="그룹_59" data-name="그룹 59">
        <rect id="사각형_57" data-name="사각형 57" class="cls-4" width="2.57" height="8.3" transform="translate(80.87 74.58)"/>
      </g>
      <path id="패스_35" data-name="패스 35" class="cls-2" d="M71.81,87.47H60.85V84.16l-8.7,5.77,8.7,6.43V93.14H71.81a3.6,3.6,0,0,1,3.59,3.6V107.7h5.67V96.74A9.267,9.267,0,0,0,71.81,87.47Z"/>
    </g>
    <g id="그룹_61" data-name="그룹 61" class="cls-5" transform="translate(85.91 103)">
      <line id="선_1" data-name="선 1" class="cls-6" x2="145"/>
    </g>
    <g id="그룹_62" data-name="그룹 62" class="cls-7" transform="translate(17.91 160.5)">
      <line id="선_2" data-name="선 2" class="cls-8" x2="280"/>
    </g>
    <g id="그룹_63" data-name="그룹 63" class="cls-9" transform="translate(10.41 160.5)">
      <line id="선_3" data-name="선 3" class="cls-8" x1="38" y2="105"/>
    </g>
    <g id="그룹_64" data-name="그룹 64" class="cls-10" transform="translate(1.41 160.5)">
      <line id="선_4" data-name="선 4" class="cls-8" x1="38" y2="105"/>
    </g>
    <g id="그룹_65" data-name="그룹 65" class="cls-11" transform="translate(268.41 160.5)">
      <line id="선_5" data-name="선 5" class="cls-8" x2="37" y2="105"/>
    </g>
    <g id="그룹_66" data-name="그룹 66" class="cls-12" transform="translate(277.41 160.5)">
      <line id="선_6" data-name="선 6" class="cls-8" x2="37" y2="105"/>
    </g>
    <g id="그룹_70" data-name="그룹 70" class="cls-3">
      <g id="그룹_67" data-name="그룹 67">
        <rect id="사각형_65" data-name="사각형 65" class="cls-4" width="8" height="5" transform="translate(153.41 165.5)"/>
      </g>
      <g id="그룹_68" data-name="그룹 68">
        <path id="패스_36" data-name="패스 36" class="cls-4" d="M161.41,233.93h-8V223.36h8Zm0-21.14h-8V202.22h8Zm0-21.15h-8V181.07h8Z"/>
      </g>
      <g id="그룹_69" data-name="그룹 69">
        <rect id="사각형_66" data-name="사각형 66" class="cls-4" width="8" height="5" transform="translate(153.41 244.5)"/>
      </g>
    </g>
    <g id="그룹_71" data-name="그룹 71" class="cls-13" transform="translate(116.91 89)">
      <rect id="사각형_68" data-name="사각형 68" class="cls-14" width="85" height="51"/>
    </g>
    <g id="그룹_72" data-name="그룹 72" class="cls-3">
      <line id="선_7" data-name="선 7" class="cls-15" y1="12.14" x2="10.37" transform="translate(140.11 117)"/>
      <line id="선_8" data-name="선 8" class="cls-15" y1="11.63" x2="10.74" transform="translate(163.45 117.51)"/>
    </g>
    <g id="그룹_76" data-name="그룹 76" class="cls-3">
      <path id="패스_37" data-name="패스 37" d="M116.98,173.45v9.87h.04c.18,2.49,1.85,4.45,3.91,4.45h6.48c2.18,0,3.95-2.19,3.95-4.89a6.107,6.107,0,0,0-.07-.86v-8.57"/>
      <path id="패스_38" data-name="패스 38" d="M187.07,173.45v9.87h.04c.18,2.49,1.85,4.45,3.91,4.45h6.48c2.18,0,3.95-2.19,3.95-4.89a6.107,6.107,0,0,0-.07-.86v-8.57"/>
      <g id="그룹_75" data-name="그룹 75">
        <circle id="타원_1" data-name="타원 1" class="cls-6" cx="8.48" cy="8.48" r="8.48" transform="translate(115.048 152.448) rotate(-67.5)"/>
        <path id="패스_39" data-name="패스 39" class="cls-6" d="M136.68,81.24H180A2.62,2.62,0,0,0,180,76H136.68a2.62,2.62,0,0,0,0,5.24Z"/>
        <path id="패스_40" data-name="패스 40" class="cls-6" d="M123.58,89.28l-4.36,27.46,80.03.13-5.11-27.59Z"/>
        <circle id="타원_2" data-name="타원 2" class="cls-6" cx="8.48" cy="8.48" r="8.48" transform="translate(184.87 139.38)"/>
        <g id="그룹_73" data-name="그룹 73">
          <path id="패스_41" data-name="패스 41" class="cls-16" d="M210.91,115.83l-3.49-27.94c-2.2-17.6-30.37-20.91-42.26-21.52l-5.24-.13s-44.71-.7-47.51,21.66l-3.49,27.94.3,12.3H210.63ZM136.68,76H180a2.62,2.62,0,0,1,0,5.24H136.68a2.62,2.62,0,0,1,0-5.24Zm-17.46,55.87,4.37-42.59h70.56L199.26,132Z"/>
        </g>
        <g id="그룹_74" data-name="그룹 74">
          <path id="패스_42" data-name="패스 42" class="cls-17" d="M109.21,128.13l1.1,45.69h99.2l1.1-45.69Zm16.92,28.22a8.48,8.48,0,1,1,8.48-8.48A8.484,8.484,0,0,1,126.13,156.35Zm67.22,0a8.48,8.48,0,1,1,8.48-8.48A8.484,8.484,0,0,1,193.35,156.35Z"/>
        </g>
      </g>
    </g>
    <g id="그룹_77" data-name="그룹 77" class="cls-3">
      <path id="패스_43" data-name="패스 43" class="cls-4" d="M257.3,39.87a16.782,16.782,0,0,0-32.62-1.85h-.28a14.978,14.978,0,0,0-14.57,18.5.075.075,0,0,0,.01.05.309.309,0,0,1,.02.08c.08.33.18.66.28.98.04.12.08.24.12.37.09.26.19.51.29.76.09.21.18.41.27.62.04.09.08.17.13.26a14.874,14.874,0,0,0,7.61,7.18.69.69,0,0,1,.1.04c.35.15.71.28,1.08.4.2.07.41.13.61.18l.45.12c.29.07.58.13.87.19.1.02.2.04.3.05.35.06.7.1,1.05.13.08.01.15.01.23.02.38.03.76.05,1.15.05s.76-.02,1.14-.05l.35-.03c.27-.03.54-.06.81-.1.12-.02.24-.03.36-.05q.5-.09.99-.21c.17-.04.33-.09.5-.14l.51-.15c.2-.06.39-.13.59-.2.11-.04.21-.08.31-.12a14.207,14.207,0,0,0,1.43-.65,15.665,15.665,0,0,0,8.87,2.76,15.476,15.476,0,0,0,10.16-3.75,13.385,13.385,0,0,0,6.45,1.64,13.544,13.544,0,0,0,.43-27.08Zm-.44,23.41a9.848,9.848,0,0,1-5.65-1.77l-1.27-.89-1.08,1.11a11.9,11.9,0,0,1-8.62,3.66,12.038,12.038,0,0,1-5.62-1.41,14.889,14.889,0,0,0,4.33-7.38,1.818,1.818,0,1,0-3.53-.87,11.307,11.307,0,0,1-4.61,6.64l-.29.19a11.68,11.68,0,0,1-2.09,1.05c-.03.01-.07.03-.1.04-.18.07-.37.13-.55.18l-.3.09-.48.12-.42.09c-.14.03-.28.05-.42.07-.18.03-.36.05-.54.07-.11.01-.22.03-.33.04-.3.02-.59.04-.89.04a8.443,8.443,0,0,1-.87-.04c-.06,0-.12-.01-.17-.01-.27-.02-.53-.06-.79-.1-.08-.01-.15-.03-.23-.04-.22-.04-.44-.09-.65-.14-.12-.03-.24-.06-.36-.1-.15-.04-.3-.09-.45-.14a11.409,11.409,0,0,1-6.67-5.81c-.02-.04-.04-.08-.06-.13-.09-.19-.17-.38-.25-.58-.06-.16-.12-.31-.18-.47-.04-.1-.07-.21-.11-.31-.08-.24-.15-.47-.21-.71a11.566,11.566,0,0,1-.34-2.78,11.361,11.361,0,0,1,11.35-11.35,10.4,10.4,0,0,1,1.45.1l1.69.22.32-1.68a13.145,13.145,0,0,1,26.02,1.58l.13,1.87,1.87-.18c.33-.03.66-.05.99-.05a9.89,9.89,0,1,1-.02,19.78Z"/>
    </g>
    <g id="그룹_78" data-name="그룹 78" class="cls-3">
      <path id="패스_44" data-name="패스 44" class="cls-4" d="M118.49,29.09a14.626,14.626,0,0,0-28.43-1.61h-.24A13.081,13.081,0,0,0,76.75,40.55a12.883,12.883,0,0,0,.37,3.06.09.09,0,0,0,.01.05.254.254,0,0,1,.02.07c.07.29.16.57.25.85.03.11.07.21.11.32.08.22.16.44.25.66l.24.54c.04.08.07.15.11.23a13.041,13.041,0,0,0,6.63,6.26.689.689,0,0,1,.08.03c.31.13.62.24.94.35.18.06.35.11.53.16.13.04.26.07.4.11.25.06.5.12.76.16.09.02.17.03.26.05.3.05.61.09.91.12.07.01.13.01.2.02.33.03.67.04,1,.04s.66-.02.99-.04l.31-.03c.24-.02.47-.05.7-.09.1-.02.21-.03.31-.05.29-.05.58-.11.87-.19.15-.04.29-.08.43-.12s.3-.09.44-.13c.17-.06.34-.11.51-.18.09-.03.18-.07.27-.11.43-.17.84-.36,1.25-.57a13.643,13.643,0,0,0,16.59-.87,11.689,11.689,0,0,0,5.63,1.43,11.8,11.8,0,0,0,.37-23.59Zm-.38,20.42a8.561,8.561,0,0,1-4.92-1.54l-1.11-.77-.94.97a10.428,10.428,0,0,1-12.42,1.96,13.032,13.032,0,0,0,3.78-6.43,1.586,1.586,0,0,0-3.08-.76,9.862,9.862,0,0,1-4.02,5.79l-.26.16a10.717,10.717,0,0,1-1.82.92.355.355,0,0,0-.09.04c-.16.06-.32.11-.48.16a2.759,2.759,0,0,1-.27.08c-.14.04-.28.07-.41.11s-.24.05-.36.08-.24.05-.36.07l-.47.06-.29.03q-.39.03-.78.03c-.26,0-.51-.01-.76-.03-.05,0-.1-.01-.15-.01q-.345-.03-.69-.09a1.416,1.416,0,0,1-.2-.04c-.19-.03-.38-.08-.57-.12-.1-.03-.21-.05-.31-.08a3.043,3.043,0,0,0-.39-.14,9.976,9.976,0,0,1-5.82-5.06.536.536,0,0,1-.05-.11c-.08-.17-.15-.34-.22-.51-.05-.14-.11-.27-.16-.41l-.09-.27a6.322,6.322,0,0,1-.18-.62,9.666,9.666,0,0,1-.3-2.42,9.91,9.91,0,0,1,9.9-9.9,11.392,11.392,0,0,1,1.27.08l1.48.19.28-1.46a11.457,11.457,0,0,1,22.68,1.37l.11,1.63,1.63-.16a8.379,8.379,0,0,1,.86-.04,8.62,8.62,0,1,1-.02,17.24Z"/>
    </g>
    <g id="그룹_79" data-name="그룹 79" class="cls-18" transform="translate(253.23 141.12)">
      <rect id="사각형_74" data-name="사각형 74" class="cls-4" width="5" height="19.01"/>
    </g>
    <g id="그룹_80" data-name="그룹 80" class="cls-19" transform="translate(241.53 117.79)">
      <circle id="타원_3" data-name="타원 3" class="cls-4" cx="14.19" cy="14.19" r="14.19"/>
    </g>
    <g id="그룹_81" data-name="그룹 81" class="cls-3">
      <path id="패스_45" data-name="패스 45" class="cls-2" d="M247.03,128.49h2.8c1.51,0,2.27.59,2.27,1.76v.21a2.416,2.416,0,0,1-.05.47,1.327,1.327,0,0,1-.19.42,1.418,1.418,0,0,1-.35.34,1.91,1.91,0,0,1-.54.23,1.881,1.881,0,0,1,1.07.5,1.537,1.537,0,0,1,.41,1.15v.25a1.815,1.815,0,0,1-.56,1.4,2.5,2.5,0,0,1-1.73.51h-3.11v-7.24Zm1.28,1.06v1.88h.94c.25,0,.47-.01.67-.02a1.314,1.314,0,0,0,.49-.11.657.657,0,0,0,.3-.27,1.074,1.074,0,0,0,.11-.53v-.18a.613.613,0,0,0-.36-.62,3.037,3.037,0,0,0-1.17-.16h-.98Zm0,5.09h1.16a5.408,5.408,0,0,0,.74-.04,1.459,1.459,0,0,0,.52-.14.727.727,0,0,0,.31-.29,1.077,1.077,0,0,0,.1-.51v-.22a.961.961,0,0,0-.1-.47.719.719,0,0,0-.32-.3,1.673,1.673,0,0,0-.58-.16,7.27,7.27,0,0,0-.87-.04h-.97v2.17Z"/>
      <path id="패스_46" data-name="패스 46" class="cls-2" d="M256.12,134.65a1.989,1.989,0,0,0,.68-.1,1.046,1.046,0,0,0,.48-.32,1.543,1.543,0,0,0,.28-.59,3.787,3.787,0,0,0,.09-.9v-4.26h1.28v4.24a4.8,4.8,0,0,1-.19,1.48,2.258,2.258,0,0,1-.54.95,1.989,1.989,0,0,1-.88.51,4.875,4.875,0,0,1-2.4,0,1.989,1.989,0,0,1-.88-.51,2.2,2.2,0,0,1-.54-.95,5.121,5.121,0,0,1-.19-1.48v-4.24h1.28v4.26a3.9,3.9,0,0,0,.09.9,1.41,1.41,0,0,0,.28.59.952.952,0,0,0,.48.32A2.028,2.028,0,0,0,256.12,134.65Z"/>
      <path id="패스_47" data-name="패스 47" class="cls-2" d="M262.55,134.66a1.581,1.581,0,0,0,1-.25.745.745,0,0,0,.31-.62v-.11a.748.748,0,0,0-.33-.66,2.9,2.9,0,0,0-.95-.36c-.3-.07-.6-.14-.91-.21a2.713,2.713,0,0,1-.82-.33,1.909,1.909,0,0,1-.6-.6,1.961,1.961,0,0,1-.23-1.01v-.13a1.952,1.952,0,0,1,.13-.69,1.835,1.835,0,0,1,.43-.66,2.329,2.329,0,0,1,.8-.5,3.382,3.382,0,0,1,1.23-.19,4.827,4.827,0,0,1,1.15.13,3.3,3.3,0,0,1,1.1.48l-.6.99a2.648,2.648,0,0,0-.82-.37,3.479,3.479,0,0,0-.81-.08,2.053,2.053,0,0,0-.59.08,1.182,1.182,0,0,0-.42.21,1.074,1.074,0,0,0-.25.28.674.674,0,0,0-.08.3v.12a.639.639,0,0,0,.13.42,1.018,1.018,0,0,0,.34.27,2.091,2.091,0,0,0,.5.17c.19.04.39.09.61.13a4.724,4.724,0,0,1,1.08.35,2.515,2.515,0,0,1,.7.47,1.618,1.618,0,0,1,.38.58,1.923,1.923,0,0,1,.12.69v.13a2.067,2.067,0,0,1-.22,1.01,1.682,1.682,0,0,1-.59.65,2.583,2.583,0,0,1-.85.35,4.647,4.647,0,0,1-1,.1,4.9,4.9,0,0,1-.77-.06,3.883,3.883,0,0,1-.71-.18,3.142,3.142,0,0,1-.62-.27,2.71,2.71,0,0,1-.5-.33l.62-1.02a2.971,2.971,0,0,0,.85.49A2.905,2.905,0,0,0,262.55,134.66Z"/>
    </g>
  </g>
</svg>
