<?xml version="1.0" encoding="utf-8"?>
<!-- Generator: Adobe Illustrator 26.3.1, SVG Export Plug-In . SVG Version: 6.00 Build 0)  -->
<svg version="1.1" id="레이어_1" xmlns="http://www.w3.org/2000/svg" xmlns:xlink="http://www.w3.org/1999/xlink" x="0px"
	 y="0px" viewBox="0 0 280 280" style="enable-background:new 0 0 280 280;" xml:space="preserve">
<style type="text/css">
	.st0{clip-path:url(#SVGID_00000075163401867416127860000009848373203446938499_);}
	.st1{fill:#88DCE5;}
	.st2{clip-path:url(#SVGID_00000061437495428969255460000003582671211387647128_);}
	.st3{fill:#9191F9;}
	.st4{opacity:0.5;}
	.st5{clip-path:url(#SVGID_00000062163871683862289790000013365211417085101476_);}
	.st6{fill:#FFFFFF;}
	.st7{clip-path:url(#SVGID_00000124131592484703446420000015939773593333456259_);}
	.st8{fill:none;stroke:#FFFFFF;stroke-width:1.5;stroke-linecap:round;stroke-linejoin:round;}
	.st9{clip-path:url(#SVGID_00000046333767386675578790000014263303917461229725_);}
	.st10{clip-path:url(#SVGID_00000114040937278791752870000004491622290439522219_);}
	.st11{opacity:0.3;}
	.st12{clip-path:url(#SVGID_00000157999554491035596140000014919669564843002004_);}
	.st13{fill:none;stroke:#FFFFFF;stroke-width:2;stroke-miterlimit:10;}
	.st14{clip-path:url(#SVGID_00000096055197408386423780000016763769681849730218_);}
	.st15{fill:#774935;}
	.st16{fill:#333131;}
	.st17{fill:#B35B32;}
	.st18{fill:#F7D9B6;}
	.st19{fill:#B57F68;}
	.st20{fill:#F65B2F;}
	.st21{fill:#95E264;}
	.st22{fill:#C93C04;}
	.st23{fill:#007800;}
	.st24{fill:#FF7A2F;}
	.st25{fill:#E25918;}
	.st26{fill:#008946;}
	.st27{fill:#53C94A;}
	.st28{fill:#A5EEAF;}
	.st29{fill:#FF7F00;}
	.st30{fill:#596F19;}
	.st31{fill:#BBBA84;}
	.st32{fill:#FF9900;}
	.st33{fill:#EB8028;}
	.st34{fill:#FFBB4D;}
	.st35{fill:#E87C7C;}
	.st36{fill:#FFBDC0;}
	.st37{fill:#2A9DAD;}
	.st38{fill:#FFCEA6;}
	.st39{fill:#473B38;}
	.st40{fill:#CE2C2C;}
	.st41{clip-path:url(#SVGID_00000088823019088271190000000004848807805228233355_);}
	.st42{fill:#FFB490;}
	.st43{clip-path:url(#SVGID_00000078762954904292041190000003523890983614503602_);}
	.st44{fill:#FF7E56;}
	.st45{fill:#FF9633;}
</style>
<g id="그룹_625" transform="translate(-113.563)">
	<g>
		<defs>
			<rect id="SVGID_1_" x="113.6" y="0.5" width="280" height="280"/>
		</defs>
		<clipPath id="SVGID_00000012451212851497402210000008690005189000275853_">
			<use xlink:href="#SVGID_1_"  style="overflow:visible;"/>
		</clipPath>
		<g id="그룹_624" style="clip-path:url(#SVGID_00000012451212851497402210000008690005189000275853_);">
			<rect id="사각형_282" x="113.6" y="0.5" class="st1" width="280" height="280"/>
			<g id="그룹_612">
				<g>
					<defs>
						<rect id="SVGID_00000004527222193064650920000006045346432129708168_" x="0" y="0.5" width="604.6" height="280"/>
					</defs>
					<clipPath id="SVGID_00000121274559385042117670000005243684803981175190_">
						<use xlink:href="#SVGID_00000004527222193064650920000006045346432129708168_"  style="overflow:visible;"/>
					</clipPath>
					<g id="그룹_611" style="clip-path:url(#SVGID_00000121274559385042117670000005243684803981175190_);">
						<path id="패스_974" class="st3" d="M401.9,201.8c-0.2,0.1-0.3,0.1-0.5,0.1l-0.3,0.6C401.4,202.3,401.7,202,401.9,201.8"/>
						<g id="그룹_604" class="st4">
							<g id="그룹_603">
								<g>
									<defs>
										<rect id="SVGID_00000120538611929354813940000011475018120383101581_" x="328.6" y="16.5" width="38" height="38"/>
									</defs>
									<clipPath id="SVGID_00000090287694438827534220000016757418271789724558_">
										<use xlink:href="#SVGID_00000120538611929354813940000011475018120383101581_"  style="overflow:visible;"/>
									</clipPath>
									<g id="그룹_602" style="clip-path:url(#SVGID_00000090287694438827534220000016757418271789724558_);">
										<path id="패스_975" class="st6" d="M347.6,48.3c-7.1,0-12.8-5.7-12.8-12.8s5.7-12.8,12.8-12.8c7.1,0,12.8,5.7,12.8,12.8
											C360.4,42.6,354.6,48.3,347.6,48.3 M347.6,25c-5.8,0-10.5,4.7-10.5,10.5c0,5.8,4.7,10.5,10.5,10.5
											c5.8,0,10.5-4.7,10.5-10.5c0,0,0,0,0,0C358.1,29.7,353.4,25,347.6,25"/>
										<rect id="사각형_283" x="346.4" y="16.5" class="st6" width="2.3" height="4.1"/>
										
											<rect id="사각형_284" x="338" y="18.8" transform="matrix(0.866 -0.5 0.5 0.866 35.0062 172.358)" class="st6" width="2.3" height="4.1"/>
										
											<rect id="사각형_285" x="331.8" y="25" transform="matrix(0.5002 -0.8659 0.8659 0.5002 142.9825 301.8133)" class="st6" width="2.3" height="4.1"/>
										<rect id="사각형_286" x="328.6" y="34.4" class="st6" width="4.1" height="2.3"/>
										
											<rect id="사각형_287" x="330.9" y="42.8" transform="matrix(0.866 -0.5 0.5 0.866 22.6106 172.3582)" class="st6" width="4.1" height="2.3"/>
										
											<rect id="사각형_288" x="337.1" y="49" transform="matrix(0.5 -0.866 0.866 0.5 126.095 318.7757)" class="st6" width="4.1" height="2.3"/>
										<rect id="사각형_289" x="346.4" y="50.4" class="st6" width="2.3" height="4.1"/>
										
											<rect id="사각형_290" x="354.9" y="48.1" transform="matrix(0.8661 -0.4999 0.4999 0.8661 22.5907 184.7025)" class="st6" width="2.3" height="4.1"/>
										
											<rect id="사각형_291" x="361.1" y="41.9" transform="matrix(0.5 -0.866 0.866 0.5 143.0396 335.7174)" class="st6" width="2.3" height="4.1"/>
										<rect id="사각형_292" x="362.5" y="34.4" class="st6" width="4.1" height="2.3"/>
										
											<rect id="사각형_293" x="360.2" y="25.9" transform="matrix(0.8661 -0.4999 0.4999 0.8661 34.985 184.7087)" class="st6" width="4.1" height="2.3"/>
										
											<rect id="사각형_294" x="354" y="19.7" transform="matrix(0.4999 -0.8661 0.8661 0.4999 160.0033 318.8056)" class="st6" width="4.1" height="2.3"/>
									</g>
								</g>
							</g>
						</g>
						<g id="그룹_607" class="st4">
							<g id="그룹_606">
								<g>
									<defs>
										<rect id="SVGID_00000012460735380342761490000008516599858445791416_" x="112.4" y="77" width="17.2" height="49.4"/>
									</defs>
									<clipPath id="SVGID_00000054230676597955481570000002410041061182070455_">
										<use xlink:href="#SVGID_00000012460735380342761490000008516599858445791416_"  style="overflow:visible;"/>
									</clipPath>
									<g id="그룹_605" style="clip-path:url(#SVGID_00000054230676597955481570000002410041061182070455_);">
										<path id="패스_976" class="st8" d="M114.8,79.4c1.2-1,2.6-1.5,4.2-1.6c5.5,0,9.9,7.6,9.9,17c0,9.4-4.4,17-9.9,17
											c-2.3-0.1-4.4-1.3-5.8-3.2"/>
										<line id="선_16" class="st8" x1="118.9" y1="85.3" x2="118.9" y2="125.7"/>
									</g>
								</g>
							</g>
						</g>
						<g id="그룹_610" class="st4">
							<g id="그룹_609">
								<g>
									<defs>
										<rect id="SVGID_00000174581149395500066980000003498896994921049476_" x="350.3" y="70.8" width="36.4" height="52.7"/>
									</defs>
									<clipPath id="SVGID_00000005230393945720883760000004078312543986513084_">
										<use xlink:href="#SVGID_00000174581149395500066980000003498896994921049476_"  style="overflow:visible;"/>
									</clipPath>
									<g id="그룹_608" style="clip-path:url(#SVGID_00000005230393945720883760000004078312543986513084_);">
										<path id="패스_977" class="st8" d="M365.1,76.4c-1.2-1-2.6-1.5-4.2-1.6c-5.5,0-9.9,7.6-9.9,17c0,9.4,4.4,17,9.9,17
											c2.3-0.1,4.4-1.3,5.8-3.2"/>
										<line id="선_17" class="st8" x1="361" y1="82.3" x2="361" y2="122.7"/>
										<path id="패스_978" class="st8" d="M386,89.6c0,10-4.7,18.1-10.6,18.1s-10.6-8.1-10.6-18.1s4.7-18.1,10.6-18.1
											S386,79.6,386,89.6z"/>
										<line id="선_18" class="st8" x1="375.4" y1="79.6" x2="375.4" y2="122.7"/>
										<line id="선_19" class="st8" x1="375.4" y1="87.4" x2="379.5" y2="83.4"/>
										<line id="선_20" class="st8" x1="375.4" y1="94.1" x2="370.3" y2="88.9"/>
										<line id="선_21" class="st8" x1="375.4" y1="102.2" x2="380.9" y2="96.8"/>
									</g>
								</g>
							</g>
						</g>
					</g>
				</g>
			</g>
			<g id="그룹_617">
				<g>
					<defs>
						<rect id="SVGID_00000178193719265529988390000005093637896611340947_" x="113.6" y="0.5" width="280" height="280"/>
					</defs>
					<clipPath id="SVGID_00000132088669106964514620000012045065477434448012_">
						<use xlink:href="#SVGID_00000178193719265529988390000005093637896611340947_"  style="overflow:visible;"/>
					</clipPath>
					<g id="그룹_616" style="clip-path:url(#SVGID_00000132088669106964514620000012045065477434448012_);">
						<g id="그룹_615" class="st11">
							<g id="그룹_614">
								<g>
									<defs>
										<rect id="SVGID_00000054266715108281812910000013822467377557162680_" x="0" y="71.7" width="604.6" height="208.8"/>
									</defs>
									<clipPath id="SVGID_00000073696399832937878730000015548158053255552957_">
										<use xlink:href="#SVGID_00000054266715108281812910000013822467377557162680_"  style="overflow:visible;"/>
									</clipPath>
									<g id="그룹_613" style="clip-path:url(#SVGID_00000073696399832937878730000015548158053255552957_);">
										<path id="패스_979" class="st13" d="M1,74.5c0,0,52.9,64,244.8,61.6s264.6-81.5,357.8-40.3v183.7H1V74.5z"/>
									</g>
								</g>
							</g>
						</g>
					</g>
				</g>
			</g>
			<g id="그룹_619">
				<g>
					<defs>
						<rect id="SVGID_00000004516844637787931490000000342120672217752992_" x="0" y="0.5" width="604.6" height="280"/>
					</defs>
					<clipPath id="SVGID_00000005255089908440624220000005646992173289450426_">
						<use xlink:href="#SVGID_00000004516844637787931490000000342120672217752992_"  style="overflow:visible;"/>
					</clipPath>
					<g id="그룹_618" style="clip-path:url(#SVGID_00000005255089908440624220000005646992173289450426_);">
						<path id="패스_980" class="st15" d="M279.7,72.6c9.5,8.2,11.4,19.4,11.4,31.9h2.2c0-13-1.4-27.4-11.6-36.2L279.7,72.6z"/>
						<path id="패스_981" class="st15" d="M178.8,118.1c0,0,5.4,8.6,4.1,23.3h4.6l4.5-23.5L178.8,118.1z"/>
						<path id="패스_982" class="st15" d="M261.6,114.6c0,0,4.4,10,4.4,12.5l-1.2,8.3h4c0,0,5.2-8.6,5.2-10.3c0,0,0.1-22,1.2-27.6
							C275.2,97.5,259.3,106.8,261.6,114.6"/>
						<path id="패스_983" class="st16" d="M187.8,141.5l-5.1-0.2l-2.4,4.3h7.9L187.8,141.5z"/>
						<path id="패스_984" class="st17" d="M166.1,80.5l3.9,21.2c0,0,3.1,17.5,14.2,19.2c0,0,74.9-6.1,83-5.9
							c0,0,15.5-11.6,17-27.3c0,0,0-19.4-3.5-20.1s-20.5-6.1-21.2-6.1s-34.7,7-57,7c-4.2-0.8-8.4-2-12.4-3.5c0,0-14.4,0.4-19,2
							L166.1,80.5z"/>
						<path id="패스_985" class="st17" d="M186.1,118.7c0,0,6.1,9.6,4.6,26.1h5.2l5.1-26.3L186.1,118.7z"/>
						<path id="패스_986" class="st16" d="M196.2,144.9l-5.7-0.2l-2.7,4.8h8.9L196.2,144.9z"/>
						<path id="패스_987" class="st17" d="M267.2,114.5c0,0,4.8,10.9,4.8,13.6l-1.4,9h4.3c0,0,5.7-9.4,5.7-11.2c0,0,0.1-24,1.4-30
							C282,95.8,264.7,106,267.2,114.5"/>
						<path id="패스_988" class="st16" d="M275,137.1v4.5h-6.4l2.3-4.6L275,137.1z"/>
						<path id="패스_989" class="st16" d="M268.7,135.4v4.1h-5.9l2.2-4.2L268.7,135.4z"/>
						<path id="패스_990" class="st18" d="M160.2,59.6c-2-1.6-3.2-4.2-3.1-6.8c2,1.9,4.4,3.4,6.9,4.6"/>
						<path id="패스_991" class="st18" d="M172.5,60.7c3.3,0,6.6-0.3,9.5-2.1c-1.7,3.2-5.3,6.4-9.3,5.4"/>
						<path id="패스_992" class="st16" d="M291.9,102.8c-3.3,2.4-2.6,8.7-4.8,12c4.4,0.8,9.6-9.1,6-12.1"/>
						<path id="패스_993" class="st17" d="M174.4,60.7c0,0-10.5-5.2-13.3-3.5l-14.9,18.6l5.2,8.5c0,0,12.2,0.7,16.4-2.8
							C172,77.9,175.3,60,174.4,60.7"/>
						<path id="패스_994" class="st19" d="M164.2,77.9c0,3.8-3,6.8-6.8,6.8l0,0h-6.1c-3.8,0-6.8-3-6.8-6.8c0-3.8,3-6.8,6.8-6.8
							h6.1C161.2,71.1,164.2,74.2,164.2,77.9L164.2,77.9"/>
						<path id="패스_995" class="st6" d="M145.4,81.8c0,3.6,2.6,6.6,5.9,6.6s5.9-2.9,5.9-6.6c0-1.9-0.7-3.7-2.1-5L154,78
							c1,1,1.6,2.4,1.6,3.8c0,2.7-1.9,5-4.3,5s-4.3-2.2-4.3-5c0-1.4,0.5-2.8,1.6-3.9l-1.1-1.2C146.2,78.1,145.4,80,145.4,81.8"/>
						<path id="패스_996" class="st16" d="M149.2,77.2c0,1.4-0.4,2.5-1,2.5s-1-1.1-1-2.5c0-1.4,0.4-2.5,1-2.5
							S149.2,75.9,149.2,77.2"/>
						<path id="패스_997" class="st16" d="M156.1,77.4c0,1.2-0.5,2.1-1.2,2.1s-1.2-1-1.2-2.1c0-1.2,0.5-2.1,1.2-2.1
							S156.1,76.3,156.1,77.4"/>
						<path id="패스_998" class="st16" d="M164.8,68.5c0-0.5,0.4-0.9,0.9-0.9c0.5,0,0.9,0.4,0.9,0.9c0,0.5-0.4,0.9-0.9,0.9
							c0,0,0,0,0,0C165.2,69.4,164.8,69,164.8,68.5"/>
						<path id="패스_999" class="st16" d="M156.3,66.8c0-0.5,0.4-0.9,0.9-0.9s0.9,0.4,0.9,0.9c0,0.5-0.4,0.9-0.9,0.9
							C156.7,67.7,156.3,67.3,156.3,66.8C156.3,66.8,156.3,66.8,156.3,66.8"/>
						<path id="패스_1000" class="st20" d="M282.5,76.3l11.5,5.3c0,0,7.6,6.8,3,18.5c0,0-34.4,54.1-53.5,53.9
							c0,0-4.7-1.1,0.5-20.1c0,0,14.2-37.4,20.5-47.9C264.5,86,271.2,74.3,282.5,76.3"/>
						<path id="패스_1001" class="st21" d="M293.6,83.2l9.5-8.6c0,0,3.2-2.2,1.1-4.5l-2.1-2c0,0,6.5-8.7,5-12.1l-7.3-3.6
							c0,0-3.7,12.9-8.5,16.2c0,0,2.8-6.6,1.5-9c0,0-4.4-0.7-6.8,0.1c0,0-2.8,14.4-4,17.3C281.9,77.1,291,83.3,293.6,83.2"/>
						<path id="패스_1002" class="st22" d="M275.5,94.7c-0.1,0-0.2,0-0.2-0.1l-6-2.8c-0.3-0.1-0.4-0.5-0.3-0.7
							c0.1-0.3,0.5-0.4,0.7-0.3l6,2.8c0.3,0.1,0.4,0.5,0.3,0.7C275.9,94.6,275.7,94.7,275.5,94.7"/>
						<path id="패스_1003" class="st22" d="M260.7,124.6c-0.1,0-0.1,0-0.2,0l-7.8-2.9c-0.3-0.1-0.4-0.4-0.3-0.7
							c0.1-0.3,0.4-0.4,0.7-0.3l0,0l7.8,2.9c0.3,0.1,0.4,0.4,0.3,0.7C261.1,124.4,260.9,124.6,260.7,124.6"/>
						<path id="패스_1004" class="st22" d="M295.2,94.2c-0.1,0-0.1,0-0.2,0l-4.4-1.9c-0.3-0.1-0.4-0.4-0.3-0.7
							c0.1-0.3,0.4-0.4,0.7-0.3c0,0,0,0,0,0l4.4,1.9c0.3,0.1,0.4,0.4,0.3,0.7C295.6,94,295.4,94.2,295.2,94.2"/>
						<path id="패스_1005" class="st22" d="M277.2,113.1c-0.1,0-0.2,0-0.3-0.1l-4.8-2.7c-0.3-0.2-0.4-0.5-0.2-0.8
							c0.2-0.3,0.5-0.4,0.8-0.2l4.8,2.7c0.3,0.1,0.4,0.5,0.2,0.8C277.6,113,277.4,113.1,277.2,113.1"/>
						<path id="패스_1006" class="st22" d="M259.2,143.8c-0.1,0-0.2,0-0.3-0.1l-4.8-2.6c-0.3-0.2-0.4-0.5-0.2-0.8
							c0.2-0.3,0.5-0.3,0.7-0.2l4.8,2.7c0.3,0.1,0.4,0.5,0.2,0.8C259.6,143.7,259.4,143.8,259.2,143.8"/>
						<path id="패스_1007" class="st23" d="M292.5,77.2c-0.2,0-0.3-0.1-0.3-0.3c0-0.1,0-0.2,0.1-0.2c2.3-1.5,9.4-8.7,9.5-8.8
							c0.1-0.1,0.3-0.1,0.4,0c0.1,0.1,0.1,0.3,0,0.4l0,0c-0.3,0.3-7.3,7.3-9.6,8.8C292.6,77.2,292.6,77.2,292.5,77.2"/>
						<path id="패스_1008" class="st23" d="M286.9,76.4c-0.2,0-0.3-0.1-0.3-0.3c0-0.1,0-0.1,0-0.2c1.4-2.1,4.3-7.4,4.4-7.4
							c0.1-0.1,0.2-0.2,0.4-0.1s0.2,0.2,0.1,0.4c0,0.1-2.9,5.4-4.4,7.5C287.1,76.4,287,76.4,286.9,76.4"/>
						<path id="패스_1009" class="st24" d="M317,85.1l10.5,7c0,0,6.4,7.9,0,18.7c0,0-42.5,48-61.4,44.8c0,0-4.5-1.8,3.7-19.8
							c0,0,19.9-34.7,27.8-44C297.7,91.8,306.2,81.3,317,85.1"/>
						<path id="패스_1010" class="st21" d="M326.9,93.7l10.7-7c0,0,3.5-1.7,1.8-4.3l-1.8-2.3c0,0,7.8-7.6,6.8-11.1l-6.6-4.7
							c0,0-5.7,12.2-10.9,14.7c0,0,3.8-6.1,2.9-8.6c0,0-4.2-1.4-6.8-1c0,0-5.1,13.8-6.6,16.4C316.3,85.8,324.3,93.4,326.9,93.7"/>
						<path id="패스_1011" class="st25" d="M307.3,102.2c-0.1,0-0.2,0-0.3-0.1l-5.5-3.7c-0.3-0.2-0.3-0.5-0.1-0.8s0.5-0.3,0.8-0.1
							l5.5,3.7c0.3,0.2,0.3,0.5,0.2,0.8C307.6,102.1,307.4,102.2,307.3,102.2"/>
						<path id="패스_1012" class="st25" d="M287.9,129.3c-0.1,0-0.2,0-0.3-0.1l-7.2-4.1c-0.3-0.2-0.3-0.5-0.2-0.8
							c0.2-0.3,0.5-0.3,0.7-0.2l7.2,4.1c0.3,0.2,0.4,0.5,0.2,0.8C288.3,129.2,288.1,129.3,287.9,129.3"/>
						<path id="패스_1013" class="st25" d="M326.8,104.7c-0.1,0-0.2,0-0.3-0.1l-4.1-2.5c-0.3-0.2-0.3-0.5-0.2-0.8
							c0.2-0.3,0.5-0.3,0.8-0.2l4.1,2.5c0.3,0.2,0.3,0.5,0.2,0.8C327.1,104.6,327,104.7,326.8,104.7"/>
						<path id="패스_1014" class="st25" d="M306.1,120.6c-0.1,0-0.2,0-0.3-0.1l-4.3-3.4c-0.2-0.2-0.3-0.5-0.1-0.8
							c0.2-0.2,0.5-0.3,0.8-0.1l0,0l4.3,3.4c0.2,0.2,0.3,0.5,0.1,0.8C306.4,120.5,306.3,120.6,306.1,120.6"/>
						<path id="패스_1015" class="st25" d="M283.4,148.1c-0.1,0-0.2,0-0.3-0.1l-4.3-3.4c-0.2-0.2-0.3-0.5-0.1-0.8
							c0.2-0.2,0.5-0.3,0.8-0.1l4.3,3.4c0.2,0.2,0.3,0.5,0.1,0.8C283.8,148,283.6,148.1,283.4,148.1"/>
						<path id="패스_1016" class="st23" d="M326.8,87.6c-0.2,0-0.3-0.1-0.3-0.3c0-0.1,0.1-0.2,0.2-0.3c2.5-1.1,10.7-7.1,10.8-7.2
							c0.1-0.1,0.3-0.1,0.4,0c0.1,0.1,0.1,0.3,0,0.4c0,0,0,0,0,0c-0.3,0.2-8.4,6-10.9,7.2C326.9,87.6,326.8,87.6,326.8,87.6"/>
						<path id="패스_1017" class="st23" d="M321.4,85.9c-0.2,0-0.3-0.1-0.3-0.3c0-0.1,0-0.1,0.1-0.2c1.7-1.8,5.4-6.6,5.5-6.6
							c0.1-0.1,0.3-0.1,0.4,0c0.1,0.1,0.1,0.3,0,0.4l0,0c0,0-3.8,4.8-5.5,6.7C321.5,85.9,321.5,85.9,321.4,85.9"/>
						<path id="패스_1018" class="st26" d="M234.8,131c-1.1-2.9,1.1-6.2,0.1-9.7c-1.1-3.2-1.7-6.6-1.7-10c0.1-3.8,0.1-7.6,3.6-9.9
							c3.2-2.1,7.1-1.3,10.5-2.9c5.9-2.7,5.2-11.9,5-17.4c-0.3-8.6,12.5-16,19.6-9.4c6.5,6.1,3.5,18.2-3.2,22.7
							c-5.9,3.9-8.9,7-7.9,14.6c0.4,3,2.1,5.3,0,8c-2,2.5-5.5,3.2-8.2,4.2c-3,0.8-5.6,2.6-7.5,5c-1.6,2.2-2.1,5.9-4.5,7.2
							c-1.6,0.9-4.1,1.6-4.7-0.5L234.8,131z"/>
						<path id="패스_1019" class="st27" d="M231.1,129.6c-1.8-2.9-0.1-6.8-2-10.3c-1.9-3.2-3.3-6.7-4.1-10.3
							c-0.8-4.1-1.5-8.1,1.6-11.3c2.9-3,7.3-3,10.6-5.4c5.7-4.2,2.9-13.9,1.5-19.7c-2.2-9.1,9.9-19.8,18.8-14.3
							c8.3,5.1,7.7,18.7,1.5,24.9c-5.4,5.5-8,9.4-5.2,17.3c1.1,3.1,3.4,5.2,1.7,8.6c-1.6,3.1-5.1,4.6-7.9,6.2
							c-3.1,1.8-5.4,3.8-6.9,7c-1.2,2.7-0.9,6.8-3.2,8.7c-1.5,1.3-4.1,2.6-5.1,0.5L231.1,129.6z"/>
						<path id="패스_1020" class="st28" d="M232.8,128.6c0,0-1.1-11.1,3.9-20.3c0,0,8.4-15.1,8.8-27.1c0,0-0.7,18.3-7,28.1
							c-2.8,5.9-3.9,12.4-3.2,18.9C235.3,128.2,234.7,131.3,232.8,128.6"/>
						<path id="패스_1021" class="st29" d="M259.4,101.3c1,2.3,0.2,4.3-0.9,6.2c-0.2,0.3-0.3,0.6-0.5,0.8c-1,2.5-2.5,4.9-4.5,6.8
							c-0.2,0.3-0.5,0.5-0.7,0.8c-1.8,1.8-4,2.9-6.4,3.4c-0.3,0.1-0.7,0.2-1,0.3c-2.2,0.6-4.4,0.9-6.6,0.9c-0.3,0-0.6,0-0.9,0
							c-2.1-0.2-4.1-0.7-6.1-1.5c-0.3-0.1-0.6-0.2-0.9-0.3c-2.8-1-5-3-6.1-5.7c-0.2-0.3-0.4-0.5-0.6-0.8c-0.2-0.3-0.4-0.6-0.6-0.9
							c-2.1-2.4-2.7-5.7-2.8-8.7c0-0.4,0-0.8,0-1.2c0-2.4,0.4-4.7,1.3-6.9c0.1-0.4,0.3-0.7,0.4-1.1c0.6-1.7,1-3.6,2.3-5
							c0.2-0.2,0.4-0.4,0.6-0.6c2.4-2.3,4.8-4.4,8.3-4.5c0.3-0.1,0.7-0.2,1-0.3c3.2-0.9,6.7-1,9.9-0.2c0.3,0.1,0.6,0.2,0.9,0.2
							c2.9,0.4,5.3,2.1,7.6,4c0.3,0.2,0.5,0.5,0.8,0.7c1.7,1.8,3,4,3.6,6.4c0.1,0.3,0.2,0.6,0.3,1c0.5,1.6,1,3.3,1.4,4.9
							C259.2,100.5,259.3,100.9,259.4,101.3"/>
						<path id="패스_1022" class="st30" d="M238.9,81.9c1.6,1.6,0,2.1,0,2.1s-2.4-0.2-3.3-1.2c-1.3,1.3,2.3,2.3,2.3,2.3
							s-1.4,2.7-3.3,1.9c0.6,1.8,4.1,0,4.1,0l-0.8,3.3l2.6-2.6c0,0,1.6,3.7,2.6,2.6c-0.5-0.5-0.8-3.3-0.8-3.3s2.9,1.2,4.1,0
							c-1.5,0-2.8-0.8-3.7-1.9c0,0,0.1-0.8,1.9-1.9c-1.1-1.1-3.4,0.3-3.4,0.3S240.5,80.3,238.9,81.9"/>
						<path id="패스_1023" class="st31" d="M241.3,86c0,0.4-0.4,0.8-0.8,0.8s-0.8-0.4-0.8-0.8c0-0.4,0.4-0.8,0.8-0.8
							C240.9,85.2,241.3,85.6,241.3,86L241.3,86"/>
						<path id="패스_1024" class="st32" d="M227.1,93.3c0,0.3-0.3,0.6-0.6,0.6c-0.3,0-0.6-0.3-0.6-0.6c0-0.3,0.3-0.6,0.6-0.6
							S227.1,92.9,227.1,93.3L227.1,93.3"/>
						<path id="패스_1025" class="st32" d="M227.1,98.9c0,0.3-0.3,0.6-0.6,0.6c-0.3,0-0.6-0.3-0.6-0.6c0-0.3,0.3-0.6,0.6-0.6
							S227.1,98.6,227.1,98.9L227.1,98.9"/>
						<path id="패스_1026" class="st32" d="M233.5,102.8c0,0.3-0.3,0.6-0.6,0.6c-0.3,0-0.6-0.3-0.6-0.6s0.3-0.6,0.6-0.6
							c0,0,0,0,0,0C233.3,102.2,233.5,102.5,233.5,102.8"/>
						<path id="패스_1027" class="st32" d="M239,95.4c0,0.3-0.3,0.6-0.6,0.6c-0.3,0-0.6-0.3-0.6-0.6s0.3-0.6,0.6-0.6
							S239,95.1,239,95.4L239,95.4"/>
						<path id="패스_1028" class="st32" d="M246.8,100.7c0,0.3-0.3,0.6-0.6,0.6c-0.3,0-0.6-0.3-0.6-0.6c0-0.3,0.3-0.6,0.6-0.6
							S246.8,100.4,246.8,100.7L246.8,100.7"/>
						<path id="패스_1029" class="st32" d="M242.5,111.2c0,0.3-0.3,0.6-0.6,0.6s-0.6-0.3-0.6-0.6s0.3-0.6,0.6-0.6c0,0,0,0,0,0
							C242.2,110.6,242.5,110.9,242.5,111.2"/>
						<path id="패스_1030" class="st32" d="M234.1,114.9c0,0.3-0.3,0.6-0.6,0.6c-0.3,0-0.6-0.3-0.6-0.6s0.3-0.6,0.6-0.6
							S234.1,114.6,234.1,114.9L234.1,114.9"/>
						<path id="패스_1031" class="st32" d="M228.1,108.9c0,0.3-0.3,0.6-0.6,0.6c-0.3,0-0.6-0.3-0.6-0.6s0.3-0.6,0.6-0.6
							S228.1,108.5,228.1,108.9L228.1,108.9"/>
						<path id="패스_1032" class="st32" d="M239,108.9c0,0.3-0.3,0.6-0.6,0.6c-0.3,0-0.6-0.3-0.6-0.6s0.3-0.6,0.6-0.6
							S239,108.5,239,108.9L239,108.9"/>
						<path id="패스_1033" class="st32" d="M251.9,92.7c0,0.3-0.3,0.6-0.6,0.6c-0.3,0-0.6-0.3-0.6-0.6s0.3-0.6,0.6-0.6
							S251.9,92.4,251.9,92.7L251.9,92.7"/>
						<path id="패스_1034" class="st32" d="M257.3,103.8c0,0.3-0.3,0.6-0.6,0.6s-0.6-0.3-0.6-0.6c0-0.3,0.3-0.6,0.6-0.6l0,0
							C257.1,103.2,257.3,103.5,257.3,103.8"/>
						<path id="패스_1035" class="st32" d="M249.5,114.5c0,0.3-0.3,0.6-0.6,0.6c-0.3,0-0.6-0.3-0.6-0.6c0-0.3,0.3-0.6,0.6-0.6
							S249.5,114.2,249.5,114.5L249.5,114.5"/>
						<path id="패스_1036" class="st32" d="M249.5,106.3c0,0.3-0.3,0.6-0.6,0.6c-0.3,0-0.6-0.3-0.6-0.6c0-0.3,0.3-0.6,0.6-0.6
							S249.5,106,249.5,106.3L249.5,106.3"/>
						<path id="패스_1037" class="st32" d="M232.6,89.4c0,0.3-0.3,0.6-0.6,0.6c-0.3,0-0.6-0.3-0.6-0.6s0.3-0.6,0.6-0.6
							S232.6,89,232.6,89.4L232.6,89.4"/>
						<path id="패스_1038" class="st32" d="M242.1,117.1c0,0.3-0.3,0.6-0.6,0.6c-0.3,0-0.6-0.3-0.6-0.6c0-0.3,0.3-0.6,0.6-0.6
							S242.1,116.7,242.1,117.1L242.1,117.1"/>
						<path id="패스_1039" class="st32" d="M248.4,96c0,0.3-0.3,0.6-0.6,0.6c-0.3,0-0.6-0.3-0.6-0.6s0.3-0.6,0.6-0.6
							S248.4,95.7,248.4,96L248.4,96"/>
						<path id="패스_1040" class="st32" d="M249.5,88c0,0.3-0.3,0.6-0.6,0.6c-0.3,0-0.6-0.3-0.6-0.6s0.3-0.6,0.6-0.6
							S249.5,87.7,249.5,88L249.5,88"/>
						<rect id="사각형_301" x="216.2" y="103.1" class="st33" width="23.2" height="56.8"/>
						<rect id="사각형_302" x="314.8" y="103.1" class="st33" width="23.2" height="56.8"/>
						<rect id="사각형_303" x="244" y="103.1" class="st33" width="23.2" height="56.8"/>
						<rect id="사각형_304" x="216.2" y="103.1" class="st34" width="122.3" height="23.9"/>
						<rect id="사각형_305" x="216.2" y="136.6" class="st34" width="122.3" height="23.9"/>
						<path id="패스_1041" class="st33" d="M223.4,109.3c0,1-0.8,1.8-1.8,1.8c-1,0-1.8-0.8-1.8-1.8c0-1,0.8-1.8,1.8-1.8
							C222.6,107.5,223.4,108.3,223.4,109.3"/>
						<path id="패스_1042" class="st33" d="M279.5,109.3c0,1-0.8,1.8-1.8,1.8c-1,0-1.8-0.8-1.8-1.8c0-1,0.8-1.8,1.8-1.8
							C278.7,107.5,279.5,108.3,279.5,109.3L279.5,109.3"/>
						<path id="패스_1043" class="st33" d="M335.6,109.3c0,1-0.8,1.8-1.8,1.8c-1,0-1.8-0.8-1.8-1.8c0-1,0.8-1.8,1.8-1.8
							C334.8,107.5,335.6,108.3,335.6,109.3"/>
						<path id="패스_1044" class="st33" d="M223.4,154.7c0,1-0.8,1.8-1.8,1.8c-1,0-1.8-0.8-1.8-1.8c0-1,0.8-1.8,1.8-1.8
							C222.6,152.9,223.4,153.7,223.4,154.7"/>
						<path id="패스_1045" class="st33" d="M279.5,154.7c0,1-0.8,1.8-1.8,1.8c-1,0-1.8-0.8-1.8-1.8c0-1,0.8-1.8,1.8-1.8
							C278.7,152.9,279.5,153.7,279.5,154.7"/>
						<path id="패스_1046" class="st33" d="M335.6,154.7c0,1-0.8,1.8-1.8,1.8c-1,0-1.8-0.8-1.8-1.8c0-1,0.8-1.8,1.8-1.8
							C334.8,152.9,335.6,153.7,335.6,154.7"/>
						<path id="패스_1047" class="st35" d="M238.7,128.7c-0.4,0.4-0.6,1-0.6,1.5c0,0.6,0.2,1.3,0.6,1.8c0.1,0.1,0.2,0.2,0.4,0.3
							c-0.1,0.1-0.2,0.2-0.3,0.2c-1.1,0.8-2.5,0.9-3.7,0.2l-0.8,1.3c1.7,0.9,3.7,0.9,5.3-0.2c0.3-0.2,0.6-0.5,0.8-0.8
							c0.5,0.2,1,0.2,1.5,0.2c2.1-0.1,4.1-1.1,5.5-2.7l-1.2-0.8c-1.1,1.2-2.7,2-4.3,2.1c-0.1,0-0.2,0-0.3,0c0.4-0.6,0.6-1.3,0.7-2
							c0-0.3,0-0.5,0-0.8l0-0.4l-0.3-0.2C240.8,127.6,239.5,127.8,238.7,128.7 M239.8,131c-0.2-0.2-0.2-0.5-0.2-0.7
							c0-0.2,0.1-0.5,0.3-0.7c0.2-0.2,0.5-0.3,0.8-0.2c0,0,0,0.1,0,0.1c-0.1,0.6-0.3,1.2-0.6,1.6C240,131.1,239.9,131.1,239.8,131"
							/>
						<path id="패스_1048" class="st36" d="M197.7,117.8c-7.9-0.5-18.3-3.3-25.9,0.3c-5.6,2.6-8.4,7.6-13.2,11.3
							c-1.6,1.2-1.5,4.2-1.2,6.4c0.3,2.4,1.9,2.8,3.9,3.5c4,1.3,7.2,1.9,10.1,5c1.3,1.6,2.4,3.3,3.5,5c2.1,2.8,6,5,9.4,6
							c11.6,3.4,24,3.3,35.5-0.4c3.7-1.2,7.7-2.2,10.8-4.7c3.9-3.2,5.1-8.4,5.6-13.1c1-9.3-2.1-17.4-11.8-19.7
							c-5.5-1.2-11.1-1.4-16.7-0.6c-3.5,0.5-7.6,0.2-10.8,1.1"/>
						<path id="패스_1049" class="st35" d="M182,117.5c-0.6-2.3-4.6-3-6.6-3.5c-0.5,1.9-0.7,3.9-1.2,5.7c2,0.3,6.4,0.1,7.4-2"/>
						<path id="패스_1050" class="st36" d="M175.6,149.5c-0.3,4.3-1,8.9-1.1,13.2c3,0.3,4.7,1.2,5.8-1.9c1.1-3.4,2.1-6.8,2.8-10.3
							"/>
						<path id="패스_1051" class="st36" d="M217.3,154.8c-1.3,3.7,0.2,7.9,0,11.8c1.1,0.1,2.3,0.2,3.4,0.2
							c1.8-4.9,3.9-10.2,4.5-15.5"/>
						<path id="패스_1052" class="st35" d="M220.8,166.8l-3.5-0.2l-0.9,3.9l2-1.2l2.3,1.1L220.8,166.8z"/>
						<path id="패스_1053" class="st35" d="M179.6,162.5l-4.9-0.3l-1.2,3.9l2.8-1.2l3.3,1.1L179.6,162.5z"/>
						<path id="패스_1054" class="st35" d="M162,134c-0.4,2.4-2.7,3.9-5.1,3.5c-2.4-0.4-3.9-2.7-3.5-5.1c0.4-2.2,2.4-3.7,4.6-3.6
							C160.5,129.2,162.3,131.5,162,134"/>
						<path id="패스_1055" class="st16" d="M167.6,126.6c0-0.6,0.6-1,1.1-1c0.6,0,1,0.6,1,1.1c0,0.6-0.6,1-1.1,1c0,0,0,0,0,0
							C168,127.7,167.6,127.2,167.6,126.6C167.6,126.6,167.6,126.6,167.6,126.6"/>
						<path id="패스_1056" class="st16" d="M158.3,133.8c0-0.6,0.5-1,1.1-1c0.6,0,1,0.5,1,1.1c0,0.6-0.5,1-1.1,1
							C158.7,134.9,158.2,134.4,158.3,133.8C158.3,133.8,158.3,133.8,158.3,133.8"/>
						<path id="패스_1057" class="st16" d="M154.4,133.6c0-0.6,0.6-1,1.1-1c0.6,0,1,0.6,1,1.1c0,0.6-0.6,1-1.1,1
							C154.8,134.7,154.4,134.2,154.4,133.6"/>
						<path id="패스_1058" class="st37" d="M236.6,172.1c0,3.1-1.8,5.6-4,5.6h-13.8c-2.2,0-4-2.5-4-5.6s1.8-5.6,4-5.6h13.8
							C234.8,166.5,236.6,169,236.6,172.1"/>
						<path id="패스_1059" class="st37" d="M330.6,163.7c0,2.3-0.9,4.2-2,4.2H213.2c-1.1,0-2-1.9-2-4.2s0.9-4.2,2-4.2h115.4
							C329.7,159.5,330.6,161.4,330.6,163.7"/>
						<path id="패스_1060" class="st37" d="M320.3,180.3c0,2.3-0.9,4.2-2,4.2h-86.4c-1.1,0-2-1.9-2-4.2s0.9-4.2,2-4.2h86.4
							C319.4,176.1,320.3,178,320.3,180.3"/>
						<path id="패스_1061" class="st37" d="M308.9,172c0-2.3,0.9-4.2,2-4.2h-77.5c1.1,0,2,1.9,2,4.2s-0.9,4.2-2,4.2h77.5
							C309.8,176.2,308.9,174.3,308.9,172"/>
						<path id="패스_1062" class="st38" d="M306.4,139.9c-1.3-1.9-2.3-4-3.1-6.2c-0.2-0.6-0.3-1.3,0.2-1.6c0.4-0.2,1,0,1.4,0.3
							c0.9,0.7,1.7,1.5,2.4,2.5c-0.6-1.9-0.6-4-0.2-6c0.1-0.4,0.3-1,0.7-1.1c0.3,0,0.6,0.1,0.8,0.4c0.2,0.3,0.3,0.6,0.4,0.9l1,3.2
							c-0.2-1.7,0-3.3,0.8-4.8c0.3-0.5,0.9-1,1.5-0.8c0.4,0.3,0.6,0.7,0.6,1.1c0.2,1.3,0.3,2.5,0.2,3.8c0.2-1.1,0.6-2.3,1.2-3.3
							c0.3-0.5,0.7-1,1.3-0.9c0.4,0.1,0.6,0.6,0.7,1.1c0.2,1.2,0.1,2.4-0.3,3.6c0.4-0.5,0.9-1,1.5-1.2c0.6-0.3,1.4-0.2,1.9,0.3
							c0.3,0.5,0.3,1.1,0.2,1.7c-0.6,2.9-2,5.5-4,7.7c-2.8,0-5.4,0-8.2-0.1C307.1,140.6,306.3,140,306.4,139.9"/>
						<path id="패스_1063" class="st39" d="M296,172.7c0-5.7,0.1-11.6-1.8-17s-5.8-10.5-11.3-12c-6.2,0-12.8,0.5-19,0.5
							c-2.9,0-3.7,4.3-4.3,7.1c-1.7,7.2-2.2,14.6-1.5,22C270.6,176.4,283.6,176.2,296,172.7"/>
						<path id="패스_1064" class="st39" d="M252.6,130.3c2.6,9.3,11,15.9,20.7,16.3c9.7,0,18.3-6.2,21.5-15.3
							c2.8-9.3-0.5-19.3-8.2-25.2c-6.5-4.8-18.8-6.7-25.3-0.8S250.4,121.7,252.6,130.3"/>
						<path id="패스_1065" class="st38" d="M287.7,125.7c0,7.6-6.2,13.8-13.8,13.8c-7.6,0-13.8-6.2-13.8-13.8
							c0-7.6,6.2-13.8,13.8-13.8l0,0C281.5,111.9,287.7,118.1,287.7,125.7"/>
						<path id="패스_1066" class="st6" d="M273.7,106.1c-5.9,0-11.6,1.8-15,7.2c-1.5,2.3-2.2,5.8,0.6,7.4c2.6,1.4,6.4,0.7,9.1-0.3
							c2.7-1,4.8-2.9,7.8-2.1c3,0.8,5.7,3.1,9,2c2.7-0.9,4-4.2,3.3-7c-1.6-5.6-8.3-7-13.3-7.2C274.7,106.1,274.2,106,273.7,106.1"/>
						<path id="패스_1067" class="st40" d="M262.9,123.1c-1.5,0-3.1-0.3-4.4-1c-1.3-0.7-2.3-1.9-2.7-3.4c-0.4-2.3,0.1-4.6,1.4-6.4
							c3.4-5.2,8.9-7.9,16.4-7.9c0.5,0,1,0,1.5,0c8.3,0.3,13.5,3.2,14.9,8.4c1,3.8-1,7.9-4.4,9c-2.8,0.9-5.3-0.1-7.4-1.1
							c-0.8-0.4-1.7-0.7-2.6-1c-1.5-0.4-2.6,0.1-4.5,1c-0.8,0.4-1.5,0.8-2.3,1.1C267,122.6,265,123,262.9,123.1 M273.7,107.8
							c-6.3,0.1-10.9,2.2-13.6,6.4c-0.8,1.1-1.1,2.4-1,3.8c0.1,0.5,0.5,1,1,1.2c2,1.1,5.3,0.5,7.7-0.4c0.7-0.3,1.4-0.6,2-0.9
							c1.9-0.9,4-2,6.8-1.3c1.1,0.3,2.1,0.7,3.1,1.1c1.8,0.8,3.4,1.5,5,0.9c1.9-0.6,2.7-3.1,2.2-4.9c-1.3-4.6-7.1-5.8-11.7-5.9
							C274.6,107.8,274.1,107.8,273.7,107.8"/>
					</g>
				</g>
			</g>
			<g id="그룹_621">
				<g>
					<defs>
						<path id="SVGID_00000152974646876394861440000013864492612363905693_" d="M260.1,125.7c0,7.6,6.2,13.8,13.8,13.8
							c7.6,0,13.8-6.2,13.8-13.8c0-7.6-6.2-13.8-13.8-13.8C266.3,111.9,260.1,118.1,260.1,125.7"/>
					</defs>
					<clipPath id="SVGID_00000125589586462451935350000005199523110092435901_">
						<use xlink:href="#SVGID_00000152974646876394861440000013864492612363905693_"  style="overflow:visible;"/>
					</clipPath>
					<g id="그룹_620" style="clip-path:url(#SVGID_00000125589586462451935350000005199523110092435901_);">
						<path id="패스_1068" class="st42" d="M269.5,132.4c0,2.8-2.3,5.1-5.1,5.1s-5.1-2.3-5.1-5.1s2.3-5.1,5.1-5.1
							C267.2,127.3,269.5,129.6,269.5,132.4L269.5,132.4"/>
						<path id="패스_1069" class="st42" d="M288.6,132.4c0,2.8-2.3,5.1-5.1,5.1s-5.1-2.3-5.1-5.1s2.3-5.1,5.1-5.1
							C286.4,127.3,288.6,129.6,288.6,132.4L288.6,132.4"/>
					</g>
				</g>
			</g>
			<g id="그룹_623">
				<g>
					<defs>
						<rect id="SVGID_00000148643948000631124820000017744577378343731333_" x="0" y="0.5" width="604.6" height="280"/>
					</defs>
					<clipPath id="SVGID_00000116199324596878875310000000619070336468873132_">
						<use xlink:href="#SVGID_00000148643948000631124820000017744577378343731333_"  style="overflow:visible;"/>
					</clipPath>
					<g id="그룹_622" style="clip-path:url(#SVGID_00000116199324596878875310000000619070336468873132_);">
						<path id="패스_1071" class="st39" d="M268.9,127.1c-0.3,1.1-1.3,1.8-2.4,1.5c-1.1-0.3-1.8-1.3-1.5-2.4c0.2-0.9,1-1.6,2-1.6
							C268.2,124.7,269.1,125.8,268.9,127.1"/>
						<path id="패스_1072" class="st39" d="M283,127.1c-0.3,1.1-1.3,1.8-2.4,1.5c-1.1-0.3-1.8-1.3-1.5-2.4c0.2-0.9,1-1.6,2-1.6
							C282.2,124.7,283.1,125.8,283,127.1"/>
						<path id="패스_1073" class="st44" d="M274.4,134.9c-0.1,0-0.1,0-0.2,0c-2.3-0.1-4.2-1.8-4.8-4c-0.1-0.5,0.2-0.9,0.6-1
							s0.9,0.2,1,0.6c0.4,1.8,2.2,3,4.1,2.6c1.2-0.3,2.1-1.1,2.5-2.3c0.2-0.4,0.6-0.7,1.1-0.5c0.4,0.1,0.7,0.6,0.5,1
							C278.6,133.4,276.6,134.9,274.4,134.9"/>
						<path id="패스_1074" class="st45" d="M268.1,165.1c0,6.8-6,12.4-13.5,12.4s-13.5-5.6-13.5-12.4s6-12.4,13.5-12.4
							S268.1,158.2,268.1,165.1"/>
						<path id="패스_1075" class="st6" d="M254.5,159.1c-2.7,0-5.3-1.1-7.2-3c-0.4-0.4-0.4-1.1,0.1-1.5c0.4-0.4,1-0.4,1.4,0
							c1.5,1.5,3.6,2.3,5.7,2.4h0.1c2.2,0,4.2-0.9,5.7-2.5c0.4-0.4,1.1-0.4,1.5,0c0.4,0.4,0.4,1,0.1,1.4l-0.5,0.7
							c-0.2,0.2-0.4,0.3-0.6,0.4c-1.8,1.4-3.9,2.1-6.2,2.2L254.5,159.1"/>
						<path id="패스_1076" class="st6" d="M246.2,177.1c-0.6,0-1-0.4-1.1-1c-0.3-6.6,1.5-13.1,5.2-18.6c0.3-0.5,1-0.6,1.5-0.3
							s0.6,1,0.3,1.5l0,0c-3.4,5.1-5.1,11.2-4.9,17.4C247.3,176.6,246.9,177.1,246.2,177.1C246.3,177.1,246.3,177.1,246.2,177.1
							L246.2,177.1"/>
						<path id="패스_1077" class="st6" d="M265.9,172.6c-0.5,0-0.9-0.3-1-0.8c-1.2-5.1-3.8-9.8-7.5-13.4c-0.4-0.4-0.4-1.1,0-1.5
							s1.1-0.4,1.5,0c0,0,0,0,0,0c4,4,6.8,9,8.1,14.5c0.1,0.6-0.2,1.1-0.8,1.3c0,0,0,0,0,0C266,172.6,265.9,172.6,265.9,172.6"/>
						<path id="패스_1078" class="st6" d="M254.7,171.2c-0.2,0-0.4,0-0.6,0c-5.2-0.2-10.1-2.2-14-5.6c-0.4-0.4-0.5-1.1-0.1-1.5
							c0.4-0.4,1.1-0.5,1.5-0.1c0,0,0,0,0,0c7.2,6.5,18,6.8,25.5,0.8c0.5-0.4,1.1-0.3,1.5,0.2c0.4,0.5,0.3,1.1-0.2,1.5l0,0
							C264.5,169.5,259.7,171.2,254.7,171.2"/>
						<path id="패스_1079" class="st39" d="M263.6,140.7c-5.5,0.2-12.4,2.9-16,7.2c-1.4,1.7-2.5,3.9-2,6c0.5,1.4,1.4,2.5,2.8,3.2
							c1.3,0.6,2.7,1.1,4.1,1.3c4.2,0.8,8.5,1.1,12.8,1c0.5-1.5,0.9-2.7,1.5-4.2C268.4,150.7,265.2,145.1,263.6,140.7"/>
						<path id="패스_1080" class="st38" d="M273.8,160.9c-0.7-1.8-1.8-3.5-3.2-4.8c-1.6-1.2-3.5-1.8-5.5-1.6
							c-0.2,1.7-0.7,3.4-0.9,5.1c2,0.6,3.3,2.7,3.8,4.7c0.1,0.4,0.2,0.9,0.3,1.3c0.2,0.4,0.5,0.7,0.9,0.8c0.5,0,1-0.3,1.2-0.8
							c0.2-0.5,0.2-1,0.2-1.5c-0.1,0.4,0.1,0.9,0.4,1.2c0.3,0.5,1,0.7,1.5,0.5c0.5-0.2,0.7-0.7,0.5-1.2c0-0.1-0.1-0.1-0.1-0.2
							c0,0.4,1,0.5,1.3,0.2c0.2-0.3,0.3-0.7,0.3-1.1C274.4,162.7,274.1,161.8,273.8,160.9"/>
						<path id="패스_1081" class="st39" d="M293.6,160.9c2.4,1.3,5,2.3,7.7,2.8c2.9,0.6,6.2,0.6,8.5-1.2c1.8-1.4,2.7-3.6,3.4-5.7
							c1.8-5.5,2.7-11.2,2.7-16.9c-3-0.5-6-0.7-9-0.6c-0.6,3.7-0.6,5.3-1.5,9c-0.3,1.4-1,3.4-4.1,3c-1.3-0.2-6.7-6-9.4-8.1
							s-4.8-3.1-7.9-1.8c-0.2,3.7,0,7.3,0.6,10.9L293.6,160.9z"/>
					</g>
				</g>
			</g>
		</g>
	</g>
</g>
</svg>
