<?xml version="1.0" encoding="utf-8"?>
<!-- Generator: Adobe Illustrator 26.3.1, SVG Export Plug-In . SVG Version: 6.00 Build 0)  -->
<svg version="1.1" id="레이어_1" xmlns="http://www.w3.org/2000/svg" xmlns:xlink="http://www.w3.org/1999/xlink" x="0px"
	 y="0px" viewBox="0 0 280 280" style="enable-background:new 0 0 280 280;" xml:space="preserve">
<style type="text/css">
	.st0{clip-path:url(#SVGID_00000106852442992276479470000015960051532446847140_);}
	.st1{fill:#91BC00;}
	.st2{clip-path:url(#SVGID_00000003087831045012888350000001102595082037477803_);}
	.st3{fill:#ABC638;}
	.st4{clip-path:url(#SVGID_00000016777277194312692180000013101371977197871006_);}
	.st5{fill:#10A4C6;}
	.st6{fill:#50DEFF;}
	.st7{fill:#D5ECEF;}
	.st8{fill:#FFFFFF;}
	.st9{fill:#B9F47A;}
	.st10{fill:#5B322D;}
	.st11{opacity:0.1;}
	.st12{clip-path:url(#SVGID_00000031192770009797230710000006646475236554566280_);}
	.st13{fill:#A0E84D;}
	.st14{fill:#59D643;}
	.st15{fill:#70ED51;}
	.st16{fill:#14A300;}
	.st17{clip-path:url(#SVGID_00000051351198876708515060000000098506541934327434_);}
	.st18{clip-path:url(#SVGID_00000098198223849962575160000003226637459616680888_);}
	.st19{fill:#3A4B00;}
	.st20{fill:#D8D8D8;}
	.st21{fill:#0065A3;}
	.st22{fill:#0071C6;}
	.st23{clip-path:url(#SVGID_00000094581211682878173970000017614729256093444501_);}
	.st24{fill:url(#사각형_232_00000025438453971973184570000007588610151025157517_);}
	.st25{clip-path:url(#SVGID_00000145049574241586077460000005897683895313423282_);}
	.st26{fill:#57B9EA;}
	.st27{fill:#1DC100;}
	.st28{clip-path:url(#SVGID_00000066511990006021392020000008508288607752077201_);}
	.st29{clip-path:url(#SVGID_00000053515976203772282320000009500744756151478946_);}
	.st30{fill:url(#사각형_239_00000055687351982456912370000008590298798368680867_);}
	.st31{clip-path:url(#SVGID_00000101781571622864982240000001919378889322265503_);}
</style>
<g id="그룹_535" transform="translate(-18)">
	<g>
		<defs>
			<rect id="SVGID_1_" x="18" width="280" height="280"/>
		</defs>
		<clipPath id="SVGID_00000119112450366444443470000008555442778329656743_">
			<use xlink:href="#SVGID_1_"  style="overflow:visible;"/>
		</clipPath>
		<g id="그룹_534" style="clip-path:url(#SVGID_00000119112450366444443470000008555442778329656743_);">
			<rect id="사각형_218" x="18.4" class="st1" width="280" height="280"/>
			<g id="그룹_511">
				<g>
					<defs>
						<rect id="SVGID_00000005228155111137195720000017871768520070512515_" x="18.4" width="280" height="280"/>
					</defs>
					<clipPath id="SVGID_00000150094895569161040770000003319375410098023319_">
						<use xlink:href="#SVGID_00000005228155111137195720000017871768520070512515_"  style="overflow:visible;"/>
					</clipPath>
					<g id="그룹_510" style="clip-path:url(#SVGID_00000150094895569161040770000003319375410098023319_);">
						<path id="패스_720" class="st1" d="M320,182c0-29.8-71.6-54-160-54S0,152.2,0,182v187h320V182z"/>
						<path id="패스_721" class="st3" d="M236.3,125.4c0,0-3.6-2.1-4.9-4.9c-1.8-4-2.1-8.5-0.8-12.7c1.4-4.7,3.3-9.3,5.6-13.7
							c1.3-2.7,2.6-2.1,4.3,1.8s4.2,17.2,3.3,20.6S240,127.4,236.3,125.4"/>
						<path id="패스_722" class="st3" d="M236.8,132.1c0,0,0.8-8.7-0.4-10.2s-3.8-8.7-3.8-8.7l3.1,4.8l1.1,1.9l0.2-5l-2-4.5l2.4,3
							l0.9-3.6l-0.2,5.9l2.7-2.4l-2.5,4.3c0,0,0.1,2.9,0.1,4.4s-0.1,10.6-0.1,10.6L236.8,132.1z"/>
						<path id="패스_723" class="st3" d="M258.4,131.5c0,0-3.6-2.1-4.9-4.9c-1.8-4-2.1-8.5-0.8-12.7c1.4-4.7,3.3-9.3,5.6-13.7
							c1.3-2.7,2.6-2.1,4.3,1.8s4.2,17.2,3.3,20.6S262.1,133.5,258.4,131.5"/>
						<path id="패스_724" class="st3" d="M258.8,138.2c0,0,0.8-8.7-0.4-10.2s-3.8-8.7-3.8-8.7l3.1,4.8l1.1,1.9l0.2-5l-2-4.5l2.4,3
							l0.9-3.6l-0.2,5.9l2.7-2.4l-2.5,4.3c0,0,0.1,2.9,0.1,4.4c0.1,1.5-0.1,10.6-0.1,10.6L258.8,138.2z"/>
					</g>
				</g>
			</g>
			<g id="그룹_522">
				<g>
					<defs>
						<rect id="SVGID_00000090277616537714406240000009277310344882371518_" width="320" height="369"/>
					</defs>
					<clipPath id="SVGID_00000026150651880052111630000011690829084744016557_">
						<use xlink:href="#SVGID_00000090277616537714406240000009277310344882371518_"  style="overflow:visible;"/>
					</clipPath>
					<g id="그룹_521" style="clip-path:url(#SVGID_00000026150651880052111630000011690829084744016557_);">
						<path id="패스_725" class="st5" d="M253.3,180c0.7-4.8,1-9.6,1-14.4h-84.2C213.2,166.7,247.1,172.5,253.3,180"/>
						<path id="패스_726" class="st5" d="M139.1,165.5H54.9c0,4.8,0.4,9.7,1,14.4C62.2,172.5,96.1,166.7,139.1,165.5"/>
						<path id="패스_727" class="st5" d="M170.2,165.5h-31.2c-43,1.2-76.9,7-83.1,14.4c0.3,2,0.6,4,1.1,6
							c9.4,7.8,49.6,13.6,97.6,13.6s88.2-5.8,97.6-13.6c0.4-2,0.8-4,1.1-6C247.1,172.5,213.2,166.7,170.2,165.5"/>
						<path id="패스_728" class="st6" d="M254.4,165.5c0,9.5-44.7,17.1-99.7,17.1s-99.7-7.7-99.7-17.1s44.7-17.1,99.7-17.1
							S254.4,156.1,254.4,165.5"/>
						<path id="패스_729" class="st6" d="M154.6,165.3c-5.3,0-10.5,0.1-15.6,0.2h31.2C165.1,165.4,159.9,165.3,154.6,165.3"/>
						<path id="패스_730" class="st7" d="M160.1,95.8l1.2,65.8h-4.8l1.2-65.8H160.1z"/>
						<path id="패스_731" class="st7" d="M161.6,99.1c1.8,0,3.3-1.5,3.3-3.3s-1.5-3.3-3.3-3.3h-6.9v6.7H161.6z"/>
						<path id="패스_732" class="st8" d="M153.8,95.8V62.3c0-0.1,0-0.2,0.1-0.2s0.2,0,0.2,0.1c0.9,3.9,3.7,16.2,4,22.3
							c0,0.6-0.2,1.2-0.6,1.7c-0.8,0.8-2,2.1-2.1,3l-0.7,6.5L153.8,95.8z"/>
						<path id="패스_733" class="st8" d="M154.7,96l-29,16.7c-0.2,0.1-0.3-0.1-0.2-0.2c2.9-2.7,12.2-11.3,17.4-14.6
							c0.5-0.3,1.2-0.4,1.8-0.3c1,0.3,2.8,0.7,3.7,0.3l5.9-2.7L154.7,96z"/>
						<path id="패스_734" class="st8" d="M154,96l29,16.7c0.2,0.1,0.3-0.1,0.2-0.2c-2.9-2.7-12.2-11.3-17.4-14.6
							c-0.5-0.3-1.2-0.4-1.8-0.3c-1,0.3-2.8,0.7-3.7,0.3l-5.9-2.7L154,96z"/>
						<path id="패스_735" class="st8" d="M158,95.8c0,1.8-1.5,3.3-3.3,3.3s-3.3-1.5-3.3-3.3s1.5-3.3,3.3-3.3S158,93.9,158,95.8
							L158,95.8"/>
						<path id="패스_736" class="st7" d="M199.8,65.4l1.8,96.3h-7.1l1.8-96.3H199.8z"/>
						<path id="패스_737" class="st7" d="M202,70.2c2.7,0,4.9-2.1,4.9-4.8c0-2.7-2.1-4.9-4.8-4.9c0,0-0.1,0-0.1,0h-10.1v9.7H202z"
							/>
						<path id="패스_738" class="st8" d="M190.5,65.4V16.4c0-0.1,0.1-0.2,0.2-0.2c0.1,0,0.2,0.1,0.2,0.2l0,0
							c1.3,5.7,5.4,23.7,5.8,32.7c0.1,0.9-0.3,1.8-0.9,2.4c-1.1,1.1-2.9,3-3,4.5l-1,9.4H190.5z"/>
						<path id="패스_739" class="st8" d="M191.9,65.7l-42.4,24.5c-0.2,0.1-0.5-0.1-0.3-0.3c4.3-4,17.9-16.6,25.4-21.4
							c0.8-0.5,1.7-0.7,2.6-0.4c1.5,0.4,4.1,1,5.4,0.4l8.7-3.9L191.9,65.7z"/>
						<path id="패스_740" class="st8" d="M190.8,65.7l42.4,24.5c0.2,0.1,0.5-0.1,0.3-0.3c-4.3-4-17.9-16.6-25.4-21.4
							c-0.8-0.5-1.7-0.7-2.6-0.4c-1.5,0.4-4.1,1-5.4,0.4l-8.7-3.9L190.8,65.7z"/>
						<path id="패스_741" class="st8" d="M196.8,65.4c0,2.7-2.2,4.9-4.9,4.9c-2.7,0-4.9-2.2-4.9-4.9c0-2.7,2.2-4.9,4.9-4.9
							C194.6,60.5,196.8,62.7,196.8,65.4"/>
						<path id="패스_742" class="st9" d="M125.1,165.9h88.7c0,0-4.7-9.9-15.3-8.6s-13.1,5.1-16.8-0.1s-18.1-4.1-23.2,0
							c-3.8,2-8.3,2.2-12.3,0.4C139.3,154.7,125.1,165.9,125.1,165.9"/>
						<rect id="사각형_220" x="242.3" y="151.5" class="st10" width="0.9" height="13.6"/>
						<path id="패스_743" class="st9" d="M242.7,161c2.2-0.6,3.9-2.4,4.5-4.7c0.9-4.7-4.5-9.3-4.5-9.3s-5.4,4.6-4.5,9.3
							C238.8,158.6,240.5,160.4,242.7,161"/>
						<g id="그룹_514" class="st11">
							<g id="그룹_513">
								<g>
									<defs>
										<rect id="SVGID_00000098214845009547411660000012024968038763246503_" x="238.2" y="147" width="5.8" height="12.5"/>
									</defs>
									<clipPath id="SVGID_00000068649360447732047710000010438975903044674201_">
										<use xlink:href="#SVGID_00000098214845009547411660000012024968038763246503_"  style="overflow:visible;"/>
									</clipPath>
									<g id="그룹_512" style="clip-path:url(#SVGID_00000068649360447732047710000010438975903044674201_);">
										<path id="패스_744" class="st8" d="M240,159.4c-0.9-0.8-1.5-1.9-1.7-3.1c-0.9-4.7,4.5-9.3,4.5-9.3
											c0.5,0.4,0.9,0.8,1.3,1.3C244,148.2,240.5,151.8,240,159.4"/>
									</g>
								</g>
							</g>
						</g>
						<path id="패스_745" class="st13" d="M247,170.7h-25.9c1.2-2.3,3.6-3.8,6.2-3.8c4.4,0,9-5.4,14-2.9
							C244.1,165.2,246.2,167.7,247,170.7"/>
						<path id="패스_746" class="st14" d="M236.2,172.9h-43.1c0,0,0.7-4.9,9.9-4.9s9.3-5,16-4.7S235.7,168,236.2,172.9"/>
						<path id="패스_747" class="st15" d="M133.6,168.3H93.7c0,0,1.4-7.4,9.9-7.4s9-2.7,15.2-2.4S133.2,163.4,133.6,168.3"/>
						<path id="패스_748" class="st15" d="M179.1,172.1h-46.4c0,0,2.4-4.8,11.6-4.8s3.7-4,10.4-4c8.8,0,8.9,5.1,13.8,4.9
							C171.9,168.1,179.1,168.7,179.1,172.1"/>
						<rect id="사각형_222" x="167.3" y="157.5" class="st10" width="0.9" height="17.2"/>
						<path id="패스_749" class="st16" d="M172.7,169.6c0,0,4.5-1.6,3.5-8.2c-0.6-3.2-2.8-4.2-2.9-5.2s1.2-3.2-0.6-5
							s-1.5-2.1-1.5-2.6s-0.6-3.6-2.8-3.8c-0.4,0-0.9,0-1.3,0c-2.2,0.3-2.8,3.3-2.8,3.8s0.2,0.8-1.5,2.6s-0.5,4-0.6,5
							s-2.3,2-2.9,5.2c-1.1,6.5,3.5,8.2,3.5,8.2C166,170.6,169.5,170.6,172.7,169.6"/>
						<g id="그룹_517" class="st11">
							<g id="그룹_516">
								<g>
									<defs>
										<rect id="SVGID_00000129198530982166452600000010987801741761094529_" x="159.2" y="144.8" width="8" height="24.8"/>
									</defs>
									<clipPath id="SVGID_00000049943633147307374760000016714077533527171980_">
										<use xlink:href="#SVGID_00000129198530982166452600000010987801741761094529_"  style="overflow:visible;"/>
									</clipPath>
									<g id="그룹_515" style="clip-path:url(#SVGID_00000049943633147307374760000016714077533527171980_);">
										<path id="패스_750" class="st8" d="M162.8,169.6c0,0-4.5-1.6-3.5-8.2c0.6-3.2,2.8-4.2,2.9-5.2s-1.2-3.2,0.6-5
											s1.5-2.1,1.5-2.6s0.6-3.6,2.8-3.8c0,0-1.3,2.9-1.1,4.7c0.3,1.4,0.1,2.9-0.6,4.3c-0.6,1.7-0.1,4.6-1.8,6.6
											S161.9,166.5,162.8,169.6"/>
									</g>
								</g>
							</g>
						</g>
						<rect id="사각형_224" x="184.1" y="156.1" class="st10" width="0.9" height="18.7"/>
						<path id="패스_751" class="st16" d="M189.1,158.5c1.2-2.5,0.1-5.5-2.4-6.6c-2.5-1.2-5.5-0.1-6.6,2.4c-0.6,1.3-0.6,2.9,0,4.3
							c0.1,0.3,0.1,0.6-0.1,0.9c-2.5,2.6-2.4,6.7,0.2,9.2c2.6,2.5,6.7,2.4,9.2-0.2c2.4-2.5,2.4-6.5,0-9
							C189,159.1,188.9,158.8,189.1,158.5"/>
						<g id="그룹_520" class="st11">
							<g id="그룹_519">
								<g>
									<defs>
										<rect id="SVGID_00000055677185783161320880000000906971882573028784_" x="178.1" y="151.3" width="9.3" height="17.9"/>
									</defs>
									<clipPath id="SVGID_00000151505679390391582420000006306274890982404002_">
										<use xlink:href="#SVGID_00000055677185783161320880000000906971882573028784_"  style="overflow:visible;"/>
									</clipPath>
									<g id="그룹_518" style="clip-path:url(#SVGID_00000151505679390391582420000006306274890982404002_);">
										<path id="패스_752" class="st8" d="M180.9,169.2c-3-2-3.8-6-1.8-9c0.2-0.3,0.4-0.6,0.7-0.9c0.2-0.2,0.3-0.6,0.2-0.9
											c-1.2-2.5-0.1-5.5,2.4-6.6c1.6-0.7,3.4-0.6,4.9,0.4c0,0-4.8,2.6-4.2,7.4c0,0.3-0.1,0.5-0.3,0.7
											C180.5,162.6,179.8,166.1,180.9,169.2"/>
									</g>
								</g>
							</g>
						</g>
						<rect id="사각형_226" x="91.7" y="76.3" class="st8" width="6.4" height="25.7"/>
						<rect id="사각형_227" x="132.1" y="76.3" class="st8" width="6.4" height="25.7"/>
						<path id="패스_753" class="st8" d="M118.4,97.8c0,1.8-1.5,3.3-3.3,3.3c-1.8,0-3.3-1.5-3.3-3.3v-8.5c0-1.8,1.5-3.3,3.3-3.3
							c1.8,0,3.3,1.5,3.3,3.3V97.8z M115.1,88.3c-0.8,0-1.4,0.6-1.4,1.4c0,0.8,0.6,1.4,1.4,1.4c0.8,0,1.4-0.6,1.4-1.4
							S115.9,88.3,115.1,88.3L115.1,88.3"/>
						<path id="패스_754" class="st8" d="M148,165.6H82.3l3-69.4H145L148,165.6z"/>
						<path id="패스_755" class="st19" d="M119.4,108.6C119.4,108.6,119.4,108.6,119.4,108.6c-0.2-0.1-0.3,0-0.5,0.2l-0.1,0.1
							c-0.5,0.2-0.8,1.4-0.9,1.8c0,0,0,0,0,0c-0.3-0.5-0.8-0.9-1.3-1c0.2,0.8,0.9,3.2,1.9,3c0.5-0.1,1.5-2.1,1.5-3.2v0
							C119.9,108.9,119.7,108.7,119.4,108.6"/>
						<path id="패스_756" class="st19" d="M125.8,121c-0.9,0-1.9,0.1-2.7,0.4c-0.2,0.1-0.3,0.2-0.4,0.3c0,0.2-0.1,0.6,0.1,0.7
							c0,0,0,0,0,0.1c0.1,0.1,0.1,0.1,0.2,0.2c0,0.1,0.1,0,0.1,0c0,0,0,0.1,0.1,0.1c0.1,0.1,0.2,0,0.3,0.1c0.1,0,0.1,0,0.2,0
							c0,0,0.1,0.1,0.1,0.1c0.2,0,0.4,0.1,0.6,0c0.7,0,0.5-0.1,1.2-0.1c0.6,0,1.1,0.1,1.6,0.1c0.3,0,0.6,0,0.9,0
							c0.5,0,1.1,0.1,1.6,0.1c0.3,0,0.6,0.1,0.8,0.1c0.3,0,0.6,0,0.9,0c0.1,0,0.2,0,0.3,0c0.1,0,0.2,0.1,0.3,0.1
							c0.3,0,0.5-0.1,0.7-0.2c0.1,0,0.3-0.1,0.4-0.2c0.1-0.1,0.1-0.1,0.2-0.2c0.1-0.2,0.1-0.4,0.1-0.6c0,0,0,0-0.1,0
							c0,0,0-0.1-0.1-0.1c-0.1,0-0.2-0.1-0.3-0.1c-0.1,0-0.3-0.1-0.4-0.1C130.3,121.2,128,121,125.8,121"/>
						<path id="패스_757" class="st19" d="M114.3,121.4c0.1,0,0.3,0,0.3,0.1c0.1,0.1-0.1,0.2-0.1,0.2c0,0.2,0.1,0.4,0.1,0.6
							c0,0,0,0.1,0,0.1c0,0.1-0.1,0.1-0.1,0.1c-0.2,0.1-0.4,0.1-0.6,0.1c-0.2,0.1-0.5,0.1-0.8,0.1c-0.5,0-0.9,0-1.4-0.1
							c-0.2,0-0.4,0-0.5,0.1c-0.2,0-0.4,0.1-0.6,0c-1.1,0-2.2-0.1-3.3-0.1c-0.2,0-0.4,0-0.6,0c-0.9,0.1-1.8,0-2.7,0.1
							c-0.3,0-0.6,0-0.9,0l-0.5,0c-0.7,0-1.3,0.1-2,0l-0.8,0c-0.7,0.1-1.5,0.1-2.2,0.1c-0.5,0-1.1-0.2-1.6-0.4
							c-0.3-0.2-0.6-0.4-0.8-0.7c0.1-0.2,0.3-0.3,0.5-0.3c0.5-0.1,1-0.2,1.5-0.3c0.4-0.1,0.8-0.1,1.2-0.1c4.5-0.4,9.1-0.4,13.6-0.1
							C112.8,121.2,113.6,121.3,114.3,121.4"/>
						<path id="패스_758" class="st19" d="M123.9,116.5L123.9,116.5c0,0.2,0.1,0.2,0.2,0.3h0.3c0-0.1,0.1,0,0.1-0.1
							c0.1,0,0.2,0,0.2-0.1h0.1c0-0.1,0.1-0.2,0.2-0.2l0.4-0.5c0-0.1,0-0.1,0.1-0.2c0.1-0.3,0.1-0.6,0.3-0.9c0-0.1,0-0.2,0-0.3
							c0,0,0.1,0,0.1,0c0-0.1,0.1-0.2,0.1-0.2c0.1,0,0.1,0,0.1-0.1v-0.1c0.1,0,0.3,0.1,0.4,0.2h0.2c0,0.1,0,0.1,0.1,0.1
							c0.2,0,0.4,0,0.6,0c0,0.1,0.1,0.1,0.2,0.2c0,0.1,0.1,0.2,0.1,0.3c0,0,0,0.1,0,0.1c0.1,0.1,0.1,0.2,0,0.3c0,0.1,0,0.3,0.1,0.4
							c-0.1,0.1,0,0.2,0,0.2c0.1,0.1,0.1,0.3,0.1,0.4c0.1,0.2,0.1,0.3,0.2,0.5v0.2c0.1,0,0,0.1,0.1,0.1c0,0.2,0,0.4-0.1,0.6
							c0,0-0.1,0.1-0.1,0.1v0c0,0-0.1,0-0.1,0c-0.1,0.1-0.2,0.2-0.2,0.2c-0.1,0-0.1,0-0.1,0c-0.1,0,0,0.1-0.1,0.1
							c-0.1,0-0.1,0-0.2,0.1c-0.1,0-0.3,0-0.4,0l0,0c0,0-0.1,0.1-0.1,0.1c0,0,0-0.1,0-0.1c-0.1,0.1-0.2,0.1-0.3,0.1
							c0-0.1,0-0.1-0.1-0.1c0-0.2,0-0.4-0.1-0.5c0,0,0,0,0-0.1c0-0.1-0.1-0.2-0.1-0.2c-0.1-0.1-0.1-0.3-0.2-0.4c0,0-0.1-0.1,0-0.1
							l-0.1-0.1c-0.1,0-0.1,0-0.1,0.1c0,0.1-0.2,0.2-0.2,0.4l0,0c0,0.1-0.1,0.1-0.1,0.2c-0.1,0-0.1,0.1-0.1,0.1v0.1
							c-0.2,0.2-0.3,0.4-0.5,0.5c-0.1,0.1-0.2,0.1-0.2,0.3c-0.1,0-0.2,0-0.3,0.1c-0.1,0-0.2-0.1-0.2,0c0,0,0,0-0.1,0l0,0
							c-0.1-0.1-0.2,0-0.3,0c-0.2-0.1-0.4-0.3-0.7-0.4c-0.1,0,0-0.1-0.1-0.1c0,0-0.1,0-0.1,0c0-0.1,0-0.2-0.1-0.2l0,0c0,0,0,0-0.1,0
							c0-0.2-0.1-0.4-0.2-0.5c0,0,0,0-0.1-0.1c0-0.1,0-0.2-0.1-0.3c0-0.1,0.1-0.2,0-0.4c0,0,0-0.1,0-0.1c0-0.1,0-0.3,0-0.4
							c0,0,0,0,0-0.1c0.1-0.1,0.1-0.2,0.1-0.4c0-0.1,0.1-0.2,0.1-0.3l0,0c0.1-0.1,0-0.2,0.1-0.2c0,0,0-0.1,0-0.1
							c0-0.1,0.1-0.1,0.1-0.1c0.1-0.1,0.1-0.2,0.2-0.3l0,0c0.1-0.1,0.2-0.1,0.3-0.1c0.1,0,0.2,0,0.3,0.1c0,0.1,0,0.1,0,0.2h0v0.1
							c0,0,0,0,0,0c0,0.1,0.1,0.2,0,0.3c0,0,0,0,0,0c0,0.1,0,0.1,0,0.2c0,0.1,0,0.2,0,0.2c0.1,0.2,0,0.3,0.1,0.5
							C123.8,116.3,123.9,116.4,123.9,116.5"/>
						<path id="패스_759" class="st19" d="M111.7,117.6c0.1,0,0.1,0.1,0.2,0.1c0,0.1,0.1,0.1,0.1,0.2c0,0,0.1,0,0.1,0.1l0,0.1
							l0.1,0.1c0.1,0,0.1,0,0.2,0.1c0,0,0.1,0,0.1,0l0,0c0,0.1,0.1,0.1,0.1,0.1c0.1,0,0.2,0,0.3,0.1c0,0,0,0.1,0,0
							c0.1,0,0.2,0.1,0.3,0c0,0,0.1,0,0.1,0l0,0c0.1,0,0.1,0.1,0.2,0c0,0,0,0,0,0.1h0.1c0.1,0.1,0.4,0,0.5,0c0.4,0,0.7,0,1.1,0
							c0-0.1,0.1,0,0.1-0.1l0,0c0.1,0,0.3-0.1,0.4-0.1l0.1-0.1c0.1,0,0.2,0.1,0.2,0c0,0,0,0,0.1,0c0,0,0,0,0-0.1
							c0.1-0.1,0.2,0,0.3-0.1c0,0,0.1,0,0.1,0l0.1-0.1c0.2,0,0.3-0.2,0.5-0.2c0,0,0.1,0,0.1-0.1c0,0,0.1,0,0.1,0
							c0,0,0.1-0.1,0.1-0.1c0.1,0,0.2-0.1,0.3-0.1c0,0,0-0.1,0-0.1l0,0c0.1,0,0.1,0,0.1-0.1c0.1,0,0.2-0.1,0.2-0.2l0.1,0l0.1-0.1
							l0.1,0c0.1-0.1,0.1-0.2,0.3-0.2c0,0,0-0.1,0-0.1c0.1,0,0.1-0.1,0.1-0.1s0.1-0.1,0.1-0.1c0,0.1,0.1-0.1,0.1-0.1
							c0,0,0.1-0.3,0.2-0.3l-0.3-0.8c-0.1,0.2-0.5,0.6-0.7,0.7c0,0.2-0.2,0.2-0.3,0.3c0,0,0,0.1,0,0.1c-0.1,0-0.1,0.1-0.2,0.2
							c0,0,0,0-0.1,0c0,0-0.1,0.1-0.1,0.1c-0.1,0-0.1,0.1-0.2,0.2l0,0c-0.1,0.1-0.3,0.1-0.4,0.2c-0.2,0.1-0.4,0.1-0.6,0.2
							c0,0-0.1,0-0.1,0c0,0.1-0.2,0-0.2,0.1c-0.2,0-0.4,0-0.6,0c0-0.1-0.1,0-0.1-0.1c-0.2,0.1-0.3,0-0.5,0c0,0-0.1,0-0.1-0.1
							c-0.1,0-0.3,0-0.4-0.1c-0.1,0-0.2-0.1-0.3-0.1v-0.1l-0.1-0.1c0-0.1,0.1-0.1,0.2-0.1c0.1-0.1,0.3-0.1,0.3-0.2
							c0,0,0.1-0.1,0.1-0.1c0-0.1,0.1-0.1,0.1-0.1c0.1-0.1,0-0.1,0.2-0.2c0,0,0.1-0.1,0.1-0.1c0.1-0.1,0.1-0.1,0.2-0.3
							c0.1-0.1,0.2-0.2,0.2-0.3c0,0,0-0.2,0.1-0.2c0-0.2-0.1-0.3-0.1-0.5l-0.1-0.1c0-0.1-0.1-0.2,0-0.2c-0.1-0.1-0.1-0.1-0.2-0.2
							l-0.1-0.1h-0.1c0-0.1-0.1-0.1-0.1-0.2c-0.1,0-0.3-0.1-0.4-0.2l0,0l0,0l-0.1,0.1c0-0.1-0.1,0-0.1-0.1c-0.1,0-0.1,0-0.2,0
							c-0.2-0.1-0.4,0-0.6,0c0,0.1-0.1,0-0.1,0.1c-0.1,0-0.2,0-0.2,0.1h-0.1c-0.1,0.1-0.2,0.2-0.4,0.2c-0.1,0,0,0.1-0.1,0.1h-0.1
							c-0.2,0.2-0.3,0.3-0.5,0.5c0,0-0.1,0.1,0,0.1c0,0,0,0-0.1,0c0,0,0,0.1-0.1,0.1c0,0,0,0.1,0,0.1c0,0-0.1,0.1-0.1,0.1
							c0,0.1,0,0.2-0.1,0.3c0,0.2-0.1,0.4-0.1,0.6c0,0.2,0,0.3,0,0.5c0.1,0.1,0,0.1,0,0.2c0,0,0,0.1,0,0.1c0,0.1,0.2,0.1,0.1,0.2
							c0,0,0.1,0.1,0.1,0.1c0,0.1-0.1,0.1,0,0.2c0,0,0.1,0,0.1,0.1L111.7,117.6z M114,115.6c-0.1,0,0,0.1-0.1,0.1l0,0
							c-0.1,0.4-0.3,0.7-0.6,0.9c0,0-0.1,0-0.1,0c0-0.1-0.1-0.2,0-0.2c0,0,0,0-0.1,0c0.1-0.1,0-0.1,0-0.2c0,0,0,0,0-0.1
							c0.1-0.1,0-0.2,0.1-0.3l0,0c0-0.1,0.1-0.2,0.2-0.2v-0.1c0.1-0.1,0.3-0.2,0.5-0.3c0,0,0.1,0,0.1,0
							C114.1,115.3,114,115.5,114,115.6"/>
						<path id="패스_760" class="st19" d="M120,115.3c0,0,0,0.1,0,0.1c0.2,0.2,0.2,0.6,0.3,0.9c-0.1,0.1,0,0.2-0.1,0.3l0.1,0.1
							c-0.1,0.2,0.1,0.4,0.1,0.6l-0.1,0.1c0,0,0,0.1,0.1,0.1l0,0l0,0l0,0c0,0,0,0,0.1,0.1c-0.1,0.1,0.1,0.2-0.1,0.3
							c0,0,0.1,0.1,0.1,0.1c-0.1,0.1,0,0.3-0.1,0.4l0,0l0,0l0,0c0,0,0,0,0,0.1c0,0.1,0.1,0.2,0,0.3l0,0c-0.1,0.1-0.2,0.2-0.2,0.3
							l-0.1,0.1c0,0,0,0.1,0,0.1c-0.1,0.1-0.1,0.2-0.2,0.3c0,0,0,0.1,0,0.2l0,0c0,0.1-0.1,0.2-0.1,0.3c0,0,0,0,0,0.1
							c-0.1,0.1-0.3,0.2-0.2,0.3c-0.1,0.1-0.2,0.2-0.3,0.3c0,0.1-0.1,0.1-0.1,0.2s-0.1,0-0.1,0.1l0,0l-0.1,0c0,0.1,0,0.1-0.1,0.1
							c0,0,0,0.1,0,0.1c-0.1,0.1-0.1,0.1-0.2,0.2c0,0-0.1,0.1-0.1,0.1c-0.1,0-0.1,0.1-0.1,0.2c0,0-0.1,0-0.1,0v0.1c0,0,0,0-0.1,0
							c-0.3,0.4-0.8,0.5-1.1,0.8c-0.1,0-0.2,0.1-0.2,0.1s-0.1,0.2-0.1,0.1c0,0-0.1,0-0.1,0c-0.1,0.1-0.2,0-0.3,0c0,0,0,0-0.1-0.1
							l0,0c0-0.1-0.1-0.1-0.2-0.1c0,0,0-0.1,0-0.1l0,0c0,0-0.1-0.1-0.1-0.1c-0.1-0.1,0.1,0,0-0.1l-0.2,0c0-0.1-0.1-0.1-0.1-0.2
							c0-0.1,0.2-0.1,0.2-0.2c0.1,0,0.1,0,0.1,0l0-0.1c0.1,0,0.1-0.1,0.1-0.1c0,0,0,0,0.1,0s0.1,0,0.1,0c0,0,0-0.1,0.1-0.1l0.1,0
							c0.1-0.1,0.2-0.2,0.2-0.2l0-0.1c0,0,0.1-0.1,0.1-0.2c0,0,0,0.1,0,0.1c0.1-0.1,0.1-0.1,0-0.2c0,0,0,0,0.1-0.1c0,0,0.1,0,0,0
							c0,0,0-0.1,0.1-0.1c0.1-0.2,0,0,0.2-0.3c0,0,0.1-0.1,0.1-0.1c0,0,0.1,0,0.1-0.1c0,0,0,0-0.1,0c0-0.1,0.2-0.2,0.2-0.3
							c0.1,0,0-0.1,0.1-0.1c0,0-0.1,0-0.1,0h0.1c0.1-0.1-0.1-0.1,0-0.2c0,0,0-0.1-0.1-0.1c0,0,0-0.1,0-0.1l0,0c0,0,0-0.2,0-0.2
							c0,0,0-0.1,0-0.1c0.1-0.1,0.1-0.1,0.1-0.2l0,0c0,0,0.1,0,0,0c0,0,0,0,0-0.1c0.1,0,0.1-0.3,0.1-0.4c0,0.1-0.1-0.2,0-0.2
							c0.1-0.2,0-0.4,0.1-0.6c-0.1,0,0.1-0.1,0-0.2c0,0-0.1,0-0.1,0c0,0,0,0,0.1-0.1c0,0,0-0.1,0-0.1c0,0,0-0.1,0-0.1
							c0,0,0-0.1,0-0.1c0,0,0,0,0.1-0.1c0,0,0,0-0.1,0c0-0.2-0.1-0.3-0.1-0.5c0,0,0,0,0-0.1c0.1-0.1,0-0.3,0-0.4
							c-0.1,0-0.1-0.1-0.1-0.2c0,0-0.1-0.1-0.1-0.1c-0.1-0.2-0.1-0.4-0.1-0.6c-0.1,0.1-0.1-0.6-0.2-0.8c-0.1-0.2,0-0.3-0.1-0.5
							c0,0,0.1,0,0.1-0.1c-0.1-0.1,0.1-0.2,0.1-0.3c0.1,0,0.2-0.1,0.3,0c0.1-0.1,0-0.1,0-0.2l0.5-0.1c0,0,0,0.1,0.1,0.1
							c0.1,0,0.2,0.1,0.3,0c0,0,0,0.1,0.1,0.1c0.1,0,0.1,0,0.2,0.1c0,0,0.1,0,0.1-0.1l0,0l0,0c0,0,0.1,0,0.1,0c0,0,0.1,0.2,0.1,0.1
							C119.6,114.7,119.8,115,120,115.3"/>
						<path id="패스_761" class="st19" d="M101.2,116.1c0-0.1-0.1-0.1-0.2-0.1s-0.1,0.1-0.2,0c0,0.1-0.1,0.1-0.2,0.2
							c0,0-0.1,0-0.1,0c0,0.1,0,0.1,0.1,0.4c0,0,0.1,0.2,0.1,0.3c0-0.1,0.1,0.2,0.2,0.2l0.1,0c0,0,0,0,0,0.1l0.1,0.1c0,0,0,0,0,0.1
							c0.1,0,0.2,0.1,0.2,0.1c0,0,0,0,0,0.1c0,0,0.1,0,0.1,0c0.1,0,0,0.1,0,0.1l0,0c0,0,0.1,0.1,0.1,0.1c0.1,0.1,0.5,0.3,0.6,0.4
							l0,0c0,0.1,0.2,0.1,0.2,0.2l0,0c0,0,0.3,0.1,0.4,0.1c0,0,0-0.1,0-0.1c0,0,0.1,0.1,0.2,0.2c0.1,0,0.1,0,0.2,0
							c0.1,0.1,0.3,0,0.5,0.1c0,0,0,0,0.1,0l0,0l0,0c0.1,0,0.1,0,0.2,0l0,0l0,0l0,0.1c0.1,0,0.2,0.1,0.3,0c0,0,0,0,0.1,0
							c0,0,0,0,0.1,0c0.1,0,0.1,0.1,0.2,0l0,0c0.1,0,0.2-0.1,0.3,0c0-0.1,0.1,0,0.1,0l0,0c0.1-0.1,0.2,0,0.3,0l0,0c0,0,0,0,0,0
							c0.1,0,0.3,0,0.3-0.1c0.1,0,0.2,0,0.3,0c0,0,0.1,0,0.1,0c0.1-0.1,0.2-0.1,0.3,0c0.2,0,0.3-0.1,0.4-0.2l0.1,0
							c0,0,0.1,0,0.1-0.1c0.1,0,0.3-0.1,0.4-0.2c0,0,0.1,0,0.1,0l0-0.1c0.1,0,0.1-0.1,0.2,0l0-0.1c0.1,0,0.1-0.1,0.2-0.1
							c0.1-0.1,0.2-0.2,0.4-0.3c0-0.1,0.1-0.1,0.1-0.1c0,0,0,0,0.1,0l0,0c0,0,0-0.1,0.1-0.1c0,0,0.1-0.1,0-0.1
							c0.1-0.1,0.1-0.3,0.2-0.3l0-0.1c0.1-0.1,0-0.2,0.1-0.2c0,0,0,0,0,0c0-0.1,0.1-0.3,0.1-0.4c0,0,0,0,0-0.1c0,0,0,0,0.1,0
							c0,0,0,0,0-0.1l0,0c-0.1,0,0-0.1,0-0.1l0,0c0-0.1,0-0.3,0-0.4l0,0c-0.1-0.1-0.1-0.2,0-0.2c0,0,0-0.1,0-0.1c-0.1,0,0-0.1,0-0.1
							c0-0.1-0.1-0.2,0-0.2c0-0.1,0-0.1-0.1-0.2c0,0,0-0.1,0-0.1c0,0-0.1,0,0,0c0-0.1,0-0.1,0-0.1c-0.1,0,0-0.1,0-0.1
							c0-0.1-0.1-0.3-0.1-0.4c0-0.1,0-0.3,0-0.3l-0.1,0c0-0.1,0-0.1-0.1-0.1c0,0,0,0,0-0.1c0,0-0.1,0-0.1,0s0,0,0-0.1l0,0
							c-0.1,0-0.1-0.1-0.1-0.2c-0.1-0.1-0.1-0.2-0.3-0.5c-0.1,0,0-0.1-0.1-0.1c-0.1-0.1-0.1-0.2-0.2-0.3c0,0,0,0,0-0.1h-0.1
							c0,0,0,0,0-0.1c-0.2-0.1-0.8-0.2-0.9-0.4c-0.1,0-0.1,0-0.1,0c0,0,0,0-0.1-0.1c-0.1,0.1-0.3-0.1-0.4-0.1l0,0c0-0.1-0.1,0-0.2,0
							c0,0,0,0-0.1,0c-0.1,0.1-0.3,0-0.4,0.2l0,0l0.3,0.6c0,0.2,0.1,0.4,0.2,0.6c0,0,0.1,0.1,0.1,0.1c0,0,0,0,0,0.1
							c0,0.1,0.1,0.2,0.1,0.2c0,0,0,0,0,0.1c0,0.1,0,0.2,0.1,0.3c0,0,0,0.1,0,0.1c0,0,0,0.1,0,0.1c0,0,0,0.1,0,0.1
							c0,0.1,0,0,0.1,0.1c-0.1,0.1,0.1,0.2,0,0.3c0,0,0,0,0.1,0c0,0,0,0,0,0s0,0,0,0c0,0.1,0,0.1,0,0.2c0,0,0,0.1,0,0.1
							c0,0.1,0.1,0.1,0,0.1c0,0,0,0.1,0,0.2c0,0.1,0,0.1,0,0.2c0,0,0,0,0,0l0,0.1c0,0,0,0.1,0,0.1c0,0.1-0.1,0.1-0.1,0.2
							c0,0.2,0.1,0.3-0.1,0.4c0,0,0,0.1,0,0.1c0,0,0,0.1-0.1,0.1c0,0.1-0.1,0.1-0.1,0.2c-0.1,0-0.1,0.1-0.2,0.1c0,0,0,0,0,0.1
							c0,0,0,0-0.1,0c0,0-0.2,0.1-0.2,0.2l0,0c-0.1,0-0.2,0.1-0.2,0.1c-0.1,0.1-0.2,0.1-0.3,0.1c-0.1,0-0.2,0-0.3,0
							c0,0-0.1,0-0.1,0.1c0,0-0.1,0-0.2,0c0,0,0,0.1-0.1,0.1l0,0l0,0c-0.1,0-0.1,0-0.2,0l0,0c-0.1,0-0.1,0-0.2,0c-0.1,0-0.2,0-0.3,0
							c0,0,0,0,0,0l0,0c0,0-0.2,0-0.2,0l-0.1,0l0,0l0,0c0,0-0.3-0.1-0.4-0.1c0,0-0.1,0-0.2,0c-0.2,0-0.4-0.1-0.5-0.1l0,0
							c-0.1,0-0.2,0-0.2-0.1c0,0-0.1,0-0.1,0c0-0.1-0.2-0.1-0.2-0.1c0,0-0.1-0.1-0.1-0.1c-0.1,0-0.2-0.1-0.2-0.2h-0.1l0-0.1
							l-0.1-0.1C101.3,116.1,101.3,116.1,101.2,116.1"/>
						<path id="패스_762" class="st19" d="M103.4,112.1h0.1c0.2,0.2,0.5,0.1,0.8,0.2c0.1-0.1,0.2,0,0.3-0.1c0,0,0,0,0.1,0.1
							c0.2-0.1,0.3,0,0.5,0l0.1-0.1c0,0,0.1,0,0.1,0l0,0l0,0l0,0c0,0,0,0,0.1,0c0.1-0.1,0.2,0,0.3-0.1c0,0,0.1,0.1,0.1,0.1
							c0.1-0.1,0.1,0,0.3,0l0,0l0,0l0,0c0,0,0,0,0.1,0c0.1,0.1,0.1,0.1,0.2,0.1l0,0c0.1,0-0.4-0.1,0.3-0.1l0.1,0c0,0,0,0.1,0.1,0.1
							c0.1,0,0.2-0.1,0.3-0.1c0,0,0.1,0.1,0.2,0l0,0c0.1,0,0.2,0,0.3,0c0,0-0.1,0,0,0c0.1-0.1,0.2-0.1,0.4,0c0.1,0,0.2-0.1,0.3-0.1
							c0,0.1,0.1-0.1,0.2,0s0.1-0.1,0.1,0l0,0c0,0,0,0,0-0.1c0.1,0,0.1,0,0.1,0c0,0,0.1,0,0.1,0c0.1,0,0.2,0,0.2-0.1
							c0,0,0.1,0,0.1,0c0.1,0,0.1,0,0.2,0c0,0,0-0.1,0.1,0l0,0c0,0,0,0,0.1,0c0.4,0,0.6-0.2,1-0.2l0.2-0.1c0.1,0,0.1,0.1,0.1,0
							c0,0,0.1,0,0.1-0.1c0.1,0,0.2-0.2,0.2-0.2c0,0,0,0,0-0.1l0,0c0-0.1,0-0.2,0-0.3c0,0-0.1,0-0.1,0l0,0c0,0,0-0.1,0-0.1
							c0-0.1-0.1,0-0.1-0.1l0.1-0.1c0-0.1-0.2-0.1-0.2-0.1c0,0.1,0,0-0.1,0.1l0-0.1c-0.1,0-0.1,0-0.1,0c0,0,0,0,0,0s0,0.1-0.1,0
							c0,0-0.1,0-0.1,0c0,0,0,0,0,0.1c-0.2,0-0.5,0-0.7,0l-0.1,0c0,0,0,0.1,0,0c0,0-0.1,0-0.1,0c-0.2,0-0.5,0-0.4,0
							c-0.1,0-0.2,0-0.3,0c0,0.1-0.1-0.1-0.2,0c0,0-0.1,0,0,0v0c-0.1,0-0.1-0.1-0.2,0c0,0,0,0,0-0.1c0,0-0.1,0-0.1,0l0,0
							c0,0-0.1-0.1-0.2,0l-0.1,0c-0.1,0-0.2,0.1-0.3,0.1l0,0c0,0-0.1,0.1,0,0l-0.1,0c-0.1,0-0.2,0.1-0.4,0c0.1,0-0.1-0.1-0.1-0.1
							c-0.2,0.1-0.4,0-0.6,0c0-0.1-0.1,0-0.1,0c0,0,0-0.1,0-0.1c0,0-0.1,0-0.1,0c0,0-0.1,0-0.1,0c0,0-0.1,0-0.1,0c0,0-0.1,0-0.1,0
							c0,0-0.1,0.1-0.1,0.1c0,0,0,0,0-0.1c-0.2,0-0.2-0.1-0.4-0.1c0,0,0,0-0.1,0c-0.1,0.1-0.3,0-0.4,0.1c0-0.1-0.1,0-0.2,0
							c0,0-0.1,0-0.1-0.1c-0.2,0-0.3-0.1-0.5-0.1c0.1-0.1-0.5-0.1-0.7-0.1c-0.1-0.1-0.3,0-0.4,0c0,0,0,0.1-0.1,0.1
							c-0.1,0-0.2,0.1-0.3,0.1c0,0.1-0.1,0.1-0.1,0.2c-0.1,0.1-0.1,0.1-0.1,0.1c0,0.1-0.1,0.1-0.1,0.3c0,0,0.1,0,0.1,0
							c0,0.1,0,0.1,0,0.2c0,0,0.1,0,0.1,0c0,0.1,0,0.1,0,0.1c0,0,0,0.1-0.1,0.1l0,0l0,0c0,0,0,0.1,0,0.1c0,0,0.1,0,0.1,0.1
							C102.8,111.8,103.1,112,103.4,112.1"/>
						<path id="패스_763" class="st20" d="M134.4,133.8H96.6c-0.7,0-1.2-0.5-1.2-1.2v-0.9c0-0.7,0.5-1.2,1.2-1.2h37.8
							c0.7,0,1.2,0.5,1.2,1.2v0.9C135.6,133.3,135.1,133.8,134.4,133.8"/>
						<path id="패스_764" class="st20" d="M134.4,140.3H96.6c-0.7,0-1.2-0.5-1.2-1.2v-0.9c0-0.7,0.5-1.2,1.2-1.2h37.8
							c0.7,0,1.2,0.5,1.2,1.2v0.9C135.6,139.8,135.1,140.3,134.4,140.3"/>
						<path id="패스_765" class="st20" d="M134.4,146.8H96.6c-0.7,0-1.2-0.5-1.2-1.2v-0.9c0-0.7,0.5-1.2,1.2-1.2h37.8
							c0.7,0,1.2,0.5,1.2,1.2v0.9C135.6,146.3,135.1,146.8,134.4,146.8"/>
						<rect id="사각형_228" x="82.6" y="164.2" class="st21" width="0.8" height="6.3"/>
						<rect id="사각형_229" x="77" y="170.2" class="st21" width="12.8" height="1.8"/>
						<rect id="사각형_230" x="76.2" y="170.2" class="st22" width="12.8" height="1.8"/>
						<path id="패스_766" class="st21" d="M93.1,164.7H64.7l9.3-19.3h28.4L93.1,164.7z"/>
					</g>
				</g>
			</g>
			<g id="그룹_524">
				<g>
					<defs>
						<polygon id="SVGID_00000023255851593010131790000011799745438498330268_" points="73.2,145.4 63.9,164.7 92.2,164.7 
							101.5,145.4 						"/>
					</defs>
					<clipPath id="SVGID_00000108273196933116897040000006598323823980801945_">
						<use xlink:href="#SVGID_00000023255851593010131790000011799745438498330268_"  style="overflow:visible;"/>
					</clipPath>
					<g id="그룹_523" style="clip-path:url(#SVGID_00000108273196933116897040000006598323823980801945_);">
						
							<linearGradient id="사각형_232_00000086681023943170038090000011737593321068985771_" gradientUnits="userSpaceOnUse" x1="-795.2641" y1="672.3854" x2="-795.2381" y2="672.3854" gradientTransform="matrix(37.675 0 0 -19.306 29961.582 13136.1025)">
							<stop  offset="0" style="stop-color:#1E90E6"/>
							<stop  offset="1" style="stop-color:#0071C6"/>
						</linearGradient>
						
							<rect id="사각형_232" x="63.9" y="145.4" style="fill:url(#사각형_232_00000086681023943170038090000011737593321068985771_);" width="37.7" height="19.3"/>
					</g>
				</g>
			</g>
			<g id="그룹_529">
				<g>
					<defs>
						<rect id="SVGID_00000003070191008316122250000009321463092468451201_" width="320" height="369"/>
					</defs>
					<clipPath id="SVGID_00000120519301678327210970000016842658504697413025_">
						<use xlink:href="#SVGID_00000003070191008316122250000009321463092468451201_"  style="overflow:visible;"/>
					</clipPath>
					<g id="그룹_528" style="clip-path:url(#SVGID_00000120519301678327210970000016842658504697413025_);">
						<path id="패스_768" class="st26" d="M89.4,151.7l3-6.3H92l-3,6.3h-9.2l3-6.3h-0.4l-3,6.3h-9.2l-0.2,0.4h9.2l-2.8,5.9h-9.2
							l-0.2,0.4h9.2l-3,6.3h0.4l3-6.3h9.2l-3,6.3h0.4l3-6.3h9.1l0.2-0.4h-9.1l2.8-5.9h9.1l0.2-0.4H89.4z M85.9,158h-9.2l2.8-5.9h9.2
							L85.9,158z"/>
						<rect id="사각형_233" x="95.3" y="159.1" class="st10" width="0.9" height="15.6"/>
						<path id="패스_769" class="st27" d="M99.5,161.2c1-2.1,0.1-4.6-2-5.5c-2.1-1-4.6-0.1-5.5,2c-0.5,1.1-0.5,2.4,0,3.6
							c0.1,0.2,0.1,0.5-0.1,0.7c-2.1,2.1-2,5.6,0.1,7.7c2.1,2.1,5.6,2,7.7-0.1c2-2.1,2-5.4,0-7.5C99.5,161.7,99.4,161.4,99.5,161.2"
							/>
						<g id="그룹_527" class="st11">
							<g id="그룹_526">
								<g>
									<defs>
										<rect id="SVGID_00000054946792333270367610000014763218431553087132_" x="90.3" y="155.2" width="7.7" height="14.9"/>
									</defs>
									<clipPath id="SVGID_00000134932715514534970020000011037737174261326521_">
										<use xlink:href="#SVGID_00000054946792333270367610000014763218431553087132_"  style="overflow:visible;"/>
									</clipPath>
									<g id="그룹_525" style="clip-path:url(#SVGID_00000134932715514534970020000011037737174261326521_);">
										<path id="패스_770" class="st8" d="M92.7,170.1c-2.5-1.7-3.1-5-1.5-7.5c0.2-0.3,0.4-0.5,0.6-0.7
											c0.2-0.2,0.2-0.5,0.1-0.7c-1-2.1-0.1-4.6,2-5.6c1.3-0.6,2.9-0.5,4.1,0.3c0,0-4,2.1-3.5,6.2c0,0.2-0.1,0.4-0.2,0.6
											C92.4,164.6,91.8,167.5,92.7,170.1"/>
									</g>
								</g>
							</g>
						</g>
						<rect id="사각형_235" x="113.6" y="170.2" class="st21" width="0.8" height="6.3"/>
						<rect id="사각형_236" x="108" y="176.2" class="st21" width="12.8" height="1.8"/>
						<rect id="사각형_237" x="107.2" y="176.2" class="st22" width="12.8" height="1.8"/>
						<path id="패스_771" class="st21" d="M124.1,170.7H95.8l9.3-19.3h28.4L124.1,170.7z"/>
					</g>
				</g>
			</g>
			<g id="그룹_531">
				<g>
					<defs>
						<polygon id="SVGID_00000036209037730674997850000010977383228143455369_" points="104.2,151.4 94.9,170.7 123.3,170.7 
							132.6,151.4 						"/>
					</defs>
					<clipPath id="SVGID_00000083802037537237336410000009522145683073135777_">
						<use xlink:href="#SVGID_00000036209037730674997850000010977383228143455369_"  style="overflow:visible;"/>
					</clipPath>
					<g id="그룹_530" style="clip-path:url(#SVGID_00000083802037537237336410000009522145683073135777_);">
						
							<linearGradient id="사각형_239_00000123435717313176295570000010320552953548893830_" gradientUnits="userSpaceOnUse" x1="-796.0881" y1="672.385" x2="-796.0611" y2="672.385" gradientTransform="matrix(37.675 0 0 -19.305 29992.6152 13141.4092)">
							<stop  offset="0" style="stop-color:#1E90E6"/>
							<stop  offset="1" style="stop-color:#0071C6"/>
						</linearGradient>
						
							<rect id="사각형_239" x="94.9" y="151.4" style="fill:url(#사각형_239_00000123435717313176295570000010320552953548893830_);" width="37.7" height="19.3"/>
					</g>
				</g>
			</g>
			<g id="그룹_533">
				<g>
					<defs>
						<rect id="SVGID_00000053532189397425429170000013188921545595561149_" width="320" height="369"/>
					</defs>
					<clipPath id="SVGID_00000143609456940176752130000014420195121187148475_">
						<use xlink:href="#SVGID_00000053532189397425429170000013188921545595561149_"  style="overflow:visible;"/>
					</clipPath>
					<g id="그룹_532" style="clip-path:url(#SVGID_00000143609456940176752130000014420195121187148475_);">
						<path id="패스_773" class="st26" d="M120.4,157.7l3-6.3H123l-3,6.3h-9.2l3-6.3h-0.4l-3,6.3h-9.2l-0.2,0.4h9.2l-2.8,5.9h-9.2
							l-0.2,0.4h9.2l-3,6.3h0.4l3-6.3h9.2l-3,6.3h0.4l3-6.3h9.1l0.2-0.4h-9.1l2.8-5.9h9.1l0.2-0.4H120.4z M117,164h-9.2l2.8-5.9h9.2
							L117,164z"/>
						<path id="패스_774" class="st3" d="M27.1,48.3c1.2-1.6,2.7-2.9,4.4-3.9c1.9-1.1,3.8-1.9,5.9-2.4c0.2-0.1,0.4-0.1,0.7-0.2
							s0.6-0.2,1-0.2l1.4-0.2c0.5-0.1,1.2-0.2,1.9-0.2c1.4-0.1,2.9-0.1,4.3,0c1.7,0.1,3.4,0.4,5.1,0.8c3.7,0.9,7.2,2.1,10.6,3.7
							c3.3,1.5,6.3,3.2,8.5,4.3l3.5,1.9l3,1.6c1.9,1,4.5,2.4,7.7,3.7c3.3,1.4,6.8,2.5,10.3,3.2c1.8,0.3,3.6,0.5,5.4,0.5
							c0.9,0,1.7,0,2.5,0l1.2-0.1l1.1-0.1c0.5,0,1-0.1,1.4-0.2s0.9-0.1,1.3-0.2c0.8-0.2,1.5-0.3,2.2-0.5s1.2-0.3,1.6-0.5l1.2-0.4
							c2.1-0.7,4.1-1.7,6-2.9c1.7-1,3.2-2.1,4.9-3.3c-1.6,1.1-3.4,2.1-5.2,2.8c-2,0.8-4.1,1.4-6.2,1.9l-1.1,0.2
							c-0.4,0.1-1,0.2-1.6,0.3c-0.6,0.1-1.3,0.2-2.1,0.3c-0.4,0.1-0.8,0.1-1.2,0.1s-0.9,0.1-1.4,0.1l-1.1,0l-1.1,0
							c-0.8,0-1.5-0.1-2.3-0.1c-1.7-0.2-3.3-0.4-4.9-0.8c-3.3-0.8-6.5-1.9-9.6-3.3c-2.9-1.3-5.5-2.7-7.4-3.7l-3-1.6L72.6,47
							c-2.2-1.2-5.2-2.8-8.8-4.3c-3.6-1.6-7.5-2.8-11.4-3.5c-1.8-0.3-3.7-0.5-5.6-0.5c-1.6,0-3.1,0.2-4.7,0.4
							c-0.8,0.1-1.4,0.3-2,0.4l-1.5,0.4c-0.4,0.1-0.8,0.3-1.1,0.4s-0.5,0.2-0.8,0.3c-2.1,0.8-4,2-5.8,3.4
							C29.6,45.3,28.3,46.7,27.1,48.3"/>
						<path id="패스_775" class="st3" d="M25.6,39.3c0.3-0.4,0.7-0.8,1-1.2c0.2-0.2,0.3-0.4,0.5-0.6s0.4-0.3,0.5-0.5
							c0.4-0.3,0.7-0.6,1.1-0.9l1.2-0.8c1.8-1.2,3.7-2.2,5.6-3.1c0.2-0.1,0.4-0.2,0.7-0.3l1-0.4c0.4-0.2,0.9-0.3,1.3-0.5
							c0.5-0.1,1.1-0.3,1.8-0.5c2.4-0.6,4.8-0.8,7.2-0.8c2.8,0,5.6,0.6,8.3,1.5c2.2,0.9,4.4,1.9,6.4,3.1l2.7,1.6
							c0,0,0.9,0.5,2.3,1.3c2,1.1,4,2,6.2,2.7c2.8,0.9,5.8,1.2,8.7,0.8c1.5-0.2,2.9-0.7,4.2-1.5c1.2-0.7,2.3-1.6,3.1-2.6
							c0.7-0.8,1.2-1.8,1.5-2.8c0.3-0.8,0.4-1.7,0.3-2.5c0-0.6-0.2-1.3-0.4-1.9c-0.1-0.4-0.3-0.8-0.6-1.2c-0.7-1.2-1.8-2.1-3-2.6
							C86.2,25.4,85,25.5,84,26c-0.9,0.4-1.7,1.1-2.2,2c-0.3,0.4-0.4,0.9-0.5,1.4c-0.1,0.5-0.1,1.1,0.1,1.6c-0.1-0.5-0.1-1,0-1.5
							c0.1-0.5,0.4-0.9,0.7-1.3c0.6-0.7,1.4-1.2,2.3-1.5c0.4-0.1,0.9-0.2,1.3-0.1c0.4,0,0.9,0.2,1.3,0.4c0.9,0.5,1.6,1.3,2,2.2
							c0.1,0.3,0.2,0.6,0.3,1c0.1,0.5,0.2,0.9,0.1,1.4c0,0.6-0.2,1.2-0.4,1.7c-0.3,0.7-0.7,1.3-1.2,1.9c-0.7,0.8-1.6,1.4-2.5,1.8
							c-1.1,0.5-2.2,0.8-3.4,1c-2.5,0.2-5-0.1-7.3-1c-1.9-0.7-3.8-1.5-5.6-2.6c-1.4-0.8-2.3-1.3-2.3-1.3l-2.7-1.6
							c-2.2-1.3-4.6-2.4-7-3.3c-3-1-6.2-1.4-9.4-1.3c-2.7,0.1-5.3,0.6-7.8,1.4c-0.7,0.2-1.4,0.5-1.9,0.7c-0.5,0.2-0.9,0.4-1.4,0.6
							l-1,0.5c-0.3,0.1-0.5,0.3-0.7,0.4c-0.6,0.4-1.1,0.7-1.6,1l-1.4,1c-0.4,0.3-0.8,0.7-1.2,1l-0.6,0.5c-0.2,0.2-0.3,0.4-0.5,0.5
							l-1,1.1c-0.3,0.4-0.6,0.7-0.9,1.1L27,37.4c-0.2,0.2-0.3,0.4-0.5,0.6C26.2,38.4,25.9,38.8,25.6,39.3"/>
						<path id="패스_776" class="st3" d="M29.5,58.3c1.7-1,3.6-1.7,5.5-2.2c2.1-0.5,4.2-0.9,6.3-1.2l0.8-0.1c0.3,0,0.6-0.1,1-0.1
							l1.4-0.1c0.5,0,1.2,0,1.9,0c2.1,0,4.2,0.2,6.3,0.6c2.4,0.4,4.8,1.1,7.1,2c1.8,0.7,3.6,1.7,5.1,2.9c0.4,0.4,0.8,0.8,1.2,1.2
							c0.1,0.1,0.2,0.3,0.3,0.3l0.1,0.1l0.1,0.1l0.2,0.3c0.3,0.4,0.5,0.8,0.7,1.2c0.3,0.6,0.4,1.3,0.5,1.9c0.1,0.8,0.1,1.7-0.1,2.5
							c-0.2,0.9-0.6,1.8-1.1,2.5c-0.3,0.4-0.6,0.7-1,1c-0.4,0.3-0.8,0.6-1.2,0.8c-0.8,0.4-1.8,0.7-2.7,0.7c-0.8,0-1.7-0.1-2.5-0.4
							c-0.3-0.1-0.7-0.3-1-0.5c-0.3-0.2-0.5-0.4-0.8-0.7c-0.4-0.5-0.7-1-1-1.5c-0.2-0.4-0.3-0.9-0.4-1.3c-0.1-0.3-0.1-0.6-0.1-1
							c0-0.9,0.5-1.8,1.3-2.3c0.4-0.2,0.8-0.4,1.2-0.6c0.4-0.1,0.9-0.1,1.3-0.1c0.9,0.1,1.7,0.6,2.3,1.3c0.3,0.4,0.5,0.9,0.4,1.3
							c0,0.3-0.1,0.5-0.2,0.7c-0.1,0.2-0.4,0.4-0.7,0.3c0.3,0,0.5-0.1,0.7-0.3c0.2-0.2,0.2-0.5,0.3-0.7c0.1-0.5,0-1-0.3-1.5
							c-0.5-0.9-1.3-1.6-2.3-1.9c-0.5-0.2-1.1-0.3-1.6-0.2c-0.6,0-1.2,0.2-1.7,0.4c-0.6,0.3-1.2,0.7-1.6,1.2
							c-0.5,0.6-0.8,1.3-0.9,2.1c-0.1,0.5-0.1,0.9-0.1,1.4c0,0.6,0.2,1.3,0.4,1.9c0.3,0.8,0.7,1.5,1.2,2.2c0.3,0.4,0.6,0.8,1,1.1
							c0.4,0.4,0.9,0.7,1.4,1c1.1,0.6,2.3,0.9,3.6,0.9c1.4,0,2.7-0.2,4-0.8c1.3-0.6,2.5-1.5,3.4-2.6c0.9-1.1,1.5-2.3,1.8-3.7
							c0.3-1.2,0.4-2.4,0.2-3.6c-0.1-1-0.4-2-0.8-2.9c-0.3-0.6-0.6-1.2-1-1.7l-0.3-0.4l-0.1-0.1l-0.1-0.2c-0.1-0.1-0.2-0.3-0.4-0.5
							c-0.5-0.6-1-1.1-1.6-1.6c-1.8-1.4-3.9-2.6-6.1-3.3c-2.5-0.9-5.2-1.5-7.9-1.8c-2.3-0.2-4.6-0.3-6.8-0.1c-0.8,0.1-1.4,0.1-2,0.2
							l-1.5,0.2c-0.4,0.1-0.8,0.2-1.1,0.2L41,53.1C35.8,54.4,33.3,56.2,29.5,58.3"/>
					</g>
				</g>
			</g>
		</g>
	</g>
</g>
</svg>
