<svg xmlns="http://www.w3.org/2000/svg" xmlns:xlink="http://www.w3.org/1999/xlink" viewBox="0 0 280 280">
  <defs>
    <style>
      .cls-1, .cls-8 {
        fill: none;
      }

      .cls-2 {
        clip-path: url(#clip-path);
      }

      .cls-3, .cls-4 {
        fill: #91bc00;
      }

      .cls-4, .cls-8 {
        stroke: #abc638;
        stroke-miterlimit: 10;
        stroke-width: 2px;
      }

      .cls-5 {
        fill: #fff;
      }

      .cls-6 {
        fill: #3a4b00;
      }

      .cls-7 {
        fill: #d8d8d8;
      }

      .cls-9 {
        fill: #abc638;
      }
    </style>
    <clipPath id="clip-path">
      <rect id="사각형_126" data-name="사각형 126" class="cls-1" width="280" height="280"/>
    </clipPath>
  </defs>
  <g id="생활" transform="translate(140 140)">
    <g id="그룹_219" data-name="그룹 219" class="cls-2" transform="translate(-140 -140)">
      <rect id="사각형_116" data-name="사각형 116" class="cls-3" width="280" height="280"/>
      <g id="그룹_209" data-name="그룹 209">
        <path id="패스_152" data-name="패스 152" class="cls-4" d="M232.018,141.909,235.642,84.7,244,84.576l3.237,57.221Z"/>
        <path id="패스_153" data-name="패스 153" class="cls-4" d="M42.5,141.909l5.24-82.716,12.085-.182,4.682,82.736Z"/>
        <path id="패스_154" data-name="패스 154" class="cls-4" d="M71.934,141.909l5.239-82.716,12.084-.182,4.682,82.736Z"/>
        <g id="그룹_208" data-name="그룹 208">
          <path id="패스_155" data-name="패스 155" class="cls-4" d="M148.664,82.842,171.5,99.222l.5-17.372,25.314,17.372V80.857l26.307,18.365v42.687H148.166Z"/>
          <rect id="사각형_117" data-name="사각형 117" class="cls-4" width="9.43" height="9.927" transform="translate(158.05 110.142)"/>
          <rect id="사각형_118" data-name="사각형 118" class="cls-4" width="9.431" height="9.927" transform="translate(174.677 110.142)"/>
          <rect id="사각형_119" data-name="사각형 119" class="cls-4" width="9.431" height="9.927" transform="translate(190.064 110.142)"/>
          <rect id="사각형_120" data-name="사각형 120" class="cls-4" width="9.431" height="9.927" transform="translate(205.947 110.142)"/>
        </g>
        <path id="패스_156" data-name="패스 156" class="cls-4" d="M46.357,60.284A1.288,1.288,0,0,1,45.07,59h0a1.287,1.287,0,0,1,1.287-1.289H61.016A1.288,1.288,0,0,1,62.3,59h0a1.288,1.288,0,0,1-1.287,1.289H46.357Z"/>
        <path id="패스_157" data-name="패스 157" class="cls-4" d="M76,60.284A1.288,1.288,0,0,1,74.712,59h0A1.288,1.288,0,0,1,76,57.707H90.66A1.288,1.288,0,0,1,91.945,59h0a1.288,1.288,0,0,1-1.287,1.289H76Z"/>
        <path id="패스_158" data-name="패스 158" class="cls-4" d="M235.055,84.979a.857.857,0,0,1-.8-.9h0a.856.856,0,0,1,.8-.9H244.2a.857.857,0,0,1,.8.9h0a.857.857,0,0,1-.8.9Z"/>
      </g>
      <path id="패스_159" data-name="패스 159" class="cls-4" d="M301.625,182c0-29.823-71.634-54-160-54s-160,24.177-160,54V369h320Z"/>
      <ellipse id="타원_7" data-name="타원 7" class="cls-4" cx="84.5" cy="19" rx="84.5" ry="19" transform="translate(55.5 161)"/>
      <g id="그룹_213" data-name="그룹 213">
        <g id="그룹_210" data-name="그룹 210">
          <rect id="사각형_121" data-name="사각형 121" class="cls-5" width="9.942" height="39.631" transform="translate(103.861 44.252)"/>
          <rect id="사각형_122" data-name="사각형 122" class="cls-5" width="9.943" height="39.631" transform="translate(166.198 44.252)"/>
          <path id="패스_160" data-name="패스 160" class="cls-5" d="M145.038,77.378A5.038,5.038,0,0,1,140,82.417h0a5.039,5.039,0,0,1-5.04-5.04V64.244A5.038,5.038,0,0,1,140,59.205h0a5.036,5.036,0,0,1,5.037,5.039ZM140,62.762a2.16,2.16,0,1,0,2.159,2.16A2.16,2.16,0,0,0,140,62.762Z"/>
          <path id="패스_161" data-name="패스 161" class="cls-5" d="M190.674,182H89.326l4.6-107.17h92.146Z"/>
        </g>
        <g id="그룹_212" data-name="그룹 212">
          <path id="패스_162" data-name="패스 162" class="cls-6" d="M146.654,94.062a.221.221,0,0,0-.111-.056c-.17-.035-.339.087-.6.292l-.2.15c-.7.373-1.237,2.123-1.356,2.842-.021.01-.037.021-.075.04a3.066,3.066,0,0,0-2.039-1.538c.326,1.244,1.421,5,2.879,4.676.741-.165,2.286-3.282,2.3-5V95.4C147.448,94.5,147.029,94.172,146.654,94.062Z"/>
          <path id="패스_163" data-name="패스 163" class="cls-6" d="M156.484,113.2a11.93,11.93,0,0,0-4.225.566,1.482,1.482,0,0,0-.669.471c.029.377-.2.973.154,1.115.018,0,.017.059.035.09.1.1.211.119.315.253.067.1.123-.011.194.029.033.035.051.094.086.1.176.082.338.05.512.135a.46.46,0,0,0,.265.07c.055-.021.123.1.142.135a2.208,2.208,0,0,0,.975.008c1.015-.016.824-.115,1.837-.131.855-.013,1.686.118,2.538.1.463-.014.964,0,1.426-.032.817-.048,1.635.078,2.453.088.409-.01.884.15,1.3.18a6.46,6.46,0,0,1,1.316-.021,1.138,1.138,0,0,1,.429.058,1.192,1.192,0,0,0,.4.143,2.6,2.6,0,0,0,1.122-.263,2.5,2.5,0,0,0,.661-.237.58.58,0,0,0,.241-.38,1.523,1.523,0,0,0,.081-.989c-.02,0-.073.024-.091-.007-.04-.059-.029-.2-.086-.2a3.079,3.079,0,0,0-.487-.118c-.217-.045-.437-.147-.653-.188a55.55,55.55,0,0,0-10.271-.975Z"/>
          <path id="패스_164" data-name="패스 164" class="cls-6" d="M138.792,113.867c.183.041.393.037.492.159.1.1-.1.253-.086.38,0,.3.11.574.1.875a.183.183,0,0,1-.076.154.787.787,0,0,1-.22.208c-.255.162-.59.1-.885.185a6.354,6.354,0,0,1-1.177.2,15.66,15.66,0,0,1-2.106-.1,2.1,2.1,0,0,0-.8.107,3.308,3.308,0,0,1-.983.061c-1.711-.061-3.392-.1-5.1-.084-.3.011-.626.049-.924.06-1.37.077-2.737.054-4.108.089-.479.013-.956.026-1.436.013l-.776.018c-1.013.052-2.053.1-3.071.057l-1.194.011a31.573,31.573,0,0,1-3.426.182,5.816,5.816,0,0,1-2.4-.633,3.218,3.218,0,0,1-1.229-1.094,1.351,1.351,0,0,1,.815-.433,22.405,22.405,0,0,1,2.24-.47c.651-.109,1.247-.163,1.872-.219a154.479,154.479,0,0,1,20.98-.22,22.86,22.86,0,0,1,3.493.494Z"/>
          <path id="패스_165" data-name="패스 165" class="cls-6" d="M153.591,106.2v.1c.073.186.219.234.364.374h.475c0-.094.109,0,.109-.094a.4.4,0,0,0,.349-.186h.078a.4.4,0,0,1,.353-.238c.2-.233.39-.468.587-.7a.274.274,0,0,1,.116-.236,8.459,8.459,0,0,1,.392-1.314,1.941,1.941,0,0,0,.04-.468c.038,0,.077,0,.077-.046-.039-.19.078-.283.157-.376.079,0,.155,0,.2-.094v-.092a.821.821,0,0,1,.569.326h.257c0,.1.052.1.1.144a2.732,2.732,0,0,1,.865.045c0,.14.2.094.257.235a1.333,1.333,0,0,0,.155.423.165.165,0,0,1-.054.142c.1.138.2.375.054.513.05.188,0,.423.1.612-.1.094-.052.236-.052.329a2.638,2.638,0,0,1,.155.657c.2.234.154.517.31.751v.279c.1,0,0,.142.1.142a5.269,5.269,0,0,1-.1.895c-.053.045-.1.094-.156.14v.094c-.053,0-.1,0-.1-.049-.1.142-.257.235-.362.376-.1-.047-.154.047-.205.047-.1,0,0,.141-.1.141a.41.41,0,0,0-.26.094c-.1.047-.452-.048-.554.047l-.051-.047a.285.285,0,0,1-.207.094c0-.047,0-.094-.052-.094a.371.371,0,0,1-.412.188c-.044-.094-.026-.163-.143-.206a1.86,1.86,0,0,0-.2-.8c.038,0,.038-.042.038-.084a1.464,1.464,0,0,1-.115-.382c-.119-.171-.158-.424-.313-.551.04-.043-.08-.085-.042-.127-.075-.083-.115-.127-.2-.212-.076,0-.076.043-.116.085-.04.211-.235.381-.274.593l-.038-.042c-.04.127-.157.211-.157.339-.078.042-.119.169-.194.211v.085c-.275.253-.424.664-.752.841-.081.177-.289.213-.369.411a1.79,1.79,0,0,0-.469.1c-.1-.049-.257-.149-.359-.049,0-.048-.052-.048-.1-.048l-.052.048c-.1-.1-.254,0-.408-.048a6.615,6.615,0,0,0-1.021-.544c-.1,0,0-.148-.1-.148a.191.191,0,0,1-.152-.049c0-.148.051-.248-.1-.346l.052-.049c0-.048-.052-.048-.1-.048-.052-.3-.205-.545-.254-.839a1.154,1.154,0,0,1-.1-.1.858.858,0,0,0-.1-.394c-.05-.2.127-.363.028-.552a.158.158,0,0,1,.052-.138,1.285,1.285,0,0,1,.048-.612c-.048,0-.048-.045-.048-.093a1.159,1.159,0,0,0,.1-.564c.047-.14.144-.28.193-.422l-.049-.047c.1-.1.049-.235.2-.329,0-.048,0-.092-.049-.092,0-.1.1-.142.145-.19a1.948,1.948,0,0,1,.355-.533l-.037-.056a.689.689,0,0,1,.476-.187,1.153,1.153,0,0,1,.453.156c.055.113,0,.2.075.34h.073v.1c0,.047.035.047.072.047a.84.84,0,0,1,.072.423c0,.046.038.046.075.046-.037.094.072.188.072.283-.072.092,0,.234-.037.376.11.233.075.516.182.749A1.178,1.178,0,0,0,153.591,106.2Z"/>
          <path id="패스_166" data-name="패스 166" class="cls-6" d="M134.721,107.94a1,1,0,0,1,.241.216.608.608,0,0,0,.223.233,1.948,1.948,0,0,1,.2.1l.064.131.159.148c.169.051.2-.05.33.127.057,0,.113,0,.113.049l.056-.049c.056.1.168.148.225.2a.644.644,0,0,1,.427.16c.056,0,.063.114.063.066.173.045.289.16.4.059.054,0,.111,0,.111.051l.056-.051c.113-.048.138.085.25.037.057,0,.057.048.057.1h.111c.112.1.591-.032.7.068a8.105,8.105,0,0,0,1.673-.066c.006-.1.162.007.167-.088l.052.049c.212.059.437-.185.648-.08l.113-.09c.108-.043.263.156.377.019,0,.047.051.049.1.051a.847.847,0,0,0,0-.1c.167-.087.37-.065.492-.2a1.891,1.891,0,0,1,.214.022l.117-.085c.277-.066.522-.286.837-.358.049-.053.157-.061.2-.163.052-.006.107-.011.162-.013.048-.052.1-.107.145-.157.166.032.31-.194.468-.217-.007-.046-.015-.1.036-.1l.063.04c.1-.066.1-.066.135-.168.166.022.257-.183.347-.294l.106-.014c.044-.056.044-.056.09-.112l.109-.018c.141-.12.224-.277.427-.358-.008-.047-.017-.094.037-.1.115.031.09-.111.135-.165.046-.033.188-.133.224-.087-.007.078.139-.2.131-.127.038.047.222-.433.265-.466l-.446-1.167c-.166.232-.751,1-1.066,1.069,0,.246-.269.258-.456.4.011.044.024.093-.03.105-.157.035-.224.211-.33.233-.011-.046-.063-.035-.116-.022-.041.059-.145.082-.174.188-.158.035-.205.19-.3.3l-.061-.038c-.187.174-.463.156-.593.369-.3.142-.564.193-.879.31-.053,0-.107.007-.111-.043-.046.1-.267.02-.312.118a5.61,5.61,0,0,0-.913.06c-.008-.094-.164.011-.169-.082-.264.113-.533-.037-.8-.037-.053-.049-.16-.049-.215-.143a.624.624,0,0,1-.592-.145c-.162,0-.27-.145-.43-.192v-.094l-.109-.1c0-.143.162-.143.269-.191.108-.143.4-.109.506-.253,0-.049.145-.141.145-.189.052-.1.09-.186.145-.186.162-.1.055-.208.272-.255,0-.049.169-.165.114-.214.215-.143.21-.225.266-.512.106-.142.266-.3.266-.491.053-.047-.013-.255.1-.3.052-.332-.085-.511-.085-.844l-.108-.1c0-.145-.108-.239-.054-.382-.16-.145-.121-.19-.283-.332l-.094-.1h-.108c-.053-.1-.215-.143-.215-.241a3.552,3.552,0,0,1-.643-.287l-.056.049-.054-.049-.108.1c0-.146-.161,0-.214-.1-.109,0-.217-.049-.323.049-.323-.1-.672.071-1-.071,0,.1-.215-.049-.215.1-.108.047-.265.044-.317.088h-.162a.834.834,0,0,1-.619.312c-.108,0,0,.142-.108.142H135.5a5.378,5.378,0,0,1-.807.718c0,.049-.109.094-.053.19,0,.049-.056.049-.109.049a.243.243,0,0,1-.106.19c0,.048,0,.1.054.1,0,.048-.083.169-.135.169-.054.19-.054.383-.216.478,0,.382-.112.566-.137.987a5.4,5.4,0,0,1,.056.758c.168.1-.042.1.07.245.056,0,.027.086.027.136.054.1.234.172.176.273,0,.049.094.094.15.094.057.1-.083.21.03.26,0,.049.179.011.122.109Zm3.509-3.113c-.109.051,0,.152-.109.2l.055.049a1.976,1.976,0,0,1-.871,1.364c-.054,0-.109,0-.109-.05,0-.1-.111-.253-.054-.354,0-.049-.057-.049-.111-.049.111-.1-.073-.2-.016-.355-.057,0-.057-.049-.057-.1.164-.1.031-.361.2-.461l-.054-.052a1.568,1.568,0,0,1,.246-.359v-.1a2.144,2.144,0,0,1,.775-.388c.055,0,.109,0,.109.047.163.207.055.406,0,.608Z"/>
          <path id="패스_167" data-name="패스 167" class="cls-6" d="M147.585,104.367c.006.067.014.133.021.2.368.358.3.966.541,1.4-.116.152-.034.339-.085.48l.145.114c-.1.346.135.651.1.99-.061.074-.061.074-.119.148.006.065.015.132.08.124l-.059.073.072.059-.059.075c.065-.011.073.056.079.125-.117.145.1.32-.084.475a.238.238,0,0,1,.085.191c-.183.156-.071.44-.2.645l.067.063-.064.071-.068-.064c-.066,0-.063.07-.061.135.067.129.2.254.075.395l.067.061a.841.841,0,0,0-.31.506l-.121.133a.223.223,0,0,1,.067.187c-.12.133-.18.263-.3.4,0,.063.067.187-.056.256l.064.061c-.061.131-.117.322-.175.455.062,0,.062.059.062.121-.181.137-.39.282-.323.533-.118.2-.271.262-.391.46.066.121-.215.181-.212.307s-.183.075-.118.2l.062.061a.7.7,0,0,0-.121.007.3.3,0,0,1-.181.2c0,.063,0,.129-.06.13a2.2,2.2,0,0,0-.281.315c.063.061-.2.193-.138.2a.352.352,0,0,0-.146.245c-.06,0-.123,0-.129.056v.083c-.043.044-.055.044-.145.063-.48.549-1.181.764-1.663,1.308-.128.061-.256.116-.385.174s-.087.248-.2.178c0-.062-.165.055-.227.053-.135.121-.336.032-.46.024,0-.061-.068-.048-.124-.113l-.068.059c-.054-.068-.194-.2-.255-.2-.055-.063.066-.131,0-.134l.07-.061c.006-.061-.1-.077-.159-.08-.11-.133.126-.032.076-.165l-.241-.019c-.056-.125-.174-.128-.224-.258.011-.123.281-.121.293-.25.122.008.086-.011.217-.071l-.046-.089c.131-.061.111-.167.171-.166,0,.064.048-.009.108-.006s.123.006.13-.056a.245.245,0,0,1,.078-.188c.061.006.061.006.123.008a2.514,2.514,0,0,0,.372-.386.489.489,0,0,1,.011-.126c.066-.059.078-.186.208-.243-.006.064-.015.126.05.13.194-.118.077-.187.028-.315.068-.063.068-.063.135-.12-.006.063.1.014.042.011-.006.063.064-.146.126-.144.151-.234.04.042.267-.391.047-.047.163-.092.173-.123-.013-.006.145-.061.089-.127-.008-.051.016-.072-.114-.013.073-.123.289-.31.3-.437.18.073.037-.212.159-.206-.066.059-.128-.062-.126,0l.2-.006c.137-.12-.189-.114-.067-.25,0-.061-.02-.1-.08-.094,0-.063-.018-.116.044-.118l.063.06c.059-.066-.058-.28.063-.35v-.192c.183-.135.1-.113.157-.307l-.062-.059c0,.063.132-.059.071-.056v-.13c.121-.069.206-.49.2-.618,0,.128-.143-.29-.019-.233.178-.265.057-.617.085-.94-.129-.047.1-.14.028-.257-.061.006-.121.014-.129-.049.055-.071.055-.071.108-.144-.006-.061-.012-.125-.073-.116-.006-.063-.011-.128.049-.135-.008-.063-.013-.126-.075-.119l.109-.142c-.006-.062-.066-.056-.128-.047.037-.262-.226-.451-.131-.717-.059.006-.066-.056-.073-.121.164-.212-.059-.467.043-.672-.128-.048-.079-.183-.093-.31.055-.069-.1-.133-.109-.195a4.483,4.483,0,0,1-.21-.861c-.121.109-.209-.884-.315-1.269-.159-.248-.052-.528-.147-.784.066-.008.132-.016.127-.082-.087-.19.1-.281.149-.486.132-.016.255-.1.4.016.125-.081.047-.2.04-.271.262-.031.46-.059.724-.091.006.066.012.133.078.124.2-.025.277.1.473.073.008.068.013.133.079.126a.326.326,0,0,1,.277.1c.066-.009.132-.018.124-.082l.073.054.06-.072a.224.224,0,0,0,.2.04c.073.06.092.256.218.176a15.764,15.764,0,0,1,.954,1.409Z"/>
          <g id="그룹_211" data-name="그룹 211">
            <path id="패스_168" data-name="패스 168" class="cls-6" d="M118.58,105.546c-.021-.107-.174-.138-.236-.139s-.183.132-.245.027a1.027,1.027,0,0,1-.231.26.37.37,0,0,1-.216.052c-.031.162-.049.18.092.558.065.012.132.374.2.391-.03-.139.187.3.257.361l.09.023c.044.012.023.053,0,.091l.2.14c.02.053.063.068.016.144a1.088,1.088,0,0,1,.373.157c.044.018.017.054-.009.092.042.018.083.037.11,0,.109,0,.03.111.047.164l.067-.018c.016.055.1.092.1.092.132.2.773.443.933.624l.063-.031c.05.1.332.123.332.26l.059-.037c.03.049.454.13.571.193.059-.037-.025-.1.04-.131.07.059.217.193.284.255a2.5,2.5,0,0,1,.314.044c.164.174.5.066.7.157a.142.142,0,0,0,.112.073l.063-.032.025.05c.126-.064.193,0,.277-.074l.025.052.062-.034c.025.052.025.052.049.105.176.038.334.119.523.024a.137.137,0,0,0,.111.071c.063-.033.063-.033.128-.062.131.028.154.08.307.068l.023.051a.638.638,0,0,1,.5-.027c.038-.082.132.031.169-.054l.025.052c.145-.106.37-.051.521-.056l.023.052c.065-.03.039,0,.039,0,.127-.059.436-.063.519-.133a.68.68,0,0,0,.407.047c.049.011.147.033.193.047a.463.463,0,0,1,.53-.028,3.075,3.075,0,0,0,.667-.277l.145.042c.073-.027.121-.011.17-.091a2.259,2.259,0,0,0,.566-.28c.022.054.144-.047.167,0l.049-.078c.1.029.167-.091.264-.062.025-.038.025-.038.049-.078.146-.049.088-.087.233-.136.124-.085.3-.375.581-.5-.007-.094.18-.145.221-.226.022-.041.071-.031.119-.021l-.028-.051c.068-.031.049-.167.114-.107.018-.042.1-.15.06-.157.138-.108.136-.461.339-.5.019-.044.019-.044.035-.083.082-.108.05-.309.1-.336.016-.04-.006-.07.037-.059.052-.162.09-.408.138-.628-.042-.008-.023-.049,0-.092.04.009.057-.032.077-.073-.041-.009-.023-.052-.006-.093l.059-.032c-.083-.019.011-.132-.073-.15l.058-.034c-.071-.2.032-.4-.038-.6l.054-.032a.261.261,0,0,1,0-.349.153.153,0,0,1,0-.136c-.111-.07.025-.145-.044-.207.039-.124-.1-.248-.016-.366-.054-.1-.066-.147-.126-.247l.036-.131c-.041-.008-.085-.018-.074-.061.066-.078-.007-.136.018-.223-.085-.015-.04-.089-.068-.138a1.222,1.222,0,0,0-.226-.6c.058-.085-.06-.421-.054-.528l-.083-.043a.368.368,0,0,0-.156-.22.531.531,0,0,1,.007-.106c-.042,0-.085,0-.08-.058v-.106l-.047.05a.308.308,0,0,1-.107-.27c-.155-.219-.214-.377-.436-.7-.087.054,0-.164-.109-.115a1.208,1.208,0,0,0-.374-.5c.006-.052.006-.052.01-.107h-.1c-.052,0-.043-.054-.037-.106-.277-.17-1.262-.308-1.412-.579-.087,0-.169-.06-.22.047l-.078-.11c-.231.152-.424-.121-.636-.181l-.047.05c-.075-.16-.217-.006-.3-.006a.129.129,0,0,0-.123-.059c-.226.1-.433-.013-.628.249l-.039-.056.49.915a3.948,3.948,0,0,0,.257.906c.044.008.1.111.132.171-.012.049-.012.049-.022.1.065.119.13.237.2.358-.044-.011-.055.038-.067.09.053.168.052.35.1.514.069.061-.011.1.064.175.008.007-.046.106-.035.111a.265.265,0,0,0,.021.183c.025.183.016.037.143.168-.118.14.08.37-.037.508.062.066.064-.027.085.025-.021.037-.021.037-.041.075s.019.053.061.07c.041.1-.033.162.021.262.041.01,0,.137.044.145.013.093.129.121.018.186-.041-.011-.018.176-.06.3a.8.8,0,0,1-.013.3c.042.01.071-.041.055,0l-.028.082c.042.008.037.085.021.125,0,.133-.085.2-.129.322-.048.266.09.483-.09.578.064.059-.016.129-.034.172-.06.028-.044.158-.1.19-.067.164-.1.155-.167.317-.111.063-.128.134-.237.2-.018.04-.018.04-.035.08s-.055.031-.092.023c-.072.073-.321.188-.356.266l.023.052a1.748,1.748,0,0,0-.358.168c-.163.1-.284.1-.454.186-.149-.042-.274.068-.424.025-.057.031-.114.062-.171.087-.075-.02-.187.038-.243-.022-.074-.018-.059.118-.132.1l-.073-.021-.018-.05c-.114.06-.2-.012-.319.046l-.018-.047c-.114.057-.208-.007-.279.066a.9.9,0,0,0-.47-.054c.016-.042-.02-.049-.06-.055l-.054.035c.017-.042-.32-.018-.357-.022l-.077-.015-.023-.049-.054.033c-.061-.054-.463-.1-.559-.2-.076.072-.15.04-.237.023a4.031,4.031,0,0,1-.842-.191l-.027-.053a.334.334,0,0,1-.386-.1c-.044-.01-.105-.015-.148-.028-.047-.106-.33-.086-.366-.192a1.364,1.364,0,0,1-.2-.171c-.093.056-.327-.222-.37-.241l-.156-.006-.056-.168-.209-.157C118.694,105.555,118.608,105.679,118.58,105.546Z"/>
            <path id="패스_169" data-name="패스 169" class="cls-6" d="M121.879,99.452a1.209,1.209,0,0,1,.172.008c.279.285.827.2,1.19.385.145-.105.3-.043.435-.091l.087.115c.319-.1.49.064.794.042.075-.047.075-.047.15-.1.057.006.113.016.1.068l.075-.048.04.06.075-.046c-.018.054.039.061.1.064.146-.092.237.033.406-.107a.183.183,0,0,0,.152.08c.169-.141.229.007.436-.06l.035.063.075-.041-.032-.064c.019-.052.075-.039.131-.027.091.077.154.193.31.121l.031.063c.1-.068-.656-.1.52-.14l.15-.068a.18.18,0,0,0,.135.092c.15-.068.277-.088.427-.154.053.013.135.09.232.009l.03.061c.129-.017.308-.024.434-.042-.02.048-.085-.066-.035-.044.181-.092.377-.2.545-.064.2-.023.289-.123.492-.138.065.1.229-.092.325-.04s.1-.086.161.011l.017.068c.03-.04.03-.04.06-.085a.272.272,0,0,0,.229-.049c.047.027.093.056.123.013a2.191,2.191,0,0,1,.36-.078c.018.073.127-.034.1.011a.3.3,0,0,1,.246.02c.028-.042.059-.085.106-.059l.054.042c.054-.008.059-.016.121-.066.628-.056.978-.363,1.6-.363l.328-.147c.109-.05.207.083.228-.029-.043-.03.128-.074.162-.114.153-.016.248-.281.31-.367-.045-.03,0-.068-.011-.143l.075-.012a1.284,1.284,0,0,1,0-.416c-.014-.071-.123-.025-.093-.068l-.027-.05c-.044-.03.013-.107.044-.148-.03-.145-.162.019-.224-.085l.114-.169c-.052-.1-.284-.163-.374-.224-.062.087-.057.052-.164.106l-.037-.08c-.108.058-.171-.011-.2.029.045.029-.03.025-.059.066s-.063.086-.109.054a.218.218,0,0,0-.166-.045c-.031.044-.031.044-.061.083a2.426,2.426,0,0,1-1.057-.025l-.15.037c.049.025-.04.081-.011.036.047.026-.138-.025-.166.021-.243,0-.775.052-.672-.01-.123-.006-.363.059-.457.009-.036.157-.207-.089-.259,0,.075-.021-.1-.031-.046-.009l.006.063c-.152.046-.16-.1-.311-.041-.051-.022-.073-.047-.049-.091-.051-.019-.086-.049-.11,0l.024.065c-.075.028-.2-.126-.3-.055l-.151-.061a1.227,1.227,0,0,1-.54.108l-.035-.06c.052.011-.087.1-.068.045-.052-.012-.052-.012-.106-.022a1.03,1.03,0,0,1-.58.059c.107.025-.215-.184-.2-.076-.269.1-.578-.052-.864-.055-.018-.11-.138.072-.229,0,.018-.051.035-.1-.018-.11-.071.04-.123.023-.195.066-.054-.006-.11-.013-.092-.063-.055-.006-.111-.013-.126.035-.054-.007-.109-.015-.093-.063-.07.04-.142.1-.21.14-.054,0-.04-.056-.027-.106-.235.034-.368-.178-.616-.1.013-.047-.04-.052-.1-.058-.206.137-.5-.012-.689.085-.032-.1-.157-.052-.267-.054-.067.048-.111-.076-.165-.078a4.065,4.065,0,0,0-.748-.114c.106-.106-.768-.11-1.1-.169-.209-.114-.466-.008-.685-.067-.013.054-.025.109-.082.108-.162-.057-.258.105-.444.157-.024.108-.143.16-.111.254-.081.107-.092.126-.15.124-.049.218-.087.2-.142.41.058.006.116.007.1.061-.043.16.058.222.015.384.057,0,.116.006.1.061a.229.229,0,0,0,.059.222c-.014.054-.028.108-.085.105l.042.056-.071.051a.164.164,0,0,1,.015.164c.044.056.217.066.132.171a11.5,11.5,0,0,0,1.154.727Z"/>
          </g>
        </g>
      </g>
      <path id="패스_170" data-name="패스 170" class="cls-4" d="M212.365,159.674s-16.711.7-13.23-23.674C199.135,136,216.542,145.748,212.365,159.674Z"/>
      <path id="패스_171" data-name="패스 171" class="cls-4" d="M211.9,157.224s11.207,9.585,22.067-9.208C233.962,148.016,216.584,145.293,211.9,157.224Z"/>
      <path id="패스_172" data-name="패스 172" class="cls-4" d="M211.625,157s-3,17-7,20"/>
      <rect id="사각형_123" data-name="사각형 123" class="cls-7" width="62" height="5" rx="2.5" transform="translate(109.625 128)"/>
      <rect id="사각형_124" data-name="사각형 124" class="cls-7" width="62" height="5" rx="2.5" transform="translate(109.625 138)"/>
      <rect id="사각형_125" data-name="사각형 125" class="cls-7" width="62" height="5" rx="2.5" transform="translate(109.625 148)"/>
      <g id="그룹_218" data-name="그룹 218">
        <g id="그룹_214" data-name="그룹 214">
          <path id="패스_173" data-name="패스 173" class="cls-8" d="M87.883,36.622c6.359-21.438,23.5-10.108,29.526-14.048C112.182,47.766,87.628,37.98,87.628,37.98Z"/>
        </g>
        <path id="패스_174" data-name="패스 174" class="cls-9" d="M104.7,35.186a12.87,12.87,0,0,1-7.02-1.236c4.718-1.186,9.364-3.893,13.373-6.085.064-.032,0-.136-.058-.111-2.714,1.321-5.451,2.558-8.258,3.659-.131.053-.265.093-.4.146a10.376,10.376,0,0,1,3.746-4.752c.043-.028,0-.081-.044-.064a9.161,9.161,0,0,0-4.335,5.036c0,.006,0,.007,0,.014-2.842.989-5.746,1.557-8.633,2.432-.195.055-.1.33.074.323a17.3,17.3,0,0,0,3.682-.409,10.92,10.92,0,0,0,7.887,1.158.056.056,0,0,0-.014-.111Z"/>
        <g id="그룹_215" data-name="그룹 215">
          <path id="패스_175" data-name="패스 175" class="cls-8" d="M152.957,26.809c11.8,19,25.33,3.544,32.187,5.751-11.694-22.917-32.792-6.995-32.792-6.995Z"/>
        </g>
        <path id="패스_176" data-name="패스 176" class="cls-9" d="M169.557,23.753a12.868,12.868,0,0,0-6.445,3.047c4.864-.1,10.06,1.282,14.505,2.337.07.014.039.13-.027.123-2.967-.557-5.933-1.028-8.931-1.349-.141-.016-.28-.02-.42-.036a10.374,10.374,0,0,0,4.868,3.594c.049.016.018.08-.026.074a9.159,9.159,0,0,1-5.511-3.712c0-.006,0-.006-.005-.013-3-.2-5.953.016-8.969-.066-.2,0-.185-.29-.014-.331a17.306,17.306,0,0,1,3.66-.578,10.921,10.921,0,0,1,7.3-3.2.056.056,0,0,1,.015.11Z"/>
        <g id="그룹_216" data-name="그룹 216">
          <path id="패스_177" data-name="패스 177" class="cls-8" d="M55.008,50.846c24.4,2.677,20.215-19.482,26.769-23.911C54.058,21.52,53.528,50.527,53.528,50.527Z"/>
        </g>
        <path id="패스_178" data-name="패스 178" class="cls-9" d="M59,45.273a19.412,19.412,0,0,1,6.021-7.626,4.056,4.056,0,0,1-.12-2.114,8.139,8.139,0,0,1,.979-2.559c.014-.025.056-.008.047.026a8.422,8.422,0,0,0-.566,2.4,5.565,5.565,0,0,0,.034,1.382c.026.182.071.345.108.512a26.472,26.472,0,0,1,8.474-4.148c.075-.019.12.093.045.118a22.509,22.509,0,0,0-12.047,9.584,12.115,12.115,0,0,0,8.045-.331c.043-.019.068.046.027.066a9.885,9.885,0,0,1-8.345.7c-.5.81-.974,1.651-1.421,2.547A.7.7,0,0,1,59,45.273Z"/>
        <g id="그룹_217" data-name="그룹 217">
          <path id="패스_179" data-name="패스 179" class="cls-8" d="M118.967,38.6c8.618,22.985,26.507,9.253,33.415,13.1-7.671-27.182-33.8-14.569-33.8-14.569Z"/>
        </g>
        <path id="패스_180" data-name="패스 180" class="cls-9" d="M125.742,39.646a19.414,19.414,0,0,1,9.522,1.934,4.056,4.056,0,0,1,1.833-1.061,8.141,8.141,0,0,1,2.726-.281c.028,0,.033.046,0,.054a8.441,8.441,0,0,0-2.4.576,5.589,5.589,0,0,0-1.218.654c-.15.105-.275.219-.408.327a26.47,26.47,0,0,1,7.525,5.692c.051.059-.029.149-.084.093a22.509,22.509,0,0,0-13.988-6.428,12.112,12.112,0,0,0,3.925,7.031c.036.031-.01.082-.047.054a9.884,9.884,0,0,1-4.389-7.131c-.947-.077-1.913-.124-2.914-.119a.7.7,0,0,1-.088-1.4Z"/>
      </g>
    </g>
  </g>
</svg>
