<svg xmlns="http://www.w3.org/2000/svg" xmlns:xlink="http://www.w3.org/1999/xlink" viewBox="0 0 280 280">
  <defs>
    <style>
      .cls-1 {
        clip-path: url(#clip-path);
      }

      .cls-2, .cls-4 {
        fill: #ff7f00;
      }

      .cls-3 {
        clip-path: url(#clip-path-2);
      }

      .cls-4 {
        stroke: #fc9c5b;
        stroke-miterlimit: 10;
        stroke-width: 2px;
      }

      .cls-5 {
        fill: #fc9c5b;
      }

      .cls-6 {
        fill: #c6c6c6;
      }

      .cls-7 {
        fill: #d3d3d3;
      }

      .cls-8 {
        fill: #f2f2f2;
      }

      .cls-9 {
        fill: #fff;
      }

      .cls-10 {
        clip-path: url(#clip-path-8);
      }

      .cls-11 {
        fill: #feb325;
      }

      .cls-12 {
        fill: #596f19;
      }

      .cls-13 {
        fill: #bbba84;
      }

      .cls-14 {
        fill: #f90;
      }

      .cls-15 {
        fill: #ed9b18;
      }
    </style>
    <clipPath id="clip-path">
      <rect id="사각형_211" data-name="사각형 211" width="280" height="280"/>
    </clipPath>
    <clipPath id="clip-path-2">
      <rect id="사각형_212" data-name="사각형 212" width="280" height="280" transform="translate(124.56)"/>
    </clipPath>
    <clipPath id="clip-path-8">
      <path id="패스_719" data-name="패스 719" d="M267.61,61l-66.88,52.55,56.43,24.85,12.06-3.09,56.43-14.44Z"/>
    </clipPath>
  </defs>
  <g id="그룹_491" data-name="그룹 491" transform="translate(-124.56)">
    <g id="그룹_465" data-name="그룹 465" class="cls-1" transform="translate(124.56)">
      <rect id="사각형_210" data-name="사각형 210" class="cls-2" width="280" height="280"/>
    </g>
    <g id="그룹_466" data-name="그룹 466" class="cls-3">
      <path id="패스_528" data-name="패스 528" class="cls-4" d="M1,96s52.9,63.97,244.78,61.6,264.56-81.46,357.83-40.28V301H1Z"/>
    </g>
    <g id="그룹_471" data-name="그룹 471" class="cls-3">
      <g id="그룹_467" data-name="그룹 467">
        <path id="패스_529" data-name="패스 529" class="cls-5" d="M186.33,97.96s-2.39,6.51-10.39,3.1C175.94,101.06,180.92,93.7,186.33,97.96Z"/>
        <path id="패스_530" data-name="패스 530" class="cls-5" d="M166.2,113.75s-3.63-5.9,3.99-10.08C170.19,103.67,172.89,112.14,166.2,113.75Z"/>
        <path id="패스_531" data-name="패스 531" class="cls-5" d="M186.55,99.93s6.24,3.03,2.04,10.64C188.59,110.57,181.77,104.88,186.55,99.93Z"/>
        <path id="패스_532" data-name="패스 532" class="cls-5" d="M186.22,100.59s6.23,3.03,2.04,10.64C188.26,111.24,181.44,105.55,186.22,100.59Z"/>
        <path id="패스_533" data-name="패스 533" class="cls-5" d="M189.42,112.13s6.18-3.98,10.76,4.02C200.18,116.15,191.27,119.19,189.42,112.13Z"/>
        <path id="패스_534" data-name="패스 534" class="cls-5" d="M144.47,107.56s-3.34,5.76-10.34,1.21C134.13,108.76,140.06,102.63,144.47,107.56Z"/>
        <path id="패스_535" data-name="패스 535" class="cls-5" d="M196.15,109.82s4.45-4.95,10.37.94C206.52,110.76,199.46,115.55,196.15,109.82Z"/>
        <path id="패스_536" data-name="패스 536" class="cls-5" d="M152.76,114.23s-2.19,6.43-10.1,3.27C142.66,117.5,147.36,110.18,152.76,114.23Z"/>
        <path id="패스_537" data-name="패스 537" class="cls-5" d="M144.88,111.67s-.9,5.66-7.92,4.17C136.96,115.84,139.82,109.08,144.88,111.67Z"/>
        <path id="패스_538" data-name="패스 538" class="cls-5" d="M194.06,101.64s4.35-5.4,10.83.39C204.9,102.04,197.82,107.41,194.06,101.64Z"/>
        <path id="패스_539" data-name="패스 539" class="cls-5" d="M190.65,101.74s5.45-1.15,6.54,5.75C197.19,107.49,190.06,107.24,190.65,101.74Z"/>
        <path id="패스_540" data-name="패스 540" class="cls-5" d="M153.51,103.14s1.43,6.78-7.15,8.14C146.36,111.28,146.67,102.4,153.51,103.14Z"/>
        <path id="패스_541" data-name="패스 541" class="cls-5" d="M153.84,103.14s1.43,6.78-7.15,8.14C146.69,111.28,147,102.4,153.84,103.14Z"/>
      </g>
      <g id="그룹_469" data-name="그룹 469">
        <path id="패스_542" data-name="패스 542" class="cls-5" d="M174,106.21s-6.53-2.32-3.21-10.35C170.79,95.86,178.2,100.76,174,106.21Z"/>
        <g id="그룹_468" data-name="그룹 468">
          <path id="패스_543" data-name="패스 543" class="cls-5" d="M194.16,92.72s5.34-4.64,10.53,2.66C204.68,95.38,196.68,99.43,194.16,92.72Z"/>
          <path id="패스_544" data-name="패스 544" class="cls-5" d="M144.49,96.96s-2.94,6.59-11,2.5C133.5,99.46,139.18,92.17,144.49,96.96Z"/>
          <path id="패스_545" data-name="패스 545" class="cls-5" d="M141.22,103.91s.88-6.88,9.43-5.34C150.65,98.57,147.44,106.86,141.22,103.91Z"/>
          <path id="패스_546" data-name="패스 546" class="cls-5" d="M158.18,96.74s3.08-6.21,10.66-1.97C168.84,94.77,163.1,101.55,158.18,96.74Z"/>
          <path id="패스_547" data-name="패스 547" class="cls-5" d="M180.42,93.96s1.48-6.77,9.86-4.5C190.28,89.46,186.37,97.44,180.42,93.96Z"/>
          <path id="패스_548" data-name="패스 548" class="cls-5" d="M187.11,95.32s5.87-3.68,10.1,3.91C197.21,99.23,188.77,102,187.11,95.32Z"/>
          <path id="패스_549" data-name="패스 549" class="cls-5" d="M178.09,88.42s4.2,5.52-2.98,10.42C175.11,98.84,171.59,90.68,178.09,88.42Z"/>
          <path id="패스_550" data-name="패스 550" class="cls-5" d="M157.59,104.34s-6.68-1.84-3.95-10.09C153.64,94.25,161.39,98.6,157.59,104.34Z"/>
          <path id="패스_551" data-name="패스 551" class="cls-5" d="M151.4,93.61s-5.6,4.08-10.36-3.2C141.05,90.42,149.28,87.07,151.4,93.61Z"/>
          <path id="패스_552" data-name="패스 552" class="cls-5" d="M160.44,92.28s-5.6,4.08-10.35-3.19C150.09,89.09,158.32,85.74,160.44,92.28Z"/>
          <path id="패스_553" data-name="패스 553" class="cls-5" d="M160.22,105.18s-.09-6.93,8.6-6.6C168.82,98.58,166.79,107.23,160.22,105.18Z"/>
          <path id="패스_554" data-name="패스 554" class="cls-5" d="M140.92,91.34s-3.62,4.97-9.61.12C131.31,91.46,137.34,86.39,140.92,91.34Z"/>
          <path id="패스_555" data-name="패스 555" class="cls-5" d="M170.03,94.08s-3.79-5.81,3.72-10.18C173.75,83.9,176.67,92.29,170.03,94.08Z"/>
          <path id="패스_556" data-name="패스 556" class="cls-5" d="M159.86,85.29s6.74-1.63,8.35,6.91C168.21,92.2,159.32,92.15,159.86,85.29Z"/>
        </g>
      </g>
      <g id="그룹_470" data-name="그룹 470">
        <path id="패스_557" data-name="패스 557" class="cls-5" d="M171.08,77.46s-4.49-5.42,2.58-10.69C173.66,66.77,177.58,74.89,171.08,77.46Z"/>
        <path id="패스_558" data-name="패스 558" class="cls-5" d="M163.36,78.5s.04,6.93-8.65,6.54C154.72,85.04,156.81,76.41,163.36,78.5Z"/>
        <path id="패스_559" data-name="패스 559" class="cls-5" d="M154.61,80.08s-6.36,2.75-9.4-5.4C145.21,74.68,153.98,73.22,154.61,80.08Z"/>
        <path id="패스_560" data-name="패스 560" class="cls-5" d="M193.23,76.16s-3.28,6.1-10.72,1.6C182.52,77.75,188.48,71.17,193.23,76.16Z"/>
        <path id="패스_561" data-name="패스 561" class="cls-5" d="M157.5,78.16s-7.06-1.5-4.73-10.24C152.77,67.92,161.08,71.96,157.5,78.16Z"/>
        <path id="패스_562" data-name="패스 562" class="cls-5" d="M178.18,78.51s-2.95-6.28,5.1-9.56C183.28,68.95,185.01,77.67,178.18,78.51Z"/>
        <path id="패스_563" data-name="패스 563" class="cls-5" d="M180.49,87.81s-6.81-1.27-4.78-9.73C175.71,78.08,183.79,81.77,180.49,87.81Z"/>
        <path id="패스_564" data-name="패스 564" class="cls-5" d="M164.72,85.58s-.08-6.93,8.61-6.59C173.33,78.99,171.29,87.64,164.72,85.58Z"/>
        <path id="패스_565" data-name="패스 565" class="cls-5" d="M182.68,85.7s1.28-6.81,9.73-4.78C192.41,80.92,188.72,89,182.68,85.7Z"/>
        <path id="패스_566" data-name="패스 566" class="cls-5" d="M167.3,77.99s-6.93-.3-6.11-8.95C161.19,69.04,169.71,71.55,167.3,77.99Z"/>
        <path id="패스_567" data-name="패스 567" class="cls-5" d="M169.56,70.19s-6.75,1.52-8.22-7.02C161.33,63.17,170.19,63.35,169.56,70.19Z"/>
        <path id="패스_568" data-name="패스 568" class="cls-5" d="M148.24,81.05s-4.31,4.31-9.42-1.36C138.82,79.69,145.5,75.66,148.24,81.05Z"/>
        <path id="패스_569" data-name="패스 569" class="cls-5" d="M177.88,71.25s-5.96-3.55-1.14-10.78C176.75,60.47,183.07,66.71,177.88,71.25Z"/>
        <path id="패스_570" data-name="패스 570" class="cls-5" d="M187.74,70.7s2.47-6.48,10.42-2.97C198.16,67.73,193.1,75.03,187.74,70.7Z"/>
        <path id="패스_571" data-name="패스 571" class="cls-5" d="M197.53,81.79s2.43,6.49-5.85,9.12C191.68,90.91,190.66,82.09,197.53,81.79Z"/>
        <path id="패스_572" data-name="패스 572" class="cls-5" d="M152.1,84.59s-2.62,6.42-10.49,2.72C141.61,87.31,146.85,80.14,152.1,84.59Z"/>
        <path id="패스_573" data-name="패스 573" class="cls-5" d="M195.77,78.74s.12-6.93,8.79-6.34C204.56,72.4,202.28,80.98,195.77,78.74Z"/>
        <path id="패스_574" data-name="패스 574" class="cls-5" d="M199.44,85.48s6.48-2.47,9.15,5.8C208.59,91.28,199.77,92.36,199.44,85.48Z"/>
        <path id="패스_575" data-name="패스 575" class="cls-5" d="M185.27,67.29s-1.5-7.89,8.48-9.27C193.74,58.02,193.18,68.31,185.27,67.29Z"/>
        <path id="패스_576" data-name="패스 576" class="cls-5" d="M169.88,64.53s-3.48-5.99,4.24-9.97C174.13,54.56,176.62,63.09,169.88,64.53Z"/>
        <path id="패스_577" data-name="패스 577" class="cls-5" d="M158.66,69.86s-6.63-2.02-3.68-10.19C154.98,59.67,162.61,64.22,158.66,69.86Z"/>
        <path id="패스_578" data-name="패스 578" class="cls-5" d="M148.34,73.15s-5.35-4.41.52-10.82C148.86,62.33,154.15,69.46,148.34,73.15Z"/>
        <path id="패스_579" data-name="패스 579" class="cls-5" d="M140.43,86.54s-6.01,3.45-9.95-4.29C130.47,82.24,139.02,79.8,140.43,86.54Z"/>
        <path id="패스_580" data-name="패스 580" class="cls-5" d="M144.52,76.62s-6.14,3.99-10.75-3.95C133.78,72.67,142.64,69.59,144.52,76.62Z"/>
        <path id="패스_581" data-name="패스 581" class="cls-5" d="M144.23,73.28s-5.79-.98-4.19-8.17C140.04,65.12,146.94,68.12,144.23,73.28Z"/>
        <path id="패스_582" data-name="패스 582" class="cls-5" d="M164.49,61.47s5.67-1.52,3.41-8.53C167.9,52.94,161.31,56.58,164.49,61.47Z"/>
        <path id="패스_583" data-name="패스 583" class="cls-5" d="M198.71,81.1s3.51,4.71,9.18.01C207.89,81.11,202.07,76.33,198.71,81.1Z"/>
        <path id="패스_584" data-name="패스 584" class="cls-5" d="M182.47,65.44s5.27-2.59,1.7-9.03C184.16,56.41,178.4,61.26,182.47,65.44Z"/>
        <path id="패스_585" data-name="패스 585" class="cls-5" d="M161.33,61.81s4.76-6.25-3.37-11.81C157.96,50,153.97,59.24,161.33,61.81Z"/>
      </g>
      <path id="패스_586" data-name="패스 586" class="cls-5" d="M186.39,114.51c-.66,7.7-12.93,6.87-12.93,6.87a27.632,27.632,0,0,0,8.76-11.72l-1.56-.37c-1.72,4.44-3.41,5.39-3.41,5.39l.17-6.01-1.81-.02.06,6.86s-1.36,4.68-6.18,5.36-6.52-11.48-6.52-11.48l-1.68.11a17.076,17.076,0,0,0,1.6,8.16c-1.18-.52-4.77-2.39-5.34-5.9l-.61.36s-.27,5.02,6.61,6.79a11.622,11.622,0,0,0,1.98,2.55c-9.97-1.28-11.14-5.63-11.14-5.63l-1.21.95c4.99,7.38,13.9,7.09,13.9,7.09.71,1.09,1.02,7.22.62,12.88s-.17,20.81-.17,20.81l4.33.04c.63-3.48-.49-13.96-1.17-18.42s-.03-11.19-.01-13.24a2.746,2.746,0,0,1,1.47-2.63c14.79.73,15.59-8.77,15.59-8.77Z"/>
    </g>
    <g id="그룹_476" data-name="그룹 476" class="cls-3">
      <g id="그룹_472" data-name="그룹 472">
        <path id="패스_587" data-name="패스 587" class="cls-5" d="M286.33,106.96s-2.39,6.51-10.39,3.1C275.94,110.06,280.92,102.7,286.33,106.96Z"/>
        <path id="패스_588" data-name="패스 588" class="cls-5" d="M266.2,122.75s-3.63-5.9,3.99-10.08C270.19,112.67,272.89,121.14,266.2,122.75Z"/>
        <path id="패스_589" data-name="패스 589" class="cls-5" d="M286.55,108.93s6.24,3.03,2.04,10.64C288.59,119.57,281.77,113.88,286.55,108.93Z"/>
        <path id="패스_590" data-name="패스 590" class="cls-5" d="M286.22,109.59s6.23,3.03,2.04,10.64C288.26,120.24,281.44,114.55,286.22,109.59Z"/>
        <path id="패스_591" data-name="패스 591" class="cls-5" d="M289.42,121.13s6.18-3.98,10.76,4.02C300.18,125.15,291.27,128.19,289.42,121.13Z"/>
        <path id="패스_592" data-name="패스 592" class="cls-5" d="M244.47,116.56s-3.34,5.76-10.34,1.21C234.13,117.76,240.06,111.63,244.47,116.56Z"/>
        <path id="패스_593" data-name="패스 593" class="cls-5" d="M296.15,118.82s4.45-4.95,10.37.94C306.52,119.76,299.46,124.55,296.15,118.82Z"/>
        <path id="패스_594" data-name="패스 594" class="cls-5" d="M252.76,123.23s-2.19,6.43-10.1,3.27C242.66,126.5,247.36,119.18,252.76,123.23Z"/>
        <path id="패스_595" data-name="패스 595" class="cls-5" d="M244.88,120.67s-.9,5.66-7.92,4.17C236.96,124.84,239.82,118.08,244.88,120.67Z"/>
        <path id="패스_596" data-name="패스 596" class="cls-5" d="M294.06,110.64s4.35-5.4,10.83.39C304.9,111.04,297.82,116.41,294.06,110.64Z"/>
        <path id="패스_597" data-name="패스 597" class="cls-5" d="M290.65,110.74s5.45-1.15,6.54,5.75C297.19,116.49,290.06,116.24,290.65,110.74Z"/>
        <path id="패스_598" data-name="패스 598" class="cls-5" d="M253.51,112.14s1.43,6.78-7.15,8.14C246.36,120.28,246.67,111.4,253.51,112.14Z"/>
        <path id="패스_599" data-name="패스 599" class="cls-5" d="M253.84,112.14s1.43,6.78-7.15,8.14C246.69,120.28,247,111.4,253.84,112.14Z"/>
      </g>
      <g id="그룹_474" data-name="그룹 474">
        <path id="패스_600" data-name="패스 600" class="cls-5" d="M274,115.21s-6.53-2.32-3.21-10.35C270.79,104.86,278.2,109.76,274,115.21Z"/>
        <g id="그룹_473" data-name="그룹 473">
          <path id="패스_601" data-name="패스 601" class="cls-5" d="M294.16,101.72s5.34-4.64,10.53,2.66C304.68,104.38,296.68,108.43,294.16,101.72Z"/>
          <path id="패스_602" data-name="패스 602" class="cls-5" d="M244.49,105.96s-2.94,6.59-11,2.5C233.5,108.46,239.18,101.17,244.49,105.96Z"/>
          <path id="패스_603" data-name="패스 603" class="cls-5" d="M241.22,112.91s.88-6.88,9.43-5.34C250.65,107.57,247.44,115.86,241.22,112.91Z"/>
          <path id="패스_604" data-name="패스 604" class="cls-5" d="M258.18,105.74s3.08-6.21,10.66-1.97C268.84,103.77,263.1,110.55,258.18,105.74Z"/>
          <path id="패스_605" data-name="패스 605" class="cls-5" d="M280.42,102.96s1.48-6.77,9.86-4.5C290.28,98.46,286.37,106.44,280.42,102.96Z"/>
          <path id="패스_606" data-name="패스 606" class="cls-5" d="M287.11,104.32s5.87-3.68,10.1,3.91C297.21,108.23,288.77,111,287.11,104.32Z"/>
          <path id="패스_607" data-name="패스 607" class="cls-5" d="M278.09,97.42s4.2,5.52-2.98,10.42C275.11,107.84,271.59,99.68,278.09,97.42Z"/>
          <path id="패스_608" data-name="패스 608" class="cls-5" d="M257.59,113.34s-6.68-1.84-3.95-10.09C253.64,103.25,261.39,107.6,257.59,113.34Z"/>
          <path id="패스_609" data-name="패스 609" class="cls-5" d="M251.4,102.61s-5.6,4.08-10.36-3.2C241.05,99.42,249.28,96.07,251.4,102.61Z"/>
          <path id="패스_610" data-name="패스 610" class="cls-5" d="M260.44,101.28s-5.6,4.08-10.35-3.19C250.09,98.09,258.32,94.74,260.44,101.28Z"/>
          <path id="패스_611" data-name="패스 611" class="cls-5" d="M260.22,114.18s-.09-6.93,8.6-6.6C268.82,107.58,266.79,116.23,260.22,114.18Z"/>
          <path id="패스_612" data-name="패스 612" class="cls-5" d="M240.92,100.34s-3.62,4.97-9.61.12C231.31,100.46,237.34,95.39,240.92,100.34Z"/>
          <path id="패스_613" data-name="패스 613" class="cls-5" d="M270.03,103.08s-3.79-5.81,3.72-10.18C273.75,92.9,276.67,101.29,270.03,103.08Z"/>
          <path id="패스_614" data-name="패스 614" class="cls-5" d="M259.86,94.29s6.74-1.63,8.35,6.91C268.21,101.2,259.32,101.15,259.86,94.29Z"/>
        </g>
      </g>
      <g id="그룹_475" data-name="그룹 475">
        <path id="패스_615" data-name="패스 615" class="cls-5" d="M271.08,86.46s-4.49-5.42,2.58-10.69C273.66,75.77,277.58,83.89,271.08,86.46Z"/>
        <path id="패스_616" data-name="패스 616" class="cls-5" d="M263.36,87.5s.04,6.93-8.65,6.54C254.72,94.04,256.81,85.41,263.36,87.5Z"/>
        <path id="패스_617" data-name="패스 617" class="cls-5" d="M254.61,89.08s-6.36,2.75-9.4-5.4C245.21,83.68,253.98,82.22,254.61,89.08Z"/>
        <path id="패스_618" data-name="패스 618" class="cls-5" d="M293.23,85.16s-3.28,6.1-10.72,1.6C282.52,86.75,288.48,80.17,293.23,85.16Z"/>
        <path id="패스_619" data-name="패스 619" class="cls-5" d="M257.5,87.16s-7.06-1.5-4.73-10.24C252.77,76.92,261.08,80.96,257.5,87.16Z"/>
        <path id="패스_620" data-name="패스 620" class="cls-5" d="M278.18,87.51s-2.95-6.28,5.1-9.56C283.28,77.95,285.01,86.67,278.18,87.51Z"/>
        <path id="패스_621" data-name="패스 621" class="cls-5" d="M280.49,96.81s-6.81-1.27-4.78-9.73C275.71,87.08,283.79,90.77,280.49,96.81Z"/>
        <path id="패스_622" data-name="패스 622" class="cls-5" d="M264.72,94.58s-.08-6.93,8.61-6.59C273.33,87.99,271.29,96.64,264.72,94.58Z"/>
        <path id="패스_623" data-name="패스 623" class="cls-5" d="M282.68,94.7s1.28-6.81,9.73-4.78C292.41,89.92,288.72,98,282.68,94.7Z"/>
        <path id="패스_624" data-name="패스 624" class="cls-5" d="M267.3,86.99s-6.93-.3-6.11-8.95C261.19,78.04,269.71,80.55,267.3,86.99Z"/>
        <path id="패스_625" data-name="패스 625" class="cls-5" d="M269.56,79.19s-6.75,1.52-8.22-7.02C261.33,72.17,270.19,72.35,269.56,79.19Z"/>
        <path id="패스_626" data-name="패스 626" class="cls-5" d="M248.24,90.05s-4.31,4.31-9.42-1.36C238.82,88.69,245.5,84.66,248.24,90.05Z"/>
        <path id="패스_627" data-name="패스 627" class="cls-5" d="M277.88,80.25s-5.96-3.55-1.14-10.78C276.75,69.47,283.07,75.71,277.88,80.25Z"/>
        <path id="패스_628" data-name="패스 628" class="cls-5" d="M287.74,79.7s2.47-6.48,10.42-2.97C298.16,76.73,293.1,84.03,287.74,79.7Z"/>
        <path id="패스_629" data-name="패스 629" class="cls-5" d="M297.53,90.79s2.43,6.49-5.85,9.12C291.68,99.91,290.66,91.09,297.53,90.79Z"/>
        <path id="패스_630" data-name="패스 630" class="cls-5" d="M252.1,93.59s-2.62,6.42-10.49,2.72C241.61,96.31,246.85,89.14,252.1,93.59Z"/>
        <path id="패스_631" data-name="패스 631" class="cls-5" d="M295.77,87.74s.12-6.93,8.79-6.34C304.56,81.4,302.28,89.98,295.77,87.74Z"/>
        <path id="패스_632" data-name="패스 632" class="cls-5" d="M299.44,94.48s6.48-2.47,9.15,5.8C308.59,100.28,299.77,101.36,299.44,94.48Z"/>
        <path id="패스_633" data-name="패스 633" class="cls-5" d="M285.27,76.29s-1.5-7.89,8.48-9.27C293.74,67.02,293.18,77.31,285.27,76.29Z"/>
        <path id="패스_634" data-name="패스 634" class="cls-5" d="M269.88,73.53s-3.48-5.99,4.24-9.97C274.13,63.56,276.62,72.09,269.88,73.53Z"/>
        <path id="패스_635" data-name="패스 635" class="cls-5" d="M258.66,78.86s-6.63-2.02-3.68-10.19C254.98,68.67,262.61,73.22,258.66,78.86Z"/>
        <path id="패스_636" data-name="패스 636" class="cls-5" d="M248.34,82.15s-5.35-4.41.52-10.82C248.86,71.33,254.15,78.46,248.34,82.15Z"/>
        <path id="패스_637" data-name="패스 637" class="cls-5" d="M240.43,95.54s-6.01,3.45-9.95-4.29C230.47,91.24,239.02,88.8,240.43,95.54Z"/>
        <path id="패스_638" data-name="패스 638" class="cls-5" d="M244.52,85.62s-6.14,3.99-10.75-3.95C233.78,81.67,242.64,78.59,244.52,85.62Z"/>
        <path id="패스_639" data-name="패스 639" class="cls-5" d="M244.23,82.28s-5.79-.98-4.19-8.17C240.04,74.12,246.94,77.12,244.23,82.28Z"/>
        <path id="패스_640" data-name="패스 640" class="cls-5" d="M264.49,70.47s5.67-1.52,3.41-8.53C267.9,61.94,261.31,65.58,264.49,70.47Z"/>
        <path id="패스_641" data-name="패스 641" class="cls-5" d="M298.71,90.1s3.51,4.71,9.18.01C307.89,90.11,302.07,85.33,298.71,90.1Z"/>
        <path id="패스_642" data-name="패스 642" class="cls-5" d="M282.47,74.44s5.27-2.59,1.7-9.03C284.16,65.41,278.4,70.26,282.47,74.44Z"/>
        <path id="패스_643" data-name="패스 643" class="cls-5" d="M261.33,70.81s4.76-6.25-3.37-11.81C257.96,59,253.97,68.24,261.33,70.81Z"/>
      </g>
      <path id="패스_644" data-name="패스 644" class="cls-5" d="M286.39,123.51c-.66,7.7-12.93,6.87-12.93,6.87a27.631,27.631,0,0,0,8.76-11.72l-1.56-.37c-1.72,4.44-3.41,5.39-3.41,5.39l.17-6.01-1.81-.02.06,6.86s-1.36,4.68-6.18,5.36-6.52-11.48-6.52-11.48l-1.68.11a17.076,17.076,0,0,0,1.6,8.16c-1.18-.52-4.77-2.39-5.34-5.9l-.61.36s-.27,5.02,6.61,6.79a11.622,11.622,0,0,0,1.98,2.55c-9.97-1.28-11.14-5.63-11.14-5.63l-1.21.95c4.99,7.38,13.9,7.09,13.9,7.09.71,1.09,1.02,7.22.62,12.88s-.17,20.81-.17,20.81l4.33.04c.63-3.48-.49-13.96-1.17-18.42s-.03-11.19-.01-13.24a2.746,2.746,0,0,1,1.47-2.63c14.79.73,15.59-8.77,15.59-8.77Z"/>
    </g>
    <g id="그룹_481" data-name="그룹 481" class="cls-3">
      <g id="그룹_477" data-name="그룹 477">
        <path id="패스_645" data-name="패스 645" class="cls-5" d="M365.33,109.01s-1.96,5.34-8.53,2.54C356.79,111.55,360.88,105.5,365.33,109.01Z"/>
        <path id="패스_646" data-name="패스 646" class="cls-5" d="M348.79,121.97s-2.98-4.85,3.28-8.28C352.07,113.69,354.29,120.65,348.79,121.97Z"/>
        <path id="패스_647" data-name="패스 647" class="cls-5" d="M365.51,110.62s5.12,2.49,1.68,8.74C367.19,119.36,361.58,114.69,365.51,110.62Z"/>
        <path id="패스_648" data-name="패스 648" class="cls-5" d="M365.24,111.17s5.12,2.49,1.68,8.74C366.92,119.91,361.31,115.23,365.24,111.17Z"/>
        <path id="패스_649" data-name="패스 649" class="cls-5" d="M367.87,120.64s5.08-3.27,8.84,3.3C376.71,123.94,369.39,126.44,367.87,120.64Z"/>
        <path id="패스_650" data-name="패스 650" class="cls-5" d="M330.95,116.88s-2.74,4.73-8.49.99C322.46,117.88,327.33,112.84,330.95,116.88Z"/>
        <path id="패스_651" data-name="패스 651" class="cls-5" d="M373.4,118.74s3.66-4.07,8.51.77C381.91,119.51,376.11,123.45,373.4,118.74Z"/>
        <path id="패스_652" data-name="패스 652" class="cls-5" d="M337.75,122.37s-1.8,5.28-8.3,2.69C329.46,125.05,333.32,119.04,337.75,122.37Z"/>
        <path id="패스_653" data-name="패스 653" class="cls-5" d="M331.29,120.26s-.74,4.65-6.51,3.43C324.78,123.69,327.13,118.14,331.29,120.26Z"/>
        <path id="패스_654" data-name="패스 654" class="cls-5" d="M371.68,112.03s3.57-4.43,8.9.32C380.58,112.35,374.76,116.76,371.68,112.03Z"/>
        <path id="패스_655" data-name="패스 655" class="cls-5" d="M368.88,112.11s4.48-.94,5.37,4.72C374.25,116.83,368.39,116.62,368.88,112.11Z"/>
        <path id="패스_656" data-name="패스 656" class="cls-5" d="M338.38,113.26s1.17,5.57-5.88,6.69C332.5,119.95,332.75,112.65,338.38,113.26Z"/>
        <path id="패스_657" data-name="패스 657" class="cls-5" d="M338.65,113.26s1.17,5.57-5.88,6.69C332.77,119.95,333.03,112.65,338.65,113.26Z"/>
      </g>
      <g id="그룹_479" data-name="그룹 479">
        <path id="패스_658" data-name="패스 658" class="cls-5" d="M355.21,115.78s-5.37-1.9-2.64-8.5C352.57,107.28,358.65,111.3,355.21,115.78Z"/>
        <g id="그룹_478" data-name="그룹 478">
          <path id="패스_659" data-name="패스 659" class="cls-5" d="M371.76,104.7s4.39-3.81,8.65,2.18C380.4,106.88,373.83,110.21,371.76,104.7Z"/>
          <path id="패스_660" data-name="패스 660" class="cls-5" d="M330.97,108.18s-2.41,5.41-9.03,2.05C321.94,110.23,326.6,104.24,330.97,108.18Z"/>
          <path id="패스_661" data-name="패스 661" class="cls-5" d="M328.28,113.89s.72-5.65,7.75-4.38C336.02,109.51,333.39,116.31,328.28,113.89Z"/>
          <path id="패스_662" data-name="패스 662" class="cls-5" d="M342.21,108s2.53-5.1,8.75-1.62C350.97,106.38,346.25,111.95,342.21,108Z"/>
          <path id="패스_663" data-name="패스 663" class="cls-5" d="M360.48,105.72s1.21-5.56,8.1-3.69C368.58,102.02,365.36,108.57,360.48,105.72Z"/>
          <path id="패스_664" data-name="패스 664" class="cls-5" d="M365.97,106.83s4.82-3.02,8.3,3.21C374.27,110.04,367.34,112.32,365.97,106.83Z"/>
          <path id="패스_665" data-name="패스 665" class="cls-5" d="M358.56,101.17s3.45,4.53-2.45,8.56C356.12,109.73,353.22,103.03,358.56,101.17Z"/>
          <path id="패스_666" data-name="패스 666" class="cls-5" d="M341.72,114.25s-5.49-1.51-3.24-8.29C338.48,105.96,344.84,109.53,341.72,114.25Z"/>
          <path id="패스_667" data-name="패스 667" class="cls-5" d="M336.64,105.43s-4.6,3.35-8.51-2.63C328.14,102.81,334.9,100.06,336.64,105.43Z"/>
          <path id="패스_668" data-name="패스 668" class="cls-5" d="M344.07,104.34s-4.6,3.35-8.5-2.62C335.56,101.72,342.32,98.96,344.07,104.34Z"/>
          <path id="패스_669" data-name="패스 669" class="cls-5" d="M343.88,114.93s-.07-5.69,7.06-5.42C350.94,109.51,349.28,116.62,343.88,114.93Z"/>
          <path id="패스_670" data-name="패스 670" class="cls-5" d="M328.04,103.57s-2.97,4.08-7.89.1C320.14,103.67,325.09,99.5,328.04,103.57Z"/>
          <path id="패스_671" data-name="패스 671" class="cls-5" d="M351.94,105.81s-3.11-4.77,3.06-8.36C354.99,97.45,357.4,104.34,351.94,105.81Z"/>
          <path id="패스_672" data-name="패스 672" class="cls-5" d="M343.59,98.6s5.53-1.34,6.86,5.67C350.44,104.27,343.15,104.23,343.59,98.6Z"/>
        </g>
      </g>
      <g id="그룹_480" data-name="그룹 480">
        <path id="패스_673" data-name="패스 673" class="cls-5" d="M352.8,92.17s-3.69-4.45,2.12-8.78C354.92,83.39,358.14,90.06,352.8,92.17Z"/>
        <path id="패스_674" data-name="패스 674" class="cls-5" d="M346.47,93.02s.03,5.69-7.1,5.37C339.37,98.39,341.08,91.3,346.47,93.02Z"/>
        <path id="패스_675" data-name="패스 675" class="cls-5" d="M339.27,94.32s-5.23,2.26-7.72-4.43C331.56,89.88,338.75,88.69,339.27,94.32Z"/>
        <path id="패스_676" data-name="패스 676" class="cls-5" d="M371,91.09s-2.7,5.01-8.8,1.31C362.2,92.41,367.09,87,371,91.09Z"/>
        <path id="패스_677" data-name="패스 677" class="cls-5" d="M341.65,92.74s-5.8-1.23-3.89-8.41C337.76,84.33,344.59,87.64,341.65,92.74Z"/>
        <path id="패스_678" data-name="패스 678" class="cls-5" d="M358.64,93.03s-2.42-5.15,4.19-7.85C362.82,85.18,364.25,92.33,358.64,93.03Z"/>
        <path id="패스_679" data-name="패스 679" class="cls-5" d="M360.53,100.66s-5.6-1.05-3.93-7.99C356.61,92.68,363.25,95.7,360.53,100.66Z"/>
        <path id="패스_680" data-name="패스 680" class="cls-5" d="M347.58,98.83s-.06-5.69,7.07-5.41C354.65,93.42,352.98,100.53,347.58,98.83Z"/>
        <path id="패스_681" data-name="패스 681" class="cls-5" d="M362.33,98.93s1.05-5.59,7.99-3.92C370.32,95.01,367.29,101.64,362.33,98.93Z"/>
        <path id="패스_682" data-name="패스 682" class="cls-5" d="M349.7,92.6s-5.69-.24-5.02-7.35C344.68,85.25,351.68,87.31,349.7,92.6Z"/>
        <path id="패스_683" data-name="패스 683" class="cls-5" d="M351.55,86.19s-5.54,1.25-6.75-5.76C344.8,80.43,352.08,80.58,351.55,86.19Z"/>
        <path id="패스_684" data-name="패스 684" class="cls-5" d="M334.05,95.11s-3.54,3.54-7.74-1.12C326.31,94,331.8,90.69,334.05,95.11Z"/>
        <path id="패스_685" data-name="패스 685" class="cls-5" d="M358.39,87.06s-4.89-2.91-.93-8.85C357.46,78.21,362.65,83.34,358.39,87.06Z"/>
        <path id="패스_686" data-name="패스 686" class="cls-5" d="M366.49,86.61s2.03-5.32,8.56-2.44C375.05,84.17,370.89,90.17,366.49,86.61Z"/>
        <path id="패스_687" data-name="패스 687" class="cls-5" d="M374.53,95.72s2,5.33-4.81,7.49C369.73,103.21,368.88,95.96,374.53,95.72Z"/>
        <path id="패스_688" data-name="패스 688" class="cls-5" d="M337.22,98.02s-2.15,5.27-8.61,2.24C328.6,100.26,332.9,94.36,337.22,98.02Z"/>
        <path id="패스_689" data-name="패스 689" class="cls-5" d="M373.09,93.22s.1-5.69,7.22-5.21C380.3,88.01,378.43,95.06,373.09,93.22Z"/>
        <path id="패스_690" data-name="패스 690" class="cls-5" d="M376.09,98.75s5.32-2.02,7.52,4.77C383.61,103.52,376.37,104.4,376.09,98.75Z"/>
        <path id="패스_691" data-name="패스 691" class="cls-5" d="M364.46,83.81s-1.23-6.48,6.96-7.61C371.42,76.2,370.96,84.65,364.46,83.81Z"/>
        <path id="패스_692" data-name="패스 692" class="cls-5" d="M351.82,81.54s-2.86-4.92,3.48-8.19C355.31,73.35,357.35,80.36,351.82,81.54Z"/>
        <path id="패스_693" data-name="패스 693" class="cls-5" d="M342.6,85.92s-5.45-1.66-3.02-8.37C339.58,77.55,345.85,81.29,342.6,85.92Z"/>
        <path id="패스_694" data-name="패스 694" class="cls-5" d="M334.13,88.63s-4.39-3.62.42-8.89C334.55,79.74,338.9,85.59,334.13,88.63Z"/>
        <path id="패스_695" data-name="패스 695" class="cls-5" d="M327.63,99.62s-4.94,2.84-8.17-3.53C319.45,96.09,326.47,94.09,327.63,99.62Z"/>
        <path id="패스_696" data-name="패스 696" class="cls-5" d="M330.99,91.47s-5.04,3.28-8.83-3.25C322.17,88.23,329.45,85.7,330.99,91.47Z"/>
        <path id="패스_697" data-name="패스 697" class="cls-5" d="M330.75,88.74s-4.76-.81-3.44-6.71C327.31,82.03,332.98,84.49,330.75,88.74Z"/>
        <path id="패스_698" data-name="패스 698" class="cls-5" d="M347.39,79.03s4.66-1.25,2.8-7C350.19,72.03,344.78,75.02,347.39,79.03Z"/>
        <path id="패스_699" data-name="패스 699" class="cls-5" d="M375.5,95.15s2.88,3.87,7.54.01C383.04,95.16,378.26,91.24,375.5,95.15Z"/>
        <path id="패스_700" data-name="패스 700" class="cls-5" d="M362.15,82.29s4.33-2.12,1.39-7.41C363.55,74.88,358.81,78.86,362.15,82.29Z"/>
        <path id="패스_701" data-name="패스 701" class="cls-5" d="M344.8,79.31s3.91-5.14-2.77-9.7C342.03,69.61,338.75,77.2,344.8,79.31Z"/>
      </g>
      <path id="패스_702" data-name="패스 702" class="cls-5" d="M365.37,122.6c-.55,6.32-10.62,5.65-10.62,5.65a22.7,22.7,0,0,0,7.19-9.63l-1.28-.31c-1.41,3.64-2.8,4.42-2.8,4.42l.14-4.94-1.48-.01.05,5.63a6.479,6.479,0,0,1-5.08,4.4c-3.96.56-5.36-9.43-5.36-9.43l-1.38.09a14.1,14.1,0,0,0,1.31,6.7c-.97-.43-3.92-1.96-4.39-4.85l-.5.29s-.22,4.13,5.43,5.57a9.5,9.5,0,0,0,1.62,2.09c-8.19-1.05-9.15-4.62-9.15-4.62l-.99.78c4.1,6.06,11.41,5.83,11.41,5.83.59.89.84,5.93.51,10.57s-.14,17.09-.14,17.09l3.56.03c.52-2.86-.4-11.46-.96-15.13s-.02-9.19-.01-10.87a2.238,2.238,0,0,1,1.2-2.16c12.15.6,12.81-7.21,12.81-7.21Z"/>
    </g>
    <g id="XMLID_1_" class="cls-3">
      <g id="XMLID_8_">
        <path id="패스_703" data-name="패스 703" class="cls-6" d="M269.22,96.02l-68.49,17.53v47.49l68.49-17.53Z"/>
      </g>
      <g id="XMLID_7_">
        <path id="패스_704" data-name="패스 704" class="cls-7" d="M269.22,96.02l56.43,24.85v47.49l-56.43-24.85Z"/>
      </g>
      <g id="XMLID_6_">
        <g id="그룹_482" data-name="그룹 482">
          <path id="패스_705" data-name="패스 705" class="cls-8" d="M325.65,120.87,257.16,138.4v47.49l68.49-17.53Z"/>
        </g>
      </g>
      <g id="XMLID_5_">
        <g id="그룹_483" data-name="그룹 483">
          <path id="패스_706" data-name="패스 706" class="cls-9" d="M200.73,113.55l56.43,24.85v47.49l-56.43-24.85Z"/>
        </g>
      </g>
      <g id="XMLID_4_">
        <g id="그룹_484" data-name="그룹 484">
          <path id="패스_707" data-name="패스 707" class="cls-8" d="M300.18,77.28l56.43,24.85-30.96,18.74L269.22,96.02Z"/>
        </g>
      </g>
      <g id="XMLID_3_">
        <path id="패스_708" data-name="패스 708" class="cls-7" d="M244.47,73.25,175.98,90.78l24.75,22.77,68.49-17.53Z"/>
      </g>
      <g id="XMLID_2_">
        <g id="그룹_485" data-name="그룹 485">
          <path id="패스_709" data-name="패스 709" class="cls-8" d="M172.52,113.55l56.43,24.85h28.21l-56.43-24.85Z"/>
        </g>
      </g>
    </g>
    <g id="그룹_490" data-name="그룹 490" class="cls-3">
      <g id="그룹_489" data-name="그룹 489" class="cls-10">
        <g id="그룹_486" data-name="그룹 486">
          <path id="패스_710" data-name="패스 710" class="cls-11" d="M290.53,114.98c-.04,2.46-1.65,3.91-3.43,5.18-.25.18-.51.36-.76.54a20.1,20.1,0,0,1-6.86,4.19c-.33.13-.65.26-.98.37a12.01,12.01,0,0,1-7.17.28c-.34-.04-.69-.09-1.03-.14a27.892,27.892,0,0,1-6.32-1.97c-.27-.12-.53-.26-.78-.4a22.354,22.354,0,0,1-4.8-3.91c-.24-.2-.47-.42-.7-.64a10.3,10.3,0,0,1-3.06-7.71c-.07-.33-.14-.65-.19-.98l-.18-1.11c-.86-3.08-.02-6.2,1.23-8.98.15-.37.31-.73.48-1.09a18.6,18.6,0,0,1,4.07-5.6c.28-.26.56-.51.85-.75,1.26-1.27,2.39-2.76,4.14-3.53a4.628,4.628,0,0,1,.8-.25c3.1-.99,6.18-1.88,9.33-.48.34.06.68.11,1.02.16a19.272,19.272,0,0,1,8.95,4.05c.23.19.46.39.69.58,2.42,1.61,3.89,4.12,5.09,6.76.14.33.28.66.4.99a13.786,13.786,0,0,1,.46,7.25c-.03.34-.07.68-.11,1.02-.2,1.69-.5,3.38-.81,5.03C290.73,114.22,290.63,114.6,290.53,114.98Z"/>
          <path id="패스_711" data-name="패스 711" class="cls-12" d="M278,97.36c.21-2.21,1.63-1.35,1.63-1.35s1.32,1.97,1.2,3.26c1.83.17.31-3.26.31-3.26s2.93-.62,3.57,1.29c.97-1.55-2.58-3.12-2.58-3.12l3.01-1.49-3.66-.35s1.77-3.53.35-3.66c-.07.74-2.03,2.68-2.03,2.68s-.89-2.96-2.58-3.12a4.739,4.739,0,0,1,.85,4.05s-.69.38-2.58-.24c-.14,1.49,2.37,2.41,2.37,2.41S275.8,97.15,278,97.36Z"/>
          <path id="패스_712" data-name="패스 712" class="cls-13" d="M279.6,92.95a.8.8,0,1,1-.11,1.12A.795.795,0,0,1,279.6,92.95Z"/>
          <circle id="타원_33" data-name="타원 33" class="cls-14" cx="0.58" cy="0.58" r="0.58" transform="translate(264.01 93.36)"/>
          <circle id="타원_34" data-name="타원 34" class="cls-14" cx="0.58" cy="0.58" r="0.58" transform="translate(261.61 98.41)"/>
          <circle id="타원_35" data-name="타원 35" class="cls-14" cx="0.58" cy="0.58" r="0.58" transform="translate(265.71 104.61)"/>
          <circle id="타원_36" data-name="타원 36" class="cls-14" cx="0.58" cy="0.58" r="0.58" transform="translate(273.72 100.31)"/>
          <circle id="타원_37" data-name="타원 37" class="cls-14" cx="0.58" cy="0.58" r="0.58" transform="translate(278.45 108.31)"/>
          <circle id="타원_38" data-name="타원 38" class="cls-14" cx="0.58" cy="0.58" r="0.58" transform="translate(270.17 115.9)"/>
          <circle id="타원_39" data-name="타원 39" class="cls-14" cx="0.58" cy="0.58" r="0.58" transform="translate(261.11 115.66)"/>
          <circle id="타원_40" data-name="타원 40" class="cls-14" cx="0.58" cy="0.58" r="0.58" transform="translate(258.27 107.7)"/>
          <circle id="타원_41" data-name="타원 41" class="cls-14" cx="0.58" cy="0.58" r="0.58" transform="translate(268.02 112.32)"/>
          <circle id="타원_42" data-name="타원 42" class="cls-14" cx="0.58" cy="0.58" r="0.58" transform="translate(286.36 103.32)"/>
          <circle id="타원_43" data-name="타원 43" class="cls-14" cx="0.58" cy="0.58" r="0.58" transform="translate(286.53 115.56)"/>
          <circle id="타원_44" data-name="타원 44" class="cls-14" cx="0.58" cy="0.58" r="0.58" transform="translate(275.03 121.83)"/>
          <circle id="타원_45" data-name="타원 45" class="cls-14" cx="0.58" cy="0.58" r="0.58" transform="translate(278.5 114.52)"/>
          <circle id="타원_46" data-name="타원 46" class="cls-14" cx="0.58" cy="0.58" r="0.58" transform="translate(270.53 92.19)"/>
          <circle id="타원_47" data-name="타원 47" class="cls-14" cx="0.58" cy="0.58" r="0.58" transform="translate(267.34 120.96)"/>
          <circle id="타원_48" data-name="타원 48" class="cls-14" cx="0.58" cy="0.58" r="0.58" transform="translate(281.83 104.8)"/>
          <circle id="타원_49" data-name="타원 49" class="cls-14" cx="0.58" cy="0.58" r="0.58" transform="translate(286.26 98.15)"/>
        </g>
        <ellipse id="타원_50" data-name="타원 50" class="cls-15" cx="14" cy="15.5" rx="14" ry="15.5" transform="translate(242.61 98)"/>
        <ellipse id="타원_51" data-name="타원 51" class="cls-15" cx="18.5" cy="15.5" rx="18.5" ry="15.5" transform="translate(258.61 103)"/>
        <g id="그룹_487" data-name="그룹 487">
          <path id="패스_713" data-name="패스 713" class="cls-11" d="M301.34,127.81c1.24,2.73.23,5.17-1.07,7.5-.18.33-.37.66-.56,1a24.331,24.331,0,0,1-5.38,8.2c-.29.32-.58.63-.88.92a14.653,14.653,0,0,1-7.76,4.06c-.4.13-.8.26-1.21.38a33.572,33.572,0,0,1-8,1.13c-.36,0-.72-.01-1.07-.03a27.278,27.278,0,0,1-7.34-1.8c-.37-.1-.74-.21-1.1-.34a12.545,12.545,0,0,1-7.4-6.89c-.25-.32-.49-.65-.72-.98-.26-.37-.52-.75-.78-1.13-2.55-2.94-3.26-6.82-3.34-10.54-.03-.48-.04-.96-.04-1.45a22.641,22.641,0,0,1,1.56-8.3c.17-.43.35-.85.54-1.27.72-2.06,1.19-4.29,2.72-6.06a9.862,9.862,0,0,1,.75-.7c2.89-2.71,5.83-5.3,10.03-5.41.4-.12.81-.24,1.21-.35a23.686,23.686,0,0,1,11.99-.21c.36.09.71.18,1.06.28,3.51.51,6.45,2.51,9.14,4.79.33.29.65.58.95.88a16.748,16.748,0,0,1,4.29,7.75c.14.39.28.78.41,1.18.66,1.97,1.22,3.99,1.74,5.96C301.16,126.86,301.24,127.34,301.34,127.81Z"/>
          <path id="패스_714" data-name="패스 714" class="cls-12" d="M276.64,104.51c1.91,1.91,0,2.59,0,2.59s-2.88-.29-4-1.41c-1.59,1.59,2.82,2.82,2.82,2.82s-1.7,3.23-4,2.35c.71,2.12,4.94,0,4.94,0l-.94,4,3.17-3.17s1.94,4.4,3.17,3.17c-.64-.64-.94-4-.94-4s3.47,1.47,4.94,0a5.765,5.765,0,0,1-4.47-2.35s.18-.94,2.23-2.23c-1.29-1.29-4.11.35-4.11.35S278.55,102.6,276.64,104.51Z"/>
          <path id="패스_715" data-name="패스 715" class="cls-13" d="M279.55,109.44a.97.97,0,1,1-.97-.97A.965.965,0,0,1,279.55,109.44Z"/>
          <circle id="타원_52" data-name="타원 52" class="cls-14" cx="0.71" cy="0.71" r="0.71" transform="translate(261.04 117.47)"/>
          <circle id="타원_53" data-name="타원 53" class="cls-14" cx="0.71" cy="0.71" r="0.71" transform="translate(261.04 124.28)"/>
          <circle id="타원_54" data-name="타원 54" class="cls-14" cx="0.71" cy="0.71" r="0.71" transform="translate(268.8 128.98)"/>
          <circle id="타원_55" data-name="타원 55" class="cls-14" cx="0.71" cy="0.71" r="0.71" transform="translate(275.38 120.05)"/>
          <circle id="타원_56" data-name="타원 56" class="cls-14" cx="0.71" cy="0.71" r="0.71" transform="translate(284.78 126.4)"/>
          <circle id="타원_57" data-name="타원 57" class="cls-14" cx="0.71" cy="0.71" r="0.71" transform="translate(279.61 139.09)"/>
          <circle id="타원_58" data-name="타원 58" class="cls-14" cx="0.71" cy="0.71" r="0.71" transform="translate(269.5 143.55)"/>
          <circle id="타원_59" data-name="타원 59" class="cls-14" cx="0.71" cy="0.71" r="0.71" transform="translate(262.22 136.27)"/>
          <circle id="타원_60" data-name="타원 60" class="cls-14" cx="0.71" cy="0.71" r="0.71" transform="translate(275.38 136.27)"/>
          <circle id="타원_61" data-name="타원 61" class="cls-14" cx="0.71" cy="0.71" r="0.71" transform="translate(290.89 116.76)"/>
          <circle id="타원_62" data-name="타원 62" class="cls-14" cx="0.71" cy="0.71" r="0.71" transform="translate(297.47 130.16)"/>
          <circle id="타원_63" data-name="타원 63" class="cls-14" cx="0.71" cy="0.71" r="0.71" transform="translate(288.07 143.08)"/>
          <circle id="타원_64" data-name="타원 64" class="cls-14" cx="0.71" cy="0.71" r="0.71" transform="translate(288.07 133.21)"/>
          <circle id="타원_65" data-name="타원 65" class="cls-14" cx="0.71" cy="0.71" r="0.71" transform="translate(267.62 112.77)"/>
          <circle id="타원_66" data-name="타원 66" class="cls-14" cx="0.71" cy="0.71" r="0.71" transform="translate(279.14 146.14)"/>
          <circle id="타원_67" data-name="타원 67" class="cls-14" cx="0.71" cy="0.71" r="0.71" transform="translate(286.66 120.76)"/>
          <circle id="타원_68" data-name="타원 68" class="cls-14" cx="0.71" cy="0.71" r="0.71" transform="translate(288.07 111.12)"/>
        </g>
        <ellipse id="타원_69" data-name="타원 69" class="cls-15" cx="14" cy="15.5" rx="14" ry="15.5" transform="translate(240.61 105)"/>
        <g id="그룹_488" data-name="그룹 488">
          <path id="패스_716" data-name="패스 716" class="cls-11" d="M266.34,115.81c1.24,2.73.23,5.17-1.07,7.5-.18.33-.37.66-.56,1a24.331,24.331,0,0,1-5.38,8.2c-.29.32-.58.63-.88.92a14.653,14.653,0,0,1-7.76,4.06c-.4.13-.8.26-1.21.38a33.572,33.572,0,0,1-8,1.13c-.36,0-.72-.01-1.07-.03a27.278,27.278,0,0,1-7.34-1.8c-.37-.1-.74-.21-1.1-.34a12.545,12.545,0,0,1-7.4-6.89c-.25-.32-.49-.65-.72-.98-.26-.37-.52-.75-.78-1.13-2.55-2.94-3.26-6.82-3.34-10.54-.03-.48-.04-.96-.04-1.45a22.641,22.641,0,0,1,1.56-8.3c.17-.43.35-.85.54-1.27.72-2.06,1.19-4.29,2.72-6.06a9.868,9.868,0,0,1,.75-.7c2.89-2.71,5.83-5.3,10.03-5.41.4-.12.81-.24,1.21-.35a23.686,23.686,0,0,1,11.99-.21c.36.09.71.18,1.06.28,3.51.51,6.45,2.51,9.14,4.79.33.29.65.58.95.88a16.748,16.748,0,0,1,4.29,7.75c.14.39.28.78.41,1.18.66,1.97,1.22,3.99,1.74,5.96C266.16,114.86,266.24,115.34,266.34,115.81Z"/>
          <path id="패스_717" data-name="패스 717" class="cls-12" d="M241.64,92.51c1.91,1.91,0,2.59,0,2.59s-2.88-.29-4-1.41c-1.59,1.59,2.82,2.82,2.82,2.82s-1.7,3.23-4,2.35c.71,2.12,4.94,0,4.94,0l-.94,4,3.17-3.17s1.94,4.4,3.17,3.17c-.64-.64-.94-4-.94-4s3.47,1.47,4.94,0a5.765,5.765,0,0,1-4.47-2.35s.18-.94,2.23-2.23c-1.29-1.29-4.11.35-4.11.35S243.55,90.6,241.64,92.51Z"/>
          <path id="패스_718" data-name="패스 718" class="cls-13" d="M244.55,97.44a.97.97,0,1,1-.97-.97A.965.965,0,0,1,244.55,97.44Z"/>
          <circle id="타원_70" data-name="타원 70" class="cls-14" cx="0.71" cy="0.71" r="0.71" transform="translate(226.04 105.47)"/>
          <circle id="타원_71" data-name="타원 71" class="cls-14" cx="0.71" cy="0.71" r="0.71" transform="translate(226.04 112.28)"/>
          <circle id="타원_72" data-name="타원 72" class="cls-14" cx="0.71" cy="0.71" r="0.71" transform="translate(233.8 116.98)"/>
          <circle id="타원_73" data-name="타원 73" class="cls-14" cx="0.71" cy="0.71" r="0.71" transform="translate(240.38 108.05)"/>
          <circle id="타원_74" data-name="타원 74" class="cls-14" cx="0.71" cy="0.71" r="0.71" transform="translate(249.78 114.4)"/>
          <circle id="타원_75" data-name="타원 75" class="cls-14" cx="0.71" cy="0.71" r="0.71" transform="translate(244.61 127.09)"/>
          <circle id="타원_76" data-name="타원 76" class="cls-14" cx="0.71" cy="0.71" r="0.71" transform="translate(234.5 131.55)"/>
          <circle id="타원_77" data-name="타원 77" class="cls-14" cx="0.71" cy="0.71" r="0.71" transform="translate(227.22 124.27)"/>
          <circle id="타원_78" data-name="타원 78" class="cls-14" cx="0.71" cy="0.71" r="0.71" transform="translate(240.38 124.27)"/>
          <circle id="타원_79" data-name="타원 79" class="cls-14" cx="0.71" cy="0.71" r="0.71" transform="translate(255.89 104.76)"/>
          <circle id="타원_80" data-name="타원 80" class="cls-14" cx="0.71" cy="0.71" r="0.71" transform="translate(262.47 118.16)"/>
          <circle id="타원_81" data-name="타원 81" class="cls-14" cx="0.71" cy="0.71" r="0.71" transform="translate(253.07 131.08)"/>
          <circle id="타원_82" data-name="타원 82" class="cls-14" cx="0.71" cy="0.71" r="0.71" transform="translate(253.07 121.21)"/>
          <circle id="타원_83" data-name="타원 83" class="cls-14" cx="0.71" cy="0.71" r="0.71" transform="translate(232.62 100.77)"/>
          <circle id="타원_84" data-name="타원 84" class="cls-14" cx="0.71" cy="0.71" r="0.71" transform="translate(244.14 134.14)"/>
          <circle id="타원_85" data-name="타원 85" class="cls-14" cx="0.71" cy="0.71" r="0.71" transform="translate(251.66 108.76)"/>
          <circle id="타원_86" data-name="타원 86" class="cls-14" cx="0.71" cy="0.71" r="0.71" transform="translate(253.07 99.12)"/>
        </g>
      </g>
    </g>
  </g>
</svg>
