<svg xmlns="http://www.w3.org/2000/svg" viewBox="0 0 280 280">
  <defs>
    <style>
      .cls-1 {
        fill: #00c2e8;
      }

      .cls-2 {
        opacity: 0.6;
      }

      .cls-3 {
        fill: #53e5f9;
      }

      .cls-4 {
        fill: #c6c6c6;
      }

      .cls-5 {
        fill: #004e5d;
      }

      .cls-6 {
        fill: #fff;
      }

      .cls-7 {
        fill: #028293;
      }

      .cls-8 {
        fill: #53cad3;
      }

      .cls-9 {
        fill: #21a0aa;
      }

      .cls-10 {
        fill: #81eaf2;
      }
    </style>
  </defs>
  <g id="그룹_207" data-name="그룹 207" transform="translate(-1376 149)">
    <g id="그룹_206" data-name="그룹 206" transform="translate(1376 -149)">
      <rect id="사각형_114" data-name="사각형 114" class="cls-1" width="280" height="280"/>
      <g id="그룹_185" data-name="그룹 185" class="cls-2">
        <path id="패스_130" data-name="패스 130" class="cls-3" d="M44.74,232.17H18.15a2.369,2.369,0,0,1-2.37-2.37V209.54a2.369,2.369,0,0,1,2.37-2.37H44.74a2.369,2.369,0,0,1,2.37,2.37V229.8A2.375,2.375,0,0,1,44.74,232.17Zm-24.22-4.75H42.36V211.91H20.52Z"/>
        <path id="패스_131" data-name="패스 131" class="cls-3" d="M96.65,232.17H70.06a2.369,2.369,0,0,1-2.37-2.37V171.56a2.369,2.369,0,0,1,2.37-2.37H96.65a2.369,2.369,0,0,1,2.37,2.37V229.8A2.375,2.375,0,0,1,96.65,232.17Zm-24.22-4.75H94.27V173.93H72.43Z"/>
        <path id="패스_132" data-name="패스 132" class="cls-3" d="M148.56,232.17H121.97a2.369,2.369,0,0,1-2.37-2.37V190.55a2.369,2.369,0,0,1,2.37-2.37h26.59a2.369,2.369,0,0,1,2.37,2.37V229.8A2.375,2.375,0,0,1,148.56,232.17Zm-24.22-4.75h21.84v-34.5H124.34Z"/>
        <path id="패스_133" data-name="패스 133" class="cls-3" d="M200.46,232.17H173.87a2.369,2.369,0,0,1-2.37-2.37V137.38a2.369,2.369,0,0,1,2.37-2.37h26.59a2.369,2.369,0,0,1,2.37,2.37V229.8A2.362,2.362,0,0,1,200.46,232.17Zm-24.21-4.75h21.84V139.74H176.25Z"/>
        <path id="패스_134" data-name="패스 134" class="cls-3" d="M252.37,232.17H225.78a2.369,2.369,0,0,1-2.37-2.37V95.59a2.369,2.369,0,0,1,2.37-2.37h26.59a2.369,2.369,0,0,1,2.37,2.37v134.2A2.364,2.364,0,0,1,252.37,232.17Zm-24.21-4.75H250V97.96H228.16Z"/>
        <path id="패스_135" data-name="패스 135" class="cls-3" d="M31.44,188.49a2.37,2.37,0,0,1-1.77-3.95L81.58,126.3a2.365,2.365,0,0,1,2.93-.49l50.31,28.22L232.73,52.54l-14.26,1.73a2.372,2.372,0,1,1-.57-4.71l20.89-2.53a2.375,2.375,0,0,1,1.99,4.01L136.97,158.64a2.367,2.367,0,0,1-2.87.42L83.85,130.87,33.21,187.69A2.361,2.361,0,0,1,31.44,188.49Z"/>
        <path id="패스_136" data-name="패스 136" class="cls-3" d="M237.18,72.64a1.7,1.7,0,0,1-.22-.01,2.37,2.37,0,0,1-2.15-2.58l1.9-20.89a2.375,2.375,0,1,1,4.73.43l-1.9,20.89A2.37,2.37,0,0,1,237.18,72.64Z"/>
      </g>
      <g id="그룹_192" data-name="그룹 192">
        <g id="그룹_186" data-name="그룹 186">
          <path id="패스_137" data-name="패스 137" class="cls-4" d="M101.06,188.78h0a3.517,3.517,0,0,1-1.63-4.68l14.93-30.94a3.517,3.517,0,0,1,4.68-1.63h0a3.517,3.517,0,0,1,1.63,4.68l-14.93,30.94A3.52,3.52,0,0,1,101.06,188.78Z"/>
          <path id="패스_138" data-name="패스 138" class="cls-4" d="M178.94,188.78h0a3.517,3.517,0,0,0,1.63-4.68l-14.93-30.94a3.517,3.517,0,0,0-4.68-1.63h0a3.517,3.517,0,0,0-1.63,4.68l14.93,30.94A3.52,3.52,0,0,0,178.94,188.78Z"/>
        </g>
        <g id="그룹_188" data-name="그룹 188">
          <g id="그룹_187" data-name="그룹 187">
            <rect id="사각형_115" data-name="사각형 115" class="cls-5" width="113.86" height="86.26" transform="translate(83.07 71.08)"/>
          </g>
        </g>
        <g id="그룹_189" data-name="그룹 189">
          <path id="패스_139" data-name="패스 139" class="cls-4" d="M140,71.9a10.66,10.66,0,1,1,10.66-10.66A10.669,10.669,0,0,1,140,71.9Zm0-15.74a5.08,5.08,0,1,0,5.08,5.08A5.087,5.087,0,0,0,140,56.16Z"/>
        </g>
        <g id="그룹_190" data-name="그룹 190">
          <path id="패스_140" data-name="패스 140" class="cls-6" d="M200.36,64.22H79.64c-1.87,0-3.39,2.25-3.39,5.02,0,2.84,1.52,5.09,3.39,5.09H200.35c1.87,0,3.39-2.25,3.39-5.02C203.75,66.47,202.23,64.22,200.36,64.22Z"/>
        </g>
        <g id="그룹_191" data-name="그룹 191">
          <path id="패스_141" data-name="패스 141" class="cls-6" d="M200.36,154.09H79.64c-1.87,0-3.39,2.25-3.39,5.02,0,2.84,1.52,5.09,3.39,5.09H200.35c1.87,0,3.39-2.25,3.39-5.03C203.75,156.34,202.23,154.09,200.36,154.09Z"/>
        </g>
      </g>
      <g id="그룹_204" data-name="그룹 204">
        <g id="그룹_195" data-name="그룹 195">
          <g id="그룹_194" data-name="그룹 194">
            <g id="그룹_193" data-name="그룹 193">
              <path id="패스_146" data-name="패스 146" class="cls-7" d="M142.83,116.11h0l-16.19,22.28a27.551,27.551,0,0,0,42.39-13.77Z"/>
            </g>
          </g>
        </g>
        <g id="그룹_198" data-name="그룹 198">
          <g id="그룹_197" data-name="그룹 197">
            <g id="그룹_196" data-name="그룹 196">
              <path id="패스_147" data-name="패스 147" class="cls-8" d="M169.03,124.62a27.5,27.5,0,0,0,0-17.02l-26.2,8.51Z"/>
            </g>
          </g>
        </g>
        <g id="그룹_201" data-name="그룹 201">
          <g id="그룹_200" data-name="그룹 200">
            <g id="그룹_199" data-name="그룹 199">
              <path id="패스_148" data-name="패스 148" class="cls-9" d="M159.02,93.83a27.393,27.393,0,0,0-16.19-5.26v27.54h0l26.2-8.51A27.592,27.592,0,0,0,159.02,93.83Z"/>
            </g>
          </g>
        </g>
        <g id="그룹_203" data-name="그룹 203">
          <g id="그룹_202" data-name="그룹 202">
            <path id="패스_149" data-name="패스 149" class="cls-1" d="M142.83,116.11V83.97a32.122,32.122,0,0,0-18.89,58.12l18.89-25.98Z"/>
          </g>
        </g>
      </g>
      <g id="그룹_205" data-name="그룹 205">
        <path id="패스_150" data-name="패스 150" class="cls-10" d="M124.31,100.1a2.68,2.68,0,1,0,2.68-2.68A2.68,2.68,0,0,0,124.31,100.1Z"/>
        <path id="패스_151" data-name="패스 151" class="cls-10" d="M131.69,103.35a.845.845,0,0,1,.84.84v9.61a.845.845,0,0,1-.84.84h-.1a.845.845,0,0,1-.84-.84v-7.43c0-.46-.27-.84-.59-.84s-.59.38-.59.84v16.8a.845.845,0,0,1-.84.84h-.2a.845.845,0,0,1-.84-.84v-7.68a.7.7,0,1,0-1.38,0v7.68a.845.845,0,0,1-.84.84h-.2a.845.845,0,0,1-.84-.84v-16.8c0-.46-.27-.84-.59-.84s-.6.38-.6.84v7.43a.845.845,0,0,1-.84.84h-.1a.845.845,0,0,1-.84-.84v-9.61a.845.845,0,0,1,.84-.84Z"/>
      </g>
    </g>
  </g>
</svg>
