<?xml version="1.0" encoding="utf-8"?>
<!-- Generator: Adobe Illustrator 26.3.1, SVG Export Plug-In . SVG Version: 6.00 Build 0)  -->
<svg version="1.1" id="레이어_1" xmlns="http://www.w3.org/2000/svg" xmlns:xlink="http://www.w3.org/1999/xlink" x="0px"
	 y="0px" viewBox="0 0 280 280" style="enable-background:new 0 0 280 280;" xml:space="preserve">
<style type="text/css">
	.st0{clip-path:url(#SVGID_00000016060330627204393840000018176820657496441529_);}
	.st1{fill:#4D9BD6;}
	.st2{clip-path:url(#SVGID_00000072274684725236054860000004508246862127726265_);}
	.st3{opacity:0.4;}
	.st4{clip-path:url(#SVGID_00000149378841743456572910000004875755759817394859_);}
	.st5{fill:#FFFFFF;}
	.st6{fill:#C6C6C6;}
	.st7{fill:#1D68A0;}
	.st8{clip-path:url(#SVGID_00000173856693533465956710000011829269590905224879_);}
	.st9{fill:none;}
	.st10{clip-path:url(#SVGID_00000055669043239683698770000002450288415033161357_);}
	.st11{fill:none;stroke:#FFFFFF;stroke-miterlimit:10;}
	.st12{clip-path:url(#SVGID_00000032633406922804286920000012991508061219246754_);}
	.st13{clip-path:url(#SVGID_00000168104277962791153200000000450475469996606343_);}
	.st14{clip-path:url(#SVGID_00000163060361813625722590000016068872689285867958_);}
	.st15{clip-path:url(#SVGID_00000049908399062207050630000005909732026656810411_);}
	.st16{clip-path:url(#SVGID_00000147912875607007663600000015710582256874393482_);}
	.st17{clip-path:url(#SVGID_00000096756970884986053640000005331617161822445469_);}
	.st18{clip-path:url(#SVGID_00000124129569239652803660000000840416055962892464_);}
	.st19{clip-path:url(#SVGID_00000052069822857012296950000003095029954424590736_);}
	.st20{fill:#028293;}
	.st21{fill:#53CAD3;}
	.st22{fill:#21A0AA;}
	.st23{fill:#00C2E8;}
	.st24{fill:#81EAF2;}
</style>
<g>
	<defs>
		<rect id="SVGID_1_" y="0.5" width="280" height="280"/>
	</defs>
	<clipPath id="SVGID_00000005250440884782798760000002190286728350972841_">
		<use xlink:href="#SVGID_1_"  style="overflow:visible;"/>
	</clipPath>
	<g id="그룹_571" style="clip-path:url(#SVGID_00000005250440884782798760000002190286728350972841_);">
		<rect id="사각형_242" y="0.5" class="st1" width="280" height="280"/>
		<g id="그룹_540">
			<g>
				<defs>
					<rect id="SVGID_00000030486499270942104580000004875245624687925414_" y="0.5" width="280" height="280"/>
				</defs>
				<clipPath id="SVGID_00000000922105207689643810000004020751709838455447_">
					<use xlink:href="#SVGID_00000030486499270942104580000004875245624687925414_"  style="overflow:visible;"/>
				</clipPath>
				<g id="그룹_539" style="clip-path:url(#SVGID_00000000922105207689643810000004020751709838455447_);">
					<g id="그룹_538" class="st3">
						<g id="그룹_537">
							<g>
								<defs>
									<rect id="SVGID_00000062878629981124263300000010985389232122041238_" x="15.6" y="29.5" width="245.1" height="164.4"/>
								</defs>
								<clipPath id="SVGID_00000038404185451297403680000008664005507354758838_">
									<use xlink:href="#SVGID_00000062878629981124263300000010985389232122041238_"  style="overflow:visible;"/>
								</clipPath>
								<g id="그룹_536" style="clip-path:url(#SVGID_00000038404185451297403680000008664005507354758838_);">
									<rect id="사각형_243" x="145" y="110.4" class="st5" width="1.9" height="2.2"/>
									<path id="패스_777" class="st5" d="M141.3,112.6h-3.7v-2.2h3.7V112.6z M133.9,112.6h-3.7v-2.2h3.7V112.6z M126.4,112.6
										h-3.7v-2.2h3.7L126.4,112.6z M119,112.6h-3.7v-2.2h3.7L119,112.6z M111.5,112.6h-3.7v-2.2h3.7V112.6z M104.1,112.6h-3.7
										v-2.2h3.7L104.1,112.6z M96.7,112.6h-3.7v-2.2h3.7L96.7,112.6z M89.2,112.6h-3.7v-2.2h3.7L89.2,112.6z M81.8,112.6H78v-2.2
										h3.7L81.8,112.6z M74.3,112.6h-3.7v-2.2h3.7L74.3,112.6z M66.9,112.6h-3.7v-2.2h3.7L66.9,112.6z M59.1,112
										c-1.3-0.6-2.5-1.5-3.3-2.8l1.8-1.2c0.6,0.9,1.4,1.5,2.3,2L59.1,112z M56.8,105.1h-2.2v-3.7h2.2V105.1z M56.8,97.6h-2.2
										v-3.7h2.2V97.6z M56.8,90.2h-2.2v-3.7h2.2V90.2z M56.8,82.7h-2.2V79h2.2V82.7z"/>
									<rect id="사각형_244" x="54.6" y="73.4" class="st5" width="2.2" height="1.9"/>
									<rect id="사각형_245" x="82.2" y="126.4" class="st5" width="1.9" height="2.2"/>
									<path id="패스_778" class="st5" d="M38.5,137.1h-2.2v-3.2c0-0.2,0-0.3,0-0.5l2.2,0.2c0,0.1,0,0.2,0,0.4L38.5,137.1z
										 M39.6,130.7l-1.7-1.3c0.9-1.2,2.1-2,3.5-2.5l0.7,2.1C41.1,129.2,40.2,129.8,39.6,130.7 M78.5,128.6h-3.7v-2.2h3.7V128.6z
										 M71.1,128.6h-3.7v-2.2h3.7V128.6z M63.8,128.6h-3.7v-2.2h3.7L63.8,128.6z M56.4,128.6h-3.7v-2.2h3.7L56.4,128.6z
										 M49,128.6h-3.7v-2.2H49L49,128.6z"/>
									<rect id="사각형_246" x="36.3" y="140.8" class="st5" width="2.2" height="1.9"/>
									<rect id="사각형_247" x="221.6" y="56.5" class="st5" width="6.2" height="8.2"/>
									<rect id="사각형_248" x="230.4" y="51.7" class="st5" width="6.2" height="13"/>
									<rect id="사각형_249" x="239.2" y="47" class="st5" width="6.2" height="17.7"/>
									<path id="패스_779" class="st5" d="M228.4,46.6l1.3,3.7l12.6-8.3l1.1,1.7l3.4-5.5l-6.5,0.9l1.1,1.7l-10.9,7.1l-1.3-3.7
										l-8.8,5.7l0.9,1.3L228.4,46.6z"/>
									<path id="패스_780" class="st5" d="M219.1,66.6V41.8h-1.9v26.7h31v-1.9H219.1z"/>
									<path id="패스_781" class="st5" d="M58.4,69.2h-5.1c-0.6,0-1-0.4-1.1-1l-0.5-3.6c-1.3-0.4-2.6-0.9-3.8-1.6l-2.9,2.2
										c-0.4,0.3-1.1,0.3-1.4-0.1l-3.6-3.6c-0.4-0.4-0.4-1-0.1-1.4l2.2-2.9c-0.7-1.2-1.2-2.5-1.6-3.8L37,53c-0.5-0.1-1-0.5-1-1.1
										v-5.1c0-0.6,0.4-1,1-1.1l3.6-0.5c0.4-1.3,0.9-2.6,1.6-3.8L40,38.6c-0.3-0.4-0.3-1.1,0.1-1.4l3.6-3.6c0.4-0.4,1-0.4,1.4-0.1
										l2.9,2.2c1.2-0.7,2.5-1.2,3.8-1.6l0.5-3.6c0.1-0.5,0.5-1,1.1-1h5.1c0.6,0,1,0.4,1.1,1L60,34c1.3,0.4,2.6,0.9,3.8,1.6
										l2.9-2.2c0.4-0.3,1.1-0.3,1.4,0.1l3.6,3.6c0.4,0.4,0.4,1,0.1,1.4l-2.2,2.9c0.7,1.2,1.2,2.5,1.6,3.8l3.6,0.5
										c0.5,0.1,1,0.5,1,1.1v5.1c0,0.6-0.4,1-1,1.1l-3.6,0.5c-0.4,1.3-0.9,2.6-1.6,3.8l2.2,2.9c0.3,0.4,0.3,1.1-0.1,1.4l-3.6,3.6
										c-0.4,0.4-1,0.4-1.4,0.1l-2.9-2.2c-1.2,0.7-2.5,1.2-3.8,1.6l-0.5,3.6C59.5,68.8,59,69.2,58.4,69.2 M54.3,67h3.2l0.5-3.4
										c0.1-0.5,0.4-0.8,0.9-0.9c1.6-0.3,3.1-1,4.5-1.9c0.4-0.3,0.9-0.2,1.3,0l2.7,2.1l2.2-2.2L67.4,58c-0.3-0.4-0.3-0.9,0-1.3
										c0.9-1.4,1.5-2.9,1.9-4.5c0.1-0.5,0.5-0.8,0.9-0.9l3.4-0.5v-3.2l-3.4-0.5c-0.5-0.1-0.8-0.4-0.9-0.9c-0.3-1.6-1-3.1-1.9-4.5
										c-0.3-0.4-0.2-0.9,0-1.3l2.1-2.7l-2.2-2.2l-2.7,2.1c-0.4,0.3-0.9,0.3-1.3,0c-1.4-0.9-2.9-1.5-4.5-1.9
										c-0.5-0.1-0.8-0.5-0.9-0.9l-0.5-3.4h-3.2l-0.5,3.4c-0.1,0.5-0.4,0.8-0.9,0.9c-1.6,0.3-3.1,1-4.5,1.9
										c-0.4,0.3-0.9,0.2-1.3,0l-2.7-2.1L42.3,38l2.1,2.7c0.3,0.4,0.3,0.9,0,1.3c-0.9,1.4-1.5,2.9-1.9,4.5
										c-0.1,0.5-0.5,0.8-0.9,0.9l-3.4,0.5v3.2l3.4,0.5c0.5,0.1,0.8,0.4,0.9,0.9c0.3,1.6,1,3.1,1.9,4.5c0.3,0.4,0.2,0.9,0,1.3
										l-2.1,2.7l2.2,2.2l2.7-2.1c0.4-0.3,0.9-0.3,1.3,0c1.4,0.9,2.9,1.5,4.5,1.9c0.5,0.1,0.8,0.5,0.9,0.9L54.3,67z M55.9,55.6
										c-3.4,0-6.2-2.8-6.2-6.2c0-3.4,2.8-6.2,6.2-6.2c3.4,0,6.2,2.8,6.2,6.2C62.1,52.8,59.3,55.6,55.9,55.6 M55.9,45.3
										c-2.2,0-4,1.8-4,4c0,2.2,1.8,4,4,4c2.2,0,4-1.8,4-4C59.9,47.1,58.1,45.3,55.9,45.3"/>
									<path id="패스_782" class="st5" d="M55.9,38.2c-6.2,0-11.2,5-11.2,11.2s5,11.2,11.2,11.2s11.2-5,11.2-11.2
										C67.1,43.2,62.1,38.2,55.9,38.2 M55.9,57.5c-4.5,0-8.2-3.7-8.2-8.2c0-4.5,3.7-8.2,8.2-8.2c4.5,0,8.2,3.7,8.2,8.2
										c0,0,0,0,0,0C64.1,53.9,60.4,57.5,55.9,57.5"/>
									<path id="패스_783" class="st5" d="M58.9,193.9H16.7c-0.6,0-1.1-0.5-1.1-1.1l0,0v-35.2c0-0.3,0.1-0.6,0.3-0.8l10.3-10.3
										c0.2-0.2,0.5-0.3,0.8-0.3h31.9c0.6,0,1.1,0.5,1.1,1.1l0,0v45.6C60,193.4,59.6,193.9,58.9,193.9L58.9,193.9 M17.8,191.7h40
										v-43.4H27.5l-9.7,9.7L17.8,191.7z"/>
									<path id="패스_784" class="st5" d="M27,158.6H16.7c-0.6,0-1.1-0.5-1.1-1.1c0-0.3,0.1-0.6,0.3-0.8l10.3-10.3
										c0.4-0.4,1.1-0.4,1.6,0c0.2,0.2,0.3,0.5,0.3,0.8v10.3C28.1,158.1,27.7,158.6,27,158.6C27,158.6,27,158.6,27,158.6
										 M19.4,156.4h6.6v-6.6L19.4,156.4z"/>
									<rect id="사각형_250" x="45.8" y="152.2" class="st5" width="8.3" height="1.7"/>
									<rect id="사각형_251" x="45.8" y="155.2" class="st5" width="8.3" height="1.7"/>
									<path id="패스_785" class="st5" d="M243.4,149.9h-2.1v-3.7h2.1V149.9z M243.4,142.5h-2.1v-3.7h2.1V142.5z M243.4,135.1
										h-2.1v-0.7c0-0.8-0.2-1.6-0.6-2.3l1.9-1c0.5,1,0.8,2.2,0.8,3.4L243.4,135.1z M238.5,130c-0.7-0.4-1.5-0.6-2.4-0.6h-0.7
										v-2.1h0.7c1.2,0,2.3,0.3,3.4,0.8L238.5,130z M231.8,129.4h-3.7v-2.1h3.7L231.8,129.4z M224.4,129.4h-3.7v-2.1h3.7V129.4z
										 M217.1,129.4h-3.7v-2.1h3.7V129.4z M209.7,129.4H206v-2.1h3.7V129.4z M202.4,129.4h-3.7v-2.1h3.7V129.4z M195,129.4h-3.7
										v-2.1h3.7V129.4z M187.6,129.4H184v-2.1h3.7V129.4z M180.3,129.4h-3.7v-2.1h3.7L180.3,129.4z M172.9,129.4h-3.7v-2.1h3.7
										V129.4z"/>
									<path id="패스_786" class="st5" d="M258.6,183.5h-32.9c-1.2,0-2.2-1-2.2-2.2V155c0-0.8,0.6-1.4,1.4-1.4h13.1
										c0.7,0,1.2,0.4,1.5,1l0.7,1.9h18.5c1.2,0,2.2,1,2.2,2.2v22.6C260.7,182.5,259.8,183.5,258.6,183.5 M225.6,155.8v25.6
										c0,0,0,0,0,0h32.9c0,0,0,0,0,0v-22.6c0,0,0,0,0,0h-19.2c-0.5,0-0.9-0.3-1-0.7l-0.8-2.2L225.6,155.8z"/>
									<path id="패스_787" class="st5" d="M247.1,168.3l-4.9,6.1c-0.1,0.1-0.2,0.1-0.3,0c0,0,0,0,0,0l-4.9-6.1
										c-0.1-0.1,0-0.2,0.1-0.2h2.6c0.1,0,0.2-0.1,0.2-0.3v-5c0-0.1,0.1-0.2,0.2-0.3h3.7c0.1,0,0.2,0.1,0.2,0.3v5
										c0,0.1,0.1,0.2,0.2,0.3h2.6C247.2,168.1,247.2,168.2,247.1,168.3"/>
									<path id="패스_788" class="st5" d="M250.1,178.3h-16c-1.3,0-2.3-1-2.3-2.3v-3.7h2.1v3.7c0,0.1,0.1,0.1,0.1,0.1h16
										c0.1,0,0.1-0.1,0.1-0.1v-3.7h2.1v3.7C252.3,177.3,251.3,178.3,250.1,178.3"/>
									<rect id="사각형_252" x="32" y="96.1" class="st5" width="6.3" height="6.3"/>
									<rect id="사각형_253" x="25.5" y="89.6" class="st5" width="5.4" height="5.4"/>
									<path id="패스_789" class="st5" d="M243.7,96.3h-1l1-3.7c0-0.1,0-0.2-0.1-0.2c0,0,0,0,0,0h-1.3c-0.1,0-0.2,0.1-0.2,0.1
										l-1,3.8h-1.9l-0.9-3.8c0-0.1-0.1-0.1-0.2-0.1h-1.5c-0.1,0-0.2,0.1-0.2,0.1l-1,3.8h-1.9l-0.9-3.8c0-0.1-0.1-0.1-0.2-0.1
										h-1.3c-0.1,0-0.1,0-0.1,0.1c0,0,0,0.1,0,0.2l1,3.7h-1c-0.1,0-0.2,0.1-0.2,0.2v1.1c0,0.1,0.1,0.2,0.2,0.2h1.4l1.3,4.9
										c0,0.1,0.1,0.1,0.2,0.1h1.3c0.1,0,0.2-0.1,0.2-0.1l1.3-4.9h1.4l1.3,4.9c0,0.1,0.1,0.1,0.2,0.1h1.3c0.1,0,0.2-0.1,0.2-0.1
										l1.3-4.9h1.4c0.1,0,0.2-0.1,0.2-0.2v-1.1C243.9,96.4,243.8,96.3,243.7,96.3 M240.7,97.8l-0.6,2.2l-0.6-2.2H240.7z
										 M237.7,96.3H237l0.3-1.3L237.7,96.3z M235.1,97.8l-0.6,2.2l-0.6-2.2H235.1z"/>
									<path id="패스_790" class="st5" d="M253.1,113.8l-3-4c-0.4-0.5-1-0.8-1.7-0.8c-0.1,0-0.2,0-0.2,0l-1.6-2.1
										c5.5-5.1,5.9-13.6,0.8-19.1c-5.1-5.5-13.6-5.9-19.1-0.8c-5.5,5.1-5.9,13.6-0.8,19.1c4.5,4.9,11.8,5.8,17.4,2.2l1.7,2.2
										c-0.2,0.7-0.1,1.4,0.3,2l3,4c0.7,0.9,2,1.2,2.9,0.5C253.6,116.2,253.8,114.8,253.1,113.8
										C253.1,113.9,253.1,113.8,253.1,113.8 M226.4,96.9c0-6.1,4.9-11,11-11s11,4.9,11,11s-4.9,11-11,11l0,0
										C231.3,107.9,226.4,103,226.4,96.9"/>
								</g>
							</g>
						</g>
					</g>
					<path id="패스_791" class="st6" d="M101.1,184.3L101.1,184.3c-1.7-0.8-2.5-2.9-1.6-4.7l14.9-30.9c0.8-1.7,2.9-2.5,4.7-1.6
						c1.7,0.8,2.5,2.9,1.6,4.7l-14.9,30.9C104.9,184.4,102.8,185.1,101.1,184.3"/>
					<path id="패스_792" class="st6" d="M178.9,184.3L178.9,184.3c1.7-0.8,2.5-2.9,1.6-4.7l-14.9-30.9c-0.8-1.7-2.9-2.5-4.7-1.6
						s-2.5,2.9-1.6,4.7l14.9,30.9C175.1,184.4,177.2,185.1,178.9,184.3"/>
					<rect id="사각형_255" x="83.1" y="66.6" class="st7" width="113.9" height="86.3"/>
					<path id="패스_793" class="st6" d="M140,67.4c-5.9,0-10.7-4.8-10.7-10.7s4.8-10.7,10.7-10.7c5.9,0,10.7,4.8,10.7,10.7
						C150.7,62.6,145.9,67.4,140,67.4 M140,51.7c-2.8,0-5.1,2.3-5.1,5.1c0,2.8,2.3,5.1,5.1,5.1c2.8,0,5.1-2.3,5.1-5.1
						C145.1,53.9,142.8,51.7,140,51.7"/>
					<path id="패스_794" class="st5" d="M200.4,59.7H79.6c-1.9,0-3.4,2.3-3.4,5c0,2.8,1.5,5.1,3.4,5.1h120.7c1.9,0,3.4-2.3,3.4-5
						C203.8,62,202.2,59.7,200.4,59.7"/>
					<path id="패스_795" class="st5" d="M200.4,149.6H79.6c-1.9,0-3.4,2.3-3.4,5c0,2.8,1.5,5.1,3.4,5.1h120.7c1.9,0,3.4-2.3,3.4-5
						C203.8,151.8,202.2,149.6,200.4,149.6"/>
				</g>
			</g>
		</g>
		<g id="그룹_544">
			<g>
				<defs>
					<rect id="SVGID_00000102519027212190775180000007104376527224357022_" y="0.5" width="280" height="280"/>
				</defs>
				<clipPath id="SVGID_00000136393743048876003830000005685785535051426465_">
					<use xlink:href="#SVGID_00000102519027212190775180000007104376527224357022_"  style="overflow:visible;"/>
				</clipPath>
				<g id="그룹_543" style="clip-path:url(#SVGID_00000136393743048876003830000005685785535051426465_);">
					<g id="그룹_542">
						<g>
							<path class="st9" d="M142.8,111.6"/>
							<g id="그룹_541">
								<path id="패스_796" class="st5" d="M142.8,111.6"/>
							</g>
						</g>
					</g>
				</g>
			</g>
		</g>
		<g id="그룹_546">
			<g>
				<defs>
					<rect id="SVGID_00000070825896305836125020000009413467466999109285_" y="0.5" width="280" height="280"/>
				</defs>
				<clipPath id="SVGID_00000143593627957488061410000018299560606485602999_">
					<use xlink:href="#SVGID_00000070825896305836125020000009413467466999109285_"  style="overflow:visible;"/>
				</clipPath>
				<g id="그룹_545" style="clip-path:url(#SVGID_00000143593627957488061410000018299560606485602999_);">
					<path id="패스_798" class="st11" d="M142.8,111.6"/>
				</g>
			</g>
		</g>
		<g id="그룹_550">
			<g>
				<defs>
					<rect id="SVGID_00000013172326354476107320000000116989896405489590_" y="0.5" width="280" height="280"/>
				</defs>
				<clipPath id="SVGID_00000173137648222347469990000009531066589234696582_">
					<use xlink:href="#SVGID_00000013172326354476107320000000116989896405489590_"  style="overflow:visible;"/>
				</clipPath>
				<g id="그룹_549" style="clip-path:url(#SVGID_00000173137648222347469990000009531066589234696582_);">
					<g id="그룹_548">
						<g>
							<path class="st9" d="M142.8,111.6"/>
							<g id="그룹_547">
								<path id="패스_799" class="st5" d="M142.8,111.6"/>
							</g>
						</g>
					</g>
				</g>
			</g>
		</g>
		<g id="그룹_552">
			<g>
				<defs>
					<rect id="SVGID_00000042710154455663751420000008827041913016236454_" y="0.5" width="280" height="280"/>
				</defs>
				<clipPath id="SVGID_00000160178751939560514720000011293289784824406204_">
					<use xlink:href="#SVGID_00000042710154455663751420000008827041913016236454_"  style="overflow:visible;"/>
				</clipPath>
				<g id="그룹_551" style="clip-path:url(#SVGID_00000160178751939560514720000011293289784824406204_);">
					<path id="패스_801" class="st11" d="M142.8,111.6"/>
				</g>
			</g>
		</g>
		<g id="그룹_556">
			<g>
				<defs>
					<rect id="SVGID_00000154422532497005379950000003142040611174267069_" y="0.5" width="280" height="280"/>
				</defs>
				<clipPath id="SVGID_00000130642930068310126800000002485476596378561463_">
					<use xlink:href="#SVGID_00000154422532497005379950000003142040611174267069_"  style="overflow:visible;"/>
				</clipPath>
				<g id="그룹_555" style="clip-path:url(#SVGID_00000130642930068310126800000002485476596378561463_);">
					<g id="그룹_554">
						<g>
							<path class="st9" d="M142.8,111.6"/>
							<g id="그룹_553">
								<path id="패스_802" class="st5" d="M142.8,111.6"/>
							</g>
						</g>
					</g>
				</g>
			</g>
		</g>
		<g id="그룹_558">
			<g>
				<defs>
					<rect id="SVGID_00000170267721729826633810000017861604500534994598_" y="0.5" width="280" height="280"/>
				</defs>
				<clipPath id="SVGID_00000150804199667990634730000013884121180003216296_">
					<use xlink:href="#SVGID_00000170267721729826633810000017861604500534994598_"  style="overflow:visible;"/>
				</clipPath>
				<g id="그룹_557" style="clip-path:url(#SVGID_00000150804199667990634730000013884121180003216296_);">
					<path id="패스_804" class="st11" d="M142.8,111.6"/>
				</g>
			</g>
		</g>
		<g id="그룹_562">
			<g>
				<defs>
					<rect id="SVGID_00000112618799568682575590000007782015356840341416_" y="0.5" width="280" height="280"/>
				</defs>
				<clipPath id="SVGID_00000018949111387692723580000003006804708618401203_">
					<use xlink:href="#SVGID_00000112618799568682575590000007782015356840341416_"  style="overflow:visible;"/>
				</clipPath>
				<g id="그룹_561" style="clip-path:url(#SVGID_00000018949111387692723580000003006804708618401203_);">
					<g id="그룹_560">
						<g>
							<path class="st9" d="M142.8,111.6"/>
							<g id="그룹_559">
								<path id="패스_805" class="st5" d="M142.8,111.6"/>
							</g>
						</g>
					</g>
				</g>
			</g>
		</g>
		<g id="그룹_564">
			<g>
				<defs>
					<rect id="SVGID_00000118361805590608586290000005960758078793839239_" y="0.5" width="280" height="280"/>
				</defs>
				<clipPath id="SVGID_00000174569184908422291820000009791431773050293394_">
					<use xlink:href="#SVGID_00000118361805590608586290000005960758078793839239_"  style="overflow:visible;"/>
				</clipPath>
				<g id="그룹_563" style="clip-path:url(#SVGID_00000174569184908422291820000009791431773050293394_);">
					<path id="패스_807" class="st11" d="M142.8,111.6"/>
				</g>
			</g>
		</g>
		<g id="그룹_568">
			<g>
				<defs>
					<rect id="SVGID_00000020364942821973618080000008336253652405198497_" y="0.5" width="280" height="280"/>
				</defs>
				<clipPath id="SVGID_00000173862946023488441500000014598911398491942067_">
					<use xlink:href="#SVGID_00000020364942821973618080000008336253652405198497_"  style="overflow:visible;"/>
				</clipPath>
				<g id="그룹_567" style="clip-path:url(#SVGID_00000173862946023488441500000014598911398491942067_);">
					<g id="그룹_566">
						<g>
							<path class="st9" d="M142.8,111.6"/>
							<g id="그룹_565">
								<path id="패스_808" class="st5" d="M142.8,111.6"/>
							</g>
						</g>
					</g>
				</g>
			</g>
		</g>
		<g id="그룹_570">
			<g>
				<defs>
					<rect id="SVGID_00000031165661106640570380000011443794022296846486_" y="0.5" width="280" height="280"/>
				</defs>
				<clipPath id="SVGID_00000052102655596760813670000010006910601716408466_">
					<use xlink:href="#SVGID_00000031165661106640570380000011443794022296846486_"  style="overflow:visible;"/>
				</clipPath>
				<g id="그룹_569" style="clip-path:url(#SVGID_00000052102655596760813670000010006910601716408466_);">
					<path id="패스_810" class="st11" d="M142.8,111.6"/>
					<path id="패스_811" class="st20" d="M142.8,111.6L142.8,111.6l-16.2,22.3c12.3,8.9,29.5,6.2,38.5-6.1c1.7-2.3,3-4.9,3.9-7.7
						L142.8,111.6z"/>
					<path id="패스_812" class="st21" d="M169,120.1c1.8-5.5,1.8-11.5,0-17l-26.2,8.5L169,120.1z"/>
					<path id="패스_813" class="st22" d="M159,89.3c-4.7-3.4-10.4-5.3-16.2-5.3v27.5l0,0l26.2-8.5C167.2,97.6,163.7,92.7,159,89.3
						"/>
					<path id="패스_814" class="st23" d="M142.8,111.6V79.5c-17.7,0-32.1,14.4-32.1,32.1c0,10.3,4.9,20,13.3,26L142.8,111.6z"/>
					<path id="패스_815" class="st24" d="M124.3,95.6c0,1.5,1.2,2.7,2.7,2.7c1.5,0,2.7-1.2,2.7-2.7c0-1.5-1.2-2.7-2.7-2.7
						C125.5,92.9,124.3,94.1,124.3,95.6L124.3,95.6"/>
					<path id="패스_816" class="st24" d="M131.7,98.8c0.5,0,0.8,0.4,0.8,0.8v9.6c0,0.5-0.4,0.8-0.8,0.8h-0.1
						c-0.5,0-0.8-0.4-0.8-0.8v-7.4c0-0.5-0.3-0.8-0.6-0.8s-0.6,0.4-0.6,0.8v16.8c0,0.5-0.4,0.8-0.8,0.8h-0.2c-0.5,0-0.8-0.4-0.8-0.8
						V111c0.1-0.4-0.2-0.8-0.6-0.8s-0.8,0.2-0.8,0.6c0,0.1,0,0.2,0,0.3v7.7c0,0.5-0.4,0.8-0.8,0.8h-0.2c-0.5,0-0.8-0.4-0.8-0.8
						v-16.8c0-0.5-0.3-0.8-0.6-0.8s-0.6,0.4-0.6,0.8v7.4c0,0.5-0.4,0.8-0.8,0.8h-0.1c-0.5,0-0.8-0.4-0.8-0.8v-9.6
						c0-0.5,0.4-0.8,0.8-0.8L131.7,98.8z"/>
				</g>
			</g>
		</g>
	</g>
</g>
</svg>
