<?xml version="1.0" encoding="utf-8"?>
<!-- Generator: Adobe Illustrator 23.0.1, SVG Export Plug-In . SVG Version: 6.00 Build 0)  -->
<svg version="1.1" id="레이어_1" xmlns="http://www.w3.org/2000/svg" xmlns:xlink="http://www.w3.org/1999/xlink" x="0px"
	 y="0px" viewBox="0 0 70 28" style="enable-background:new 0 0 70 28;" xml:space="preserve">
<style type="text/css">
	.st0{fill:#F08200;}
	.st1{fill:#009F74;}
	.st2{fill:#0073BD;}
	.st3{fill:#231815;}
</style>
<g id="그룹_8" transform="translate(0.1 -0.066)">
	<path id="패스_4" class="st0" d="M44.2,0.7l-0.1-0.1c-0.2,0-0.4,0.1-0.7,0.4l-0.2,0.2c-0.8,0.4-1.4,2.5-1.6,3.3c0,0,0,0-0.1,0
		C40.9,3.6,40.1,3,39,2.8c0.4,1.5,1.7,5.9,3.4,5.5c0.9-0.2,2.7-3.9,2.7-5.9V2.3C45.1,1.2,44.6,0.9,44.2,0.7z"/>
	<path id="패스_5" class="st1" d="M55.7,23.2c-1.7-0.1-3.4,0.1-4.9,0.7c-0.3,0.1-0.6,0.3-0.8,0.6c0,0.4-0.2,1.1,0.2,1.3v0.1
		c0.1,0.1,0.2,0.1,0.4,0.3c0.1,0.1,0.1,0,0.2,0l0.1,0.1c0.2,0.1,0.4,0.1,0.6,0.2c0.1,0.1,0.2,0.1,0.3,0.1s0.1,0.1,0.2,0.2
		c0.4,0.1,0.8,0.1,1.1,0c1.2,0,1-0.1,2.2-0.1c1,0,2,0.1,3,0.1c0.5,0,1.1,0,1.7,0c1-0.1,1.9,0.1,2.9,0.1c0.5,0,1,0.2,1.5,0.2
		c0.5-0.1,1-0.1,1.6,0c0.2,0,0.3,0,0.5,0.1c0.1,0.1,0.3,0.1,0.5,0.2c0.5,0,0.9-0.1,1.3-0.3c0.3-0.1,0.5-0.1,0.8-0.3
		c0.1-0.1,0.3-0.3,0.3-0.5c0.2-0.4,0.2-0.8,0.1-1.2h-0.1c0-0.1,0-0.2-0.1-0.2c-0.2-0.1-0.4-0.1-0.6-0.1c-0.2-0.1-0.5-0.2-0.8-0.2
		C63.8,23.6,59.7,23.2,55.7,23.2z"/>
	<path id="패스_6" class="st2" d="M34.9,24c0.2,0,0.5,0,0.6,0.2c0.1,0.1-0.1,0.3-0.1,0.4c0,0.4,0.1,0.7,0.1,1c0,0.1,0,0.1-0.1,0.2
		S35.2,26,35.1,26c-0.3,0.2-0.7,0.1-1,0.2c-0.5,0.1-0.9,0.2-1.4,0.2c-0.8,0-1.6,0-2.5-0.1c-0.3,0-0.6,0-0.9,0.1
		c-0.4,0.1-0.8,0.1-1.2,0.1c-2-0.1-4-0.1-6-0.1c-0.4,0-0.7,0.1-1.1,0.1c-1.6,0.1-3.2,0.1-4.8,0.1c-0.6,0-1.1,0-1.7,0
		c-0.3,0-0.6,0-0.9,0c-1.2,0.1-2.4,0.1-3.6,0.1c-0.5,0-1,0-1.4,0C7.4,26.9,6,27,4.7,27c-1,0-1.9-0.3-2.8-0.7C1.3,26,0.8,25.5,0.4,25
		c0.3-0.3,0.6-0.5,1-0.5C2.3,24.2,3.1,24,4,23.9c0.8-0.1,1.5-0.2,2.2-0.2c8.2-0.7,16.4-0.7,24.6-0.2C32.2,23.5,33.6,23.7,34.9,24z"
		/>
	<path id="패스_7" class="st3" d="M52.3,15L52.3,15c0.1,0.3,0.2,0.4,0.4,0.5h0.6c0-0.1,0.1,0,0.1-0.1c0.2,0,0.3-0.1,0.4-0.2h0.1
		c0.1-0.2,0.2-0.3,0.4-0.3c0.2-0.3,0.5-0.6,0.7-0.8c0-0.1,0-0.2,0.1-0.3c0.1-0.5,0.3-1,0.5-1.5c0-0.2,0-0.4,0-0.6c0,0,0.1,0,0.1-0.1
		c0-0.2,0-0.3,0.2-0.4c0.1,0,0.2,0,0.2-0.1V11c0.3,0,0.5,0.2,0.7,0.4h0.3c0,0.1,0.1,0.1,0.1,0.2c0.3,0,0.7,0,1,0.1
		c0,0.2,0.2,0.1,0.3,0.3c0,0.2,0.1,0.3,0.2,0.5c0,0.1,0,0.1-0.1,0.2c0.1,0.2,0.2,0.4,0.1,0.6c0.1,0.2,0,0.5,0.1,0.7
		c-0.1,0.1-0.1,0.3-0.1,0.4c0.1,0.2,0.2,0.5,0.2,0.8c0.2,0.3,0.2,0.6,0.4,0.9v0.3c0.1,0,0,0.2,0.1,0.2c0,0.4-0.1,0.7-0.1,1.1
		c-0.1,0.1-0.1,0.1-0.2,0.2V18C59,18,59,18,59,17.9c-0.1,0.2-0.3,0.3-0.4,0.4c-0.1-0.1-0.2,0.1-0.2,0.1c-0.1,0,0,0.2-0.1,0.2
		s-0.2,0-0.3,0.1s-0.5-0.1-0.6,0.1l-0.1-0.1c-0.1,0.1-0.2,0.1-0.2,0.1c0-0.1,0-0.1-0.1-0.1c-0.1,0.2-0.3,0.3-0.5,0.2
		c-0.1-0.1,0-0.2-0.2-0.2c0-0.3-0.1-0.7-0.2-1c0,0,0,0,0-0.1C56,17.2,56,17.1,56,16.9c-0.1-0.2-0.2-0.5-0.4-0.6c0,0-0.1-0.1,0-0.1
		c-0.1-0.1-0.1-0.1-0.2-0.2c-0.1,0-0.1,0-0.1,0.1c0,0.2-0.3,0.5-0.3,0.7l0,0c0,0.1-0.2,0.2-0.2,0.4c-0.1,0-0.1,0.2-0.2,0.2v0.1
		c-0.3,0.3-0.5,0.8-0.9,1c-0.1,0.2-0.3,0.2-0.4,0.5c-0.2,0-0.4,0.1-0.6,0.1c-0.1-0.1-0.3-0.2-0.4-0.1c0-0.1-0.1-0.1-0.1-0.1L52.1,19
		c-0.1-0.1-0.3,0-0.5-0.1c-0.4-0.3-0.8-0.5-1.2-0.6c-0.1,0,0-0.2-0.1-0.2s-0.1,0-0.2-0.1c0-0.2,0.1-0.3-0.1-0.4l0.1-0.1
		c0-0.1-0.1-0.1-0.1-0.1c-0.1-0.4-0.2-0.6-0.3-1l-0.1-0.1c0-0.2,0-0.3-0.1-0.5s0.1-0.4,0-0.6c0-0.1,0-0.1,0.1-0.2
		c0-0.2,0-0.5,0.1-0.7c-0.1,0-0.1-0.1-0.1-0.1c0.1-0.2,0.1-0.4,0.1-0.7c0.1-0.2,0.2-0.3,0.2-0.5l-0.3,0c0.1-0.1,0.1-0.3,0.2-0.4
		c0-0.1,0-0.1-0.1-0.1c0-0.1,0.1-0.2,0.2-0.2c0.1-0.1,0.3-0.5,0.4-0.6v-0.1c0.2-0.1,0.4-0.2,0.6-0.2c0.2,0,0.4,0.1,0.5,0.2
		c0.1,0.1,0,0.2,0.1,0.4h0.1v0.1c0,0.1,0,0.1,0.1,0.1c0.1,0.2,0.1,0.3,0.1,0.5c0,0.1,0,0.1,0.1,0.1c0,0.1,0.1,0.2,0.1,0.3
		c-0.1,0.1,0,0.3,0,0.4c0.1,0.3,0.1,0.6,0.2,0.9C52.1,14.6,52.2,14.8,52.3,15z"/>
	<path id="패스_8" class="st3" d="M30.2,17c0.1,0.1,0.2,0.2,0.3,0.2c0.1,0.1,0.2,0.2,0.3,0.3c0.1,0,0.2,0.1,0.2,0.1l0.1,0.1
		l0.2,0.2c0.2,0.1,0.2-0.1,0.4,0.1c0.1,0,0.1,0,0.1,0.1l0.1-0.1c0.1,0.1,0.2,0.2,0.3,0.2c0.2,0,0.4,0.1,0.5,0.2
		c0.1,0,0.1,0.1,0.1,0.1c0.2,0.1,0.3,0.2,0.5,0.1c0.1,0,0.1,0,0.1,0.1l0.1-0.1c0.1-0.1,0.2,0.1,0.3,0c0.1,0,0.1,0.1,0.1,0.1H34
		c0.1,0.1,0.7,0,0.8,0.1c0.7,0,1.3,0,2-0.1c0-0.1,0.2,0,0.2-0.1l0.1,0.1c0.2,0.1,0.5-0.2,0.8-0.1l0.1-0.1c0.1,0,0.3,0.2,0.4,0
		c0,0.1,0.1,0.1,0.1,0.1v-0.1c0.2-0.1,0.4-0.1,0.6-0.2c0.1,0,0.2,0,0.2,0c0.1,0,0.1,0,0.1-0.1c0.3-0.1,0.6-0.3,1-0.4
		c0.1-0.1,0.2-0.1,0.2-0.2c0.1,0,0.1,0,0.2,0c0.1-0.1,0.1-0.1,0.2-0.2c0.2,0,0.4-0.2,0.6-0.2c0-0.1,0-0.1,0-0.1h0.1
		c0.1-0.1,0.1-0.1,0.2-0.2c0.2,0,0.3-0.2,0.4-0.4h0.1l0.1-0.1h0.1c0.2-0.1,0.3-0.3,0.5-0.4c0-0.1,0-0.1,0-0.1c0.1,0,0.1-0.1,0.2-0.2
		c0.1,0,0.2-0.2,0.3-0.1c0,0.1,0.2-0.2,0.2-0.1c0,0.1,0.3-0.5,0.3-0.5l-0.5-1.4c-0.2,0.3-0.9,1.2-1.3,1.3c0,0.3-0.3,0.3-0.5,0.5
		c0,0.1,0,0.1,0,0.1c-0.2,0-0.3,0.2-0.4,0.3c0-0.1-0.1,0-0.1,0c0,0.1-0.2,0.1-0.2,0.2c-0.2,0-0.2,0.2-0.4,0.4h-0.1
		c-0.2,0.2-0.5,0.2-0.7,0.4c-0.4,0.2-0.7,0.2-1,0.4c-0.1,0-0.1,0-0.1,0c-0.1,0.1-0.3,0-0.4,0.1c-0.4,0-0.7,0-1.1,0.1
		c0-0.1-0.2,0-0.2-0.1c-0.3,0.1-0.6,0-0.9,0c-0.1-0.1-0.2-0.1-0.2-0.2c-0.2,0.1-0.5,0-0.7-0.2c-0.2,0-0.3-0.2-0.5-0.2v-0.1l-0.1-0.1
		c0-0.2,0.2-0.2,0.3-0.2c0.1-0.2,0.5-0.1,0.6-0.3c0-0.1,0.2-0.2,0.2-0.2c0.1-0.1,0.1-0.2,0.2-0.2c0.2-0.1,0.1-0.2,0.3-0.3
		c0-0.1,0.2-0.2,0.1-0.2c0.2-0.2,0.2-0.3,0.3-0.6c0.2-0.2,0.3-0.4,0.3-0.6c0.1-0.1,0-0.3,0.1-0.4c0.1-0.4-0.1-0.6-0.1-1l-0.1-0.1
		c0-0.2-0.1-0.3-0.1-0.5c-0.2-0.2-0.1-0.2-0.3-0.4L36,11.2h-0.1c-0.1-0.1-0.2-0.2-0.2-0.3c-0.3-0.1-0.5-0.2-0.8-0.3l-0.1,0.1
		l-0.1-0.1l-0.1,0.1c0-0.2-0.2,0-0.2-0.1c-0.1,0-0.2-0.1-0.4,0.1c-0.4-0.1-0.8,0.1-1.2-0.1c0,0.1-0.2-0.1-0.2,0.1
		c-0.1,0.1-0.3,0-0.4,0.1H32c-0.2,0.2-0.4,0.4-0.7,0.4c-0.1,0,0,0.2-0.1,0.2h-0.1c-0.3,0.3-0.6,0.6-1,0.8c0,0.1-0.1,0.1-0.1,0.2
		c0,0.1-0.1,0.1-0.1,0.1c0,0.1-0.1,0.2-0.1,0.2c0,0.1,0,0.1,0.1,0.1c0,0.1-0.1,0.2-0.2,0.2c-0.1,0.2-0.1,0.5-0.2,0.6
		c0,0.5-0.1,0.7-0.2,1.2c0,0.3,0.1,0.6,0.1,0.9c0.2,0.1,0,0.1,0.1,0.3c0.1,0,0,0.1,0,0.2c0.1,0.1,0.3,0.2,0.2,0.3
		c0,0.1,0.1,0.1,0.2,0.1c0.1,0.1-0.1,0.2,0,0.3c0,0.1,0.2,0,0.1,0.1H30.2z M34.3,13.4c-0.1,0.1,0,0.2-0.1,0.2l0.1,0.1
		c-0.1,0.7-0.5,1.2-1,1.6c-0.1,0-0.1,0-0.1-0.1s-0.1-0.3-0.1-0.4c0-0.1-0.1-0.1-0.1-0.1c0.1-0.1-0.1-0.2,0-0.4
		c-0.1,0-0.1-0.1-0.1-0.1c0.2-0.1,0-0.4,0.2-0.5L33,13.6c0.1-0.2,0.2-0.3,0.3-0.4V13c0.3-0.2,0.6-0.4,0.9-0.5c0.1,0,0.1,0,0.1,0.1
		C34.5,12.9,34.3,13.1,34.3,13.4z"/>
	<path id="패스_9" class="st3" d="M45.3,12.8c0,0.1,0,0.2,0,0.2c0.4,0.4,0.4,1.1,0.6,1.6c-0.1,0.2,0,0.4-0.1,0.6
		c0.1,0,0.1,0.1,0.2,0.1c-0.1,0.4,0.2,0.8,0.1,1.2c0,0.1-0.1,0.1-0.1,0.2s0,0.1,0.1,0.1L46,16.9l0.1,0.1L46,17.1
		c0.1,0,0.1,0.1,0.1,0.1c-0.1,0.2,0.1,0.4-0.1,0.6c0.1,0.1,0.1,0.1,0.1,0.2c-0.2,0.2-0.1,0.5-0.2,0.7l0.1,0.1l-0.1,0.1l-0.1-0.1
		c-0.1,0-0.1,0.1-0.1,0.2c0.1,0.1,0.2,0.3,0.1,0.5l0.1,0.1c-0.2,0.2-0.3,0.4-0.4,0.6c0,0.1-0.1,0.1-0.1,0.2c0.1,0.1,0.1,0.1,0.1,0.2
		c-0.1,0.2-0.2,0.3-0.4,0.5c0,0.1,0.1,0.2-0.1,0.3l0.1,0.1C45,21.6,45,21.9,44.9,22c0.1,0,0.1,0.1,0.1,0.1c-0.2,0.2-0.5,0.3-0.4,0.6
		c-0.1,0.2-0.3,0.3-0.5,0.5c0.1,0.1-0.2,0.2-0.2,0.4s-0.2,0.1-0.1,0.2l0.1,0.1h-0.1c0,0.1-0.1,0.2-0.2,0.2c0,0.1,0,0.1-0.1,0.1
		c-0.1,0.1-0.2,0.2-0.3,0.4c0.1,0.1-0.2,0.2-0.2,0.2c-0.1,0.1-0.2,0.2-0.2,0.3c-0.1,0-0.1,0-0.1,0.1v0.1c0,0.1-0.1,0-0.2,0.1
		c-0.6,0.6-1.4,0.9-1.9,1.5c-0.1,0.1-0.3,0.1-0.5,0.2c-0.1,0.1-0.1,0.3-0.2,0.2c0-0.1-0.2,0.1-0.3,0.1c-0.2,0.1-0.4,0-0.5,0
		c0-0.1-0.1-0.1-0.1-0.1l-0.1,0.1c-0.1-0.1-0.2-0.2-0.3-0.2c-0.1-0.1,0.1-0.1,0-0.2l0.1-0.1c0-0.1-0.1-0.1-0.2-0.1
		c-0.1-0.2,0.1,0,0.1-0.2h-0.3c-0.1-0.1-0.2-0.1-0.3-0.3c0-0.1,0.3-0.1,0.4-0.3c0.1,0,0.1,0,0.2-0.1v-0.1c0.1-0.1,0.1-0.2,0.2-0.2
		c0,0.1,0.1,0,0.1,0s0.1,0,0.1-0.1s0-0.2,0.1-0.2h0.1c0.2-0.1,0.3-0.3,0.4-0.5v-0.1c0.1-0.1,0.1-0.2,0.2-0.3c0,0.1,0,0.1,0.1,0.1
		c0.2-0.1,0.1-0.2,0-0.4c0.1,0,0.1-0.1,0.2-0.1c0,0.1,0.1,0,0,0c0,0.1,0.1-0.2,0.1-0.2c0.2-0.3,0,0,0.3-0.5c0.1-0.1,0.2-0.1,0.2-0.1
		s0.2-0.1,0.1-0.1c0-0.1,0-0.1-0.1,0c0.1-0.1,0.3-0.4,0.4-0.5c0.2,0.1,0-0.2,0.2-0.2c-0.1,0.1-0.1-0.1-0.1,0h0.2
		c0.2-0.1-0.2-0.1-0.1-0.3c0-0.1,0-0.1-0.1-0.1c0-0.1,0-0.1,0.1-0.1l0.1,0.1c0.1-0.1-0.1-0.3,0.1-0.4v-0.2c0.2-0.2,0.1-0.1,0.2-0.4
		l-0.1-0.1c0,0.1,0.1-0.1,0.1-0.1v-0.1c0.1-0.1,0.2-0.6,0.2-0.7c0,0.1-0.2-0.3,0-0.3c0.2-0.3,0.1-0.7,0.1-1.1
		c-0.1-0.1,0.1-0.2,0-0.3c-0.1,0-0.1,0-0.1-0.1L42,18c0-0.1,0-0.1-0.1-0.1c0-0.1,0-0.1,0.1-0.2c0-0.1,0-0.1-0.1-0.1l0.1-0.2
		c0-0.1-0.1-0.1-0.1-0.1c0-0.3-0.3-0.5-0.1-0.8c-0.1,0-0.1-0.1-0.1-0.1c0.2-0.2-0.1-0.5,0-0.8c-0.1-0.1-0.1-0.2-0.1-0.4
		c0.1-0.1-0.1-0.2-0.1-0.2c-0.1-0.3-0.2-0.7-0.2-1c-0.1,0.1-0.2-1-0.4-1.5c-0.2-0.3-0.1-0.6-0.2-0.9c0.1,0,0.1,0,0.1-0.1
		c-0.1-0.2,0.1-0.3,0.2-0.6c0.2,0,0.3-0.1,0.5,0c0.1-0.1,0.1-0.2,0-0.3c0.3,0,0.5-0.1,0.8-0.1c0,0.1,0,0.1,0.1,0.1
		c0.2,0,0.3,0.1,0.6,0.1c0,0.1,0,0.2,0.1,0.1c0.1,0,0.2,0,0.3,0.1c0.1,0,0.1,0,0.1-0.1l0.1,0.1l0.1-0.1c0.1,0.1,0.1,0.1,0.2,0
		c0.1,0.1,0.1,0.3,0.2,0.2C44.6,11.7,44.9,12.3,45.3,12.8z"/>
	<path id="패스_10" class="st3" d="M11.2,14.2c0-0.1-0.2-0.2-0.3-0.2s-0.2,0.1-0.3,0c-0.1,0.1-0.2,0.2-0.3,0.3
		c-0.1,0-0.2,0.1-0.2,0.1c0,0.2-0.1,0.2,0.1,0.7c0.1,0,0.2,0.4,0.2,0.5c0-0.2,0.2,0.4,0.3,0.4h0.1v0.1l0.2,0.2c0,0.1,0.1,0.1,0,0.2
		c0.2,0,0.3,0.1,0.4,0.2v0.1h0.1c0.1,0,0,0.1,0.1,0.2h0.1c0.2,0,0.3,0,0.3,0c0.1,0.2,0.9,0.5,1.1,0.7h0.1c0.1,0.1,0.4,0.1,0.4,0.3
		h0.1c0,0.1,0.5,0.1,0.7,0.2c0.1,0,0-0.1,0-0.1c0.1,0.1,0.2,0.2,0.3,0.3c0.1,0,0.3,0,0.4,0.1c0.2,0.2,0.6,0.1,0.8,0.2
		c0,0.1,0.1,0.1,0.1,0.1h0.1v0.1c0.1-0.1,0.2,0,0.3-0.1v0.1h0.1c0,0,0,0.1,0.1,0.1c0.2,0,0.4,0.1,0.6,0c0,0.1,0.1,0.1,0.1,0.1
		c0.1,0,0.1-0.1,0.1-0.1c0.1,0,0.2,0.1,0.4,0.1v0.1c0.2-0.1,0.4-0.1,0.6,0c0-0.1,0.1,0,0.2-0.1v0.1c0.2-0.1,0.4-0.1,0.6-0.1v0.1
		c0.1,0,0,0,0,0c0.1-0.1,0.5-0.1,0.6-0.2c0.1,0.1,0.3,0.1,0.5,0.1c0.1,0,0.2,0,0.2,0.1c0.2-0.1,0.4-0.2,0.6,0
		c0.3-0.1,0.5-0.2,0.8-0.3c0.1,0,0.1,0,0.2,0s0.1,0,0.2-0.1c0.2-0.1,0.5-0.2,0.7-0.3c0,0.1,0.2-0.1,0.2,0c0,0,0-0.1,0.1-0.1
		s0.2-0.1,0.3-0.1c0,0,0-0.1,0.1-0.1c0.2-0.1,0.1-0.1,0.3-0.2c0.1-0.1,0.4-0.4,0.7-0.6c0-0.1,0.2-0.2,0.2-0.3H25V17
		c0.1,0,0.1-0.2,0.1-0.1l0.1-0.2c0.2-0.1,0.2-0.5,0.4-0.6V16c0.1-0.1,0.1-0.4,0.1-0.4v-0.1c0.1-0.2,0.1-0.5,0.2-0.7v-0.1
		c0,0,0.1,0,0.1-0.1v-0.1h0.1c-0.1,0,0-0.1-0.1-0.2h0.1c-0.1-0.2,0-0.5,0-0.7h0.1c-0.1-0.1-0.1-0.3,0-0.4c0-0.1,0-0.1,0-0.2
		c-0.1-0.1,0-0.2-0.1-0.2c0-0.1-0.1-0.3,0-0.4L26,12.1V12c0,0-0.1,0-0.1-0.1c0.1-0.1,0-0.2,0-0.3c-0.1,0,0-0.1-0.1-0.2
		c0-0.3-0.1-0.5-0.3-0.7c0.1-0.1-0.1-0.5-0.1-0.6h-0.1c0-0.1-0.1-0.2-0.2-0.3V9.3c0,0-0.1,0-0.1-0.1V9.1l-0.1,0.1
		c-0.1-0.1-0.1-0.2-0.1-0.3c-0.2-0.2-0.2-0.4-0.5-0.8c-0.1,0.1,0-0.2-0.1-0.1c-0.1-0.2-0.2-0.4-0.4-0.6V7.3h-0.1c-0.1,0,0-0.1,0-0.1
		C23.4,7,22.2,6.8,22,6.5c-0.1,0-0.2-0.1-0.2,0.1l-0.1-0.1c-0.3,0.2-0.5-0.1-0.7-0.2l-0.1,0.1c-0.1-0.2-0.2,0-0.4,0l-0.1-0.1
		c-0.3,0.1-0.5,0-0.7,0.3V6.5l0.6,1.1c0.1,0.4,0.1,0.7,0.3,1.1c0.1,0,0.1,0.1,0.1,0.2V9c0.1,0.1,0.1,0.3,0.2,0.4c0,0-0.1,0-0.1,0.1
		c0.1,0.2,0.1,0.4,0.1,0.6c0.1,0.1,0,0.1,0.1,0.2v0.1c0,0.1,0,0.1,0,0.2c0,0.2,0,0,0.2,0.2c-0.1,0.2,0.1,0.4,0,0.6
		c0.1,0.1,0.1,0,0.1,0v0.1c0,0,0,0.1,0.1,0.1c0,0.1,0,0.2,0,0.3c0,0,0,0.2,0.1,0.2c0,0.1,0.1,0.1,0,0.2c0,0,0,0.2-0.1,0.4
		c0,0.1,0,0.2,0,0.4h0.1v0.1v0.1c0,0.1-0.1,0.2-0.1,0.4c-0.1,0.3,0.1,0.6-0.1,0.7c0.1,0.1,0,0.1,0,0.2c-0.1,0-0.1,0.2-0.1,0.2
		c-0.1,0.1-0.1,0.2-0.2,0.4c-0.1,0.1-0.1,0.2-0.3,0.2v0.1h-0.1c-0.1,0.1-0.4,0.2-0.4,0.3v0.1c-0.1,0-0.3,0.1-0.4,0.2
		s-0.3,0.1-0.5,0.2c-0.2,0-0.3,0.1-0.5,0c-0.1,0-0.1,0.1-0.2,0.1s-0.2,0-0.3,0c-0.1,0-0.1,0.1-0.2,0.1H18v-0.1
		c-0.1,0.1-0.2,0-0.4,0.1v-0.1c-0.1,0.1-0.2,0-0.3,0.1c-0.2-0.1-0.4-0.1-0.6-0.1c0,0,0-0.1-0.1-0.1h-0.1h-0.4H16v-0.1h-0.1
		c-0.1-0.1-0.5-0.1-0.7-0.2c-0.1,0.1-0.2,0-0.3,0c-0.3,0-0.7-0.1-1-0.2v-0.1c-0.2,0.1-0.4,0-0.5-0.1c-0.1,0-0.1,0-0.2,0
		c-0.1-0.1-0.4-0.1-0.4-0.2c-0.1-0.1-0.2-0.1-0.2-0.2c-0.1,0.1-0.4-0.3-0.4-0.3H12l-0.1-0.2l-0.2-0.2C11.4,14.2,11.3,14.4,11.2,14.2
		z"/>
	<path id="패스_11" class="st3" d="M15.1,7h0.2c0.3,0.3,1,0.2,1.4,0.5c0.2-0.1,0.4,0,0.5-0.1l0.1,0.1c0.4-0.1,0.6,0.1,0.9,0.1
		c0.1,0,0.1-0.1,0.2-0.1s0.1,0,0.1,0.1l0.1-0.1v0.1l0.1-0.1c0,0.1,0,0.1,0.1,0.1c0.2-0.1,0.3,0,0.5-0.1c0,0.1,0.1,0.1,0.2,0.1
		c0.2-0.2,0.3,0,0.5-0.1v0.1h0.1V7.5c0-0.1,0.1,0,0.1,0c0.1,0.1,0.2,0.2,0.4,0.1v0.1c0.1-0.1-0.8-0.1,0.6-0.2c0.1,0,0.1-0.1,0.2-0.1
		c0,0.1,0.1,0.1,0.2,0.1c0.2-0.1,0.3-0.1,0.5-0.2c0.1,0,0.2,0.1,0.3,0v0.1c0.1,0,0.4,0,0.5,0c0,0.1-0.1-0.1,0-0.1
		c0.2-0.1,0.4-0.2,0.6-0.1c0.2,0,0.3-0.1,0.6-0.2c0.1,0.1,0.3-0.1,0.4,0s0.1-0.1,0.2,0v0.1L24.8,7C24.9,7,25,7,25,6.9
		c0.1,0,0.1,0.1,0.1,0c0.1,0,0.2,0,0.4-0.1c0,0.1,0.1,0,0.1,0c0.1,0,0.2,0,0.3,0L26,6.7h0.1c0.1,0,0.1,0,0.1-0.1
		c0.7-0.1,1.1-0.4,1.9-0.4c0.1-0.1,0.3-0.1,0.4-0.2s0.2,0.1,0.3,0c0,0,0.1-0.1,0.2-0.1c0.2,0,0.3-0.3,0.4-0.4c-0.1,0,0-0.1,0-0.2
		h0.1c0-0.2,0-0.3,0-0.5c0-0.1-0.1,0-0.1-0.1V4.6c0,0,0-0.1,0.1-0.2c0-0.2-0.2,0-0.3-0.1l0.1-0.2c-0.1,0.1-0.3,0-0.4-0.1
		c-0.1,0.1-0.1,0.1-0.2,0.1V4c-0.1,0.1-0.2,0-0.2,0c0.1,0,0,0-0.1,0.1l-0.1,0.1c-0.1,0-0.1-0.1-0.2-0.1L28,4.2
		c-0.4,0.1-0.8,0.1-1.2,0c-0.1,0-0.1,0-0.2,0c0.1,0,0,0.1,0,0c0.1,0-0.2,0-0.2,0c-0.3,0-0.9,0.1-0.8,0c-0.2,0-0.4,0-0.5,0
		c0,0.2-0.2-0.1-0.3,0c0.1,0-0.1,0-0.1,0v0.1c-0.2,0.1-0.2-0.1-0.4,0c-0.1,0-0.1-0.1-0.1-0.1c-0.1,0-0.1-0.1-0.1,0v0.1
		c-0.1,0-0.2-0.1-0.4-0.1l-0.2-0.1c-0.2,0.1-0.4,0.1-0.6,0.1V4.1c0.1,0-0.1,0.1-0.1,0.1h-0.1c-0.2,0.1-0.5,0.1-0.7,0.1
		c0.1,0-0.2-0.2-0.2-0.1c-0.3,0.1-0.7-0.1-1-0.1c0-0.1-0.2,0.1-0.3,0c0-0.1,0-0.1,0-0.1c-0.1,0-0.1,0-0.2,0.1c-0.1,0-0.1,0-0.1-0.1
		c-0.1,0-0.1,0-0.1,0C20,4,20,4,20,3.9c-0.1,0-0.2,0.1-0.2,0.2c-0.1,0,0-0.1,0-0.1c-0.3,0-0.4-0.2-0.7-0.1c0-0.1,0-0.1-0.1-0.1
		c-0.2,0.2-0.6,0-0.8,0.1c0-0.1-0.2-0.1-0.3-0.1C17.6,4.1,17.5,4,17.5,4c-0.3-0.1-0.6-0.1-0.9-0.1c0.1-0.1-0.9-0.1-1.3-0.2
		c-0.2-0.1-0.5,0-0.8-0.1c0,0.1,0,0.1-0.1,0.1c-0.2-0.1-0.3,0.1-0.5,0.2c0,0.1-0.2,0.2-0.1,0.3c-0.1,0.1-0.1,0.1-0.2,0.1
		c-0.1,0.2-0.1,0.2-0.2,0.5c0.1,0,0.1,0,0.1,0.1c0,0.2,0.1,0.3,0,0.5c0.1,0,0.1,0,0.1,0.1s0,0.2,0.1,0.3c0,0.1,0,0.1-0.1,0.1V6h-0.1
		c0,0.1,0,0.1,0,0.2c0.1,0.1,0.2,0.1,0.1,0.2C14.2,6.5,14.6,6.8,15.1,7z"/>
</g>
</svg>
